<?xml version="1.0" encoding="UTF-8" standalone="no"?><!DOCTYPE svg PUBLIC "-//W3C//DTD SVG 1.1//EN" "http://www.w3.org/Graphics/SVG/1.1/DTD/svg11.dtd"><svg width="100%" height="100%" viewBox="0 0 20 20" version="1.1" xmlns="http://www.w3.org/2000/svg" xmlns:xlink="http://www.w3.org/1999/xlink" xml:space="preserve" xmlns:serif="http://www.serif.com/" style="fill-rule:evenodd;clip-rule:evenodd;stroke-linejoin:round;stroke-miterlimit:2;"><path d="M9.246,8.934c-0.033,-0 -0.065,-0 -0.098,-0c-0.887,0.006 -1.772,0.071 -2.66,0.074c-1.147,0.002 -2.313,-0.05 -3.455,-0.156c-0.549,-0.052 -1.037,0.353 -1.089,0.902c-0.051,0.55 0.354,1.038 0.903,1.089c1.205,0.113 2.436,0.168 3.646,0.165c0.89,-0.003 1.778,-0.068 2.669,-0.074c0.049,-0.001 0.098,-0 0.148,0.001c0.039,1.328 0.07,2.656 0.079,3.984c0.005,0.672 -0.069,1.345 -0.098,2.017c-0.023,0.551 0.405,1.018 0.957,1.041c0.551,0.024 1.018,-0.405 1.041,-0.956c0.03,-0.704 0.105,-1.411 0.1,-2.116c-0.009,-1.298 -0.039,-2.596 -0.077,-3.896c1.146,-0.01 2.294,-0.072 3.438,-0.108c0.801,-0.024 1.596,0.01 2.398,-0.054c0.55,-0.045 0.961,-0.527 0.917,-1.077c-0.045,-0.55 -0.527,-0.961 -1.077,-0.917c-0.769,0.062 -1.532,0.026 -2.3,0.049c-1.145,0.036 -2.293,0.099 -3.439,0.108c-0.038,-1.145 -0.077,-2.289 -0.108,-3.433c-0.025,-0.893 -0.088,-1.784 -0.088,-2.678c-0,-0.552 -0.448,-1 -1,-1c-0.552,0 -1,0.448 -1,1c-0,0.913 0.064,1.821 0.089,2.733c0.03,1.1 0.067,2.201 0.104,3.302Z"/></svg>