<svg id="a09a241d-0b70-436a-8513-e4762aa676fc" data-name="Ebene 1" xmlns="http://www.w3.org/2000/svg" viewBox="0 0 20 20">
  <g>
    <path d="M14.91,10.34a.49.49,0,0,0-.61.34,17.11,17.11,0,0,1-.7,2,1.14,1.14,0,0,1-.13.25,1.08,1.08,0,0,1-.41.05l-1.47,0,.15-.79c.13-.63.21-1.05.28-1.6h.74a.5.5,0,1,0,0-1h-.63c0-.18,0-.37,0-.58a.5.5,0,0,0-.46-.54.5.5,0,0,0-.54.46c0,.25,0,.46-.06.66H8.53c-.08-.73-.15-1.46-.22-2.19l2.6,0h0a.5.5,0,0,0,0-1L4.66,6.32A2.59,2.59,0,0,0,3.18,4.37a2.88,2.88,0,0,0-1-.09l-1.4.07a.51.51,0,0,0-.48.53.47.47,0,0,0,.53.47l1.4-.07a2.07,2.07,0,0,1,.67,0c.39.13.67.6.87,1.48s.35,1.64.51,2.47a36.43,36.43,0,0,0,1.1,4.62A4.11,4.11,0,0,0,6,15.17a1,1,0,0,0-.25.16,1.71,1.71,0,0,0-.54.94,1.63,1.63,0,0,0,.12,1.07,1.45,1.45,0,0,0,.85.78,1.71,1.71,0,0,0,.43.08,2.34,2.34,0,0,0,.38,0,1.49,1.49,0,0,0,.76-.18A1.61,1.61,0,0,0,8.48,17a1.34,1.34,0,0,0-.11-1l1.24,0h2.31a1.36,1.36,0,0,0-.11.28,1.73,1.73,0,0,0,.11,1.08,1.51,1.51,0,0,0,.86.77,1.71,1.71,0,0,0,.43.08,2.25,2.25,0,0,0,.38,0,1.49,1.49,0,0,0,.76-.18A1.61,1.61,0,0,0,15.07,17a1.44,1.44,0,0,0,0-.34,1.81,1.81,0,0,0-.22-.81,1.46,1.46,0,0,0-.31-.45,1.21,1.21,0,0,0-.28-.21A2.2,2.2,0,0,0,14,15l0,0-.06,0h-.11a1.73,1.73,0,0,0-.68,0H11.13C10.05,15,9,15,8,15a2.25,2.25,0,0,1-1-.18,1.68,1.68,0,0,1-.67-.94c2.21.06,4.44.09,6.64.1h0a1.52,1.52,0,0,0,1-.29,1.54,1.54,0,0,0,.4-.63A15.91,15.91,0,0,0,15.26,11,.5.5,0,0,0,14.91,10.34Zm-.81,6.4a.66.66,0,0,1-.25.44.9.9,0,0,1-.53,0l-.22,0a.47.47,0,0,1-.27-.25.68.68,0,0,1,0-.45.73.73,0,0,1,.22-.39.46.46,0,0,1,.17-.09h.48a.49.49,0,0,1,.17.06l.07,0a1,1,0,0,1,.09.18,1,1,0,0,1,.13.35A.5.5,0,0,1,14.1,16.74ZM11,10.55c-.06.46-.14.84-.25,1.41l-.19,1L9,12.9c-.11-.78-.21-1.57-.3-2.35Zm-5.49,0H7.64q.14,1.17.3,2.34c-.62,0-1.24,0-1.85,0C5.87,12.1,5.68,11.32,5.52,10.55Zm2-1H5.32l-.09-.47C5.12,8.49,5,7.91,4.87,7.32l2.43,0C7.37,8.08,7.45,8.81,7.53,9.55Zm0,7.19a.7.7,0,0,1-.24.44.94.94,0,0,1-.54,0l-.22,0a.5.5,0,0,1-.27-.25.75.75,0,0,1,0-.45.73.73,0,0,1,.22-.39A.65.65,0,0,1,6.83,16L7,16a.86.86,0,0,1,.21.07l.06,0a.85.85,0,0,1,.1.17.89.89,0,0,1,.12.36A.43.43,0,0,1,7.51,16.74Z"/>
    <path d="M18.2,3a3.73,3.73,0,0,0-2.74-1.1,4.15,4.15,0,0,0-3.67,2.45,4.07,4.07,0,0,0-.28,2.07,4.24,4.24,0,0,0,4,3.52h.06a4,4,0,0,0,4-4.12A3.93,3.93,0,0,0,18.2,3ZM15.5,9a3.26,3.26,0,0,1-3-2.7,3.19,3.19,0,0,1,.2-1.45,3.16,3.16,0,0,1,2.85-1.89h.13a2.86,2.86,0,0,1,1.85.84,3,3,0,0,1,1,2.08A3.06,3.06,0,0,1,15.5,9Z"/>
    <path d="M17.06,5.44H16c0-.35,0-.7,0-1a.49.49,0,0,0-.53-.47.52.52,0,0,0-.47.53,8,8,0,0,1,0,1h-1a.5.5,0,0,0-.5.5.5.5,0,0,0,.5.5h1A5.8,5.8,0,0,0,15,7.53a.49.49,0,0,0,.49.41h.09a.5.5,0,0,0,.4-.58A5.49,5.49,0,0,1,16,6.44h1.11a.51.51,0,0,0,.5-.5A.5.5,0,0,0,17.06,5.44Z"/>
  </g>
</svg>
