<?xml version="1.0" encoding="UTF-8" standalone="no"?><!DOCTYPE svg PUBLIC "-//W3C//DTD SVG 1.1//EN" "http://www.w3.org/Graphics/SVG/1.1/DTD/svg11.dtd"><svg width="100%" height="100%" viewBox="0 0 20 20" version="1.1" xmlns="http://www.w3.org/2000/svg" xmlns:xlink="http://www.w3.org/1999/xlink" xml:space="preserve" xmlns:serif="http://www.serif.com/" style="fill-rule:evenodd;clip-rule:evenodd;stroke-linejoin:round;stroke-miterlimit:2;"><path d="M3.687,10.376c0.293,0.222 0.591,0.453 0.942,0.685c1.083,0.716 2.268,1.715 3.344,2.441c0.229,0.154 0.289,0.465 0.135,0.694c-0.155,0.229 -0.466,0.289 -0.694,0.135c-1.074,-0.725 -2.256,-1.722 -3.336,-2.436c-0.846,-0.559 -1.359,-1.123 -2.304,-1.546c-0.216,-0.096 -0.33,-0.327 -0.288,-0.549c-0.037,-0.201 0.051,-0.413 0.236,-0.523c0.168,-0.1 0.302,-0.245 0.468,-0.348c0.551,-0.342 1.137,-0.622 1.685,-0.971c0.619,-0.394 1.188,-0.863 1.798,-1.269c0.724,-0.483 1.492,-0.883 2.203,-1.388c0.225,-0.16 0.537,-0.107 0.697,0.118c0.16,0.225 0.107,0.538 -0.118,0.698c-0.719,0.51 -1.495,0.916 -2.227,1.404c-0.616,0.41 -1.191,0.882 -1.816,1.28c-0.328,0.209 -0.669,0.394 -1.009,0.581c0.08,-0 0.159,-0.002 0.239,-0.005c0.619,-0.023 1.224,-0.123 1.845,-0.116c1.179,0.013 2.347,0.158 3.523,0.205c0.912,0.037 1.831,0.002 2.744,0.011c0.406,0.004 0.811,0.047 1.217,0.048c0.72,0.002 1.452,-0.006 2.17,-0.054c0.603,-0.04 1.183,-0.124 1.79,-0.124c0.276,0 0.5,0.224 0.5,0.5c-0,0.276 -0.224,0.5 -0.5,0.5c-0.584,0 -1.142,0.083 -1.723,0.122c-0.741,0.05 -1.497,0.058 -2.24,0.056c-0.408,-0.001 -0.816,-0.044 -1.224,-0.048c-0.923,-0.009 -1.852,0.025 -2.774,-0.012c-1.167,-0.047 -2.325,-0.191 -3.494,-0.204c-0.602,-0.007 -1.189,0.092 -1.789,0.115Z"/></svg>