<?xml version="1.0" encoding="UTF-8" standalone="no"?><!DOCTYPE svg PUBLIC "-//W3C//DTD SVG 1.1//EN" "http://www.w3.org/Graphics/SVG/1.1/DTD/svg11.dtd"><svg width="100%" height="100%" viewBox="0 0 20 20" version="1.1" xmlns="http://www.w3.org/2000/svg" xmlns:xlink="http://www.w3.org/1999/xlink" xml:space="preserve" xmlns:serif="http://www.serif.com/" style="fill-rule:evenodd;clip-rule:evenodd;stroke-linejoin:round;stroke-miterlimit:2;"><path d="M15.221,10.376c-0.293,0.222 -0.591,0.453 -0.941,0.685c-1.084,0.716 -2.269,1.715 -3.345,2.441c-0.228,0.154 -0.289,0.465 -0.134,0.694c0.154,0.229 0.465,0.289 0.694,0.135c1.073,-0.725 2.255,-1.722 3.336,-2.436c0.846,-0.559 1.359,-1.123 2.304,-1.546c0.216,-0.096 0.329,-0.327 0.287,-0.549c0.038,-0.201 -0.05,-0.413 -0.235,-0.523c-0.168,-0.1 -0.302,-0.245 -0.468,-0.348c-0.551,-0.342 -1.137,-0.622 -1.686,-0.971c-0.618,-0.394 -1.187,-0.863 -1.798,-1.269c-0.724,-0.483 -1.492,-0.883 -2.202,-1.388c-0.225,-0.16 -0.538,-0.107 -0.698,0.118c-0.159,0.225 -0.107,0.538 0.118,0.698c0.719,0.51 1.495,0.916 2.228,1.404c0.616,0.41 1.191,0.882 1.815,1.28c0.328,0.209 0.67,0.394 1.009,0.581c-0.079,-0 -0.159,-0.002 -0.239,-0.005c-0.618,-0.023 -1.224,-0.123 -1.844,-0.116c-1.18,0.013 -2.348,0.158 -3.524,0.205c-0.912,0.037 -1.83,0.002 -2.743,0.011c-0.406,0.004 -0.812,0.047 -1.217,0.048c-0.72,0.002 -1.453,-0.006 -2.171,-0.054c-0.603,-0.04 -1.183,-0.124 -1.789,-0.124c-0.276,0 -0.5,0.224 -0.5,0.5c-0,0.276 0.224,0.5 0.5,0.5c0.584,0 1.142,0.083 1.722,0.122c0.742,0.05 1.497,0.058 2.24,0.056c0.409,-0.001 0.816,-0.044 1.225,-0.048c0.923,-0.009 1.851,0.025 2.773,-0.012c1.167,-0.047 2.326,-0.191 3.495,-0.204c0.602,-0.007 1.189,0.092 1.788,0.115Z"/></svg>