<?xml version="1.0" encoding="UTF-8" standalone="no"?><!DOCTYPE svg PUBLIC "-//W3C//DTD SVG 1.1//EN" "http://www.w3.org/Graphics/SVG/1.1/DTD/svg11.dtd"><svg width="100%" height="100%" viewBox="0 0 20 20" version="1.1" xmlns="http://www.w3.org/2000/svg" xmlns:xlink="http://www.w3.org/1999/xlink" xml:space="preserve" xmlns:serif="http://www.serif.com/" style="fill-rule:evenodd;clip-rule:evenodd;stroke-linecap:round;stroke-linejoin:round;stroke-miterlimit:1.5;"><g><path d="M12.579,1.062c-1.324,1.798 -2.672,3.582 -3.569,4.905c-0.639,0.944 -1.472,2.306 -2.104,3.255c-0.673,1.01 -2.256,2.762 -2.256,2.762l3.975,-0.446c0,0 -0.741,2.183 -1.042,3.295c-0.334,1.233 -0.963,4.105 -0.963,4.105c-0,-0 3.302,-4.139 4.627,-6.025c1.199,-1.704 3.328,-5.29 3.328,-5.29c-0,-0 -1.798,0.772 -2.483,0.968c-0.525,0.149 -1.626,0.203 -1.626,0.203c0,0 0.855,-2.265 1.174,-3.431c0.352,-1.289 0.939,-4.301 0.939,-4.301Z" style="fill:none;stroke:#000;stroke-width:1px;"/></g></svg>