<?xml version="1.0" encoding="UTF-8" standalone="no"?><!DOCTYPE svg PUBLIC "-//W3C//DTD SVG 1.1//EN" "http://www.w3.org/Graphics/SVG/1.1/DTD/svg11.dtd"><svg width="100%" height="100%" viewBox="0 0 20 20" version="1.1" xmlns="http://www.w3.org/2000/svg" xmlns:xlink="http://www.w3.org/1999/xlink" xml:space="preserve" xmlns:serif="http://www.serif.com/" style="fill-rule:evenodd;clip-rule:evenodd;stroke-linecap:round;stroke-linejoin:round;stroke-miterlimit:1.5;"><path d="M7.003,11.747c0.301,0.266 0.542,0.581 0.82,0.868" style="fill:none;stroke:#000;stroke-width:1px;"/><path d="M6.691,11.64c1.923,-1.901 4.086,-3.418 6.177,-5.115c1.184,-0.96 5.288,-4.517 5.938,-3.71" style="fill:none;stroke:#000;stroke-width:1px;"/><path d="M8.077,12.794c2.393,-1.736 4.407,-3.927 6.644,-5.851c1.419,-1.22 3.996,-4.064 4.085,-4.128" style="fill:none;stroke:#000;stroke-width:1px;"/><path d="M6.698,12.092c-0.939,0.3 -2.211,0.612 -2.836,1.259c-0.336,0.347 -0.407,0.765 -0.613,1.155c-0.26,0.497 -0.754,0.847 -1.427,1.018" style="fill:none;stroke:#000;stroke-width:1px;"/><path d="M7.332,12.571c-0.473,1.146 -0.554,2.349 -1.997,3.087c-0.257,0.132 -0.536,0.238 -0.83,0.315c-0.352,0.092 -0.718,0.138 -1.093,0.143c-0.528,0.005 -1.132,-0.078 -1.549,-0.339" style="fill:none;stroke:#000;stroke-width:1px;"/></svg>