<?xml version="1.0" encoding="UTF-8" standalone="no"?>
<!DOCTYPE svg PUBLIC "-//W3C//DTD SVG 1.1//EN" "http://www.w3.org/Graphics/SVG/1.1/DTD/svg11.dtd">
<svg width="100%" height="100%" viewBox="0 0 20 20" version="1.1" xmlns="http://www.w3.org/2000/svg" xmlns:xlink="http://www.w3.org/1999/xlink" xml:space="preserve" xmlns:serif="http://www.serif.com/" style="fill-rule:evenodd;clip-rule:evenodd;stroke-linejoin:round;stroke-miterlimit:2;">
    <g transform="matrix(-0.433845,-0.900987,0.900987,-0.433845,8.56974,21.6929)">
        <path d="M2.365,3.757C2.365,3.757 9.614,1.304 17.589,3.829C17.726,3.872 17.837,3.972 17.895,4.103C17.895,4.103 19.088,6.809 19.177,7.235C19.235,7.512 19.162,7.875 18.714,8.154C18.208,8.47 16.901,8.734 14.152,8.262C13.958,8.228 13.802,8.085 13.753,7.895C13.753,7.895 13.325,6.252 13.325,6.252C12.636,5.986 10.192,5.237 6.606,6.303L6.223,7.85C6.18,8.026 6.045,8.164 5.871,8.212C5.871,8.212 3,8.994 0.978,8.289C0.851,8.244 0.746,8.15 0.689,8.027C0.632,7.904 0.628,7.763 0.676,7.637L2.059,4.051C2.112,3.912 2.224,3.804 2.365,3.757ZM18.16,7.309C17.985,6.783 17.32,5.271 17.073,4.716C10.306,2.648 4.131,4.271 2.905,4.636C2.905,4.636 1.808,7.482 1.808,7.482C3.141,7.76 4.7,7.464 5.324,7.319L5.703,5.788C5.745,5.619 5.871,5.484 6.037,5.431C10.921,3.881 13.971,5.442 13.971,5.442C14.1,5.506 14.195,5.623 14.231,5.763C14.231,5.763 14.638,7.328 14.639,7.329C16.177,7.572 17.159,7.571 17.756,7.451C17.92,7.418 18.075,7.35 18.16,7.309Z"/>
    </g>
</svg>
