<?xml version="1.0" encoding="UTF-8" standalone="no"?>
<!DOCTYPE svg PUBLIC "-//W3C//DTD SVG 1.1//EN" "http://www.w3.org/Graphics/SVG/1.1/DTD/svg11.dtd">
<svg width="100%" height="100%" viewBox="0 0 20 20" version="1.1" xmlns="http://www.w3.org/2000/svg" xmlns:xlink="http://www.w3.org/1999/xlink" xml:space="preserve" xmlns:serif="http://www.serif.com/" style="fill-rule:evenodd;clip-rule:evenodd;stroke-linejoin:round;stroke-miterlimit:2;">
    <path d="M10,0.23C15.392,0.23 19.77,4.608 19.77,10C19.77,15.392 15.392,19.77 10,19.77C4.608,19.77 0.23,15.392 0.23,10C0.23,4.608 4.608,0.23 10,0.23ZM8.04,16.436C8.142,16.639 8.319,16.804 8.549,16.884C9.019,17.048 9.533,16.801 9.697,16.331C9.697,16.331 11.215,11.984 13.123,8.883C13.855,7.693 14.614,6.676 15.394,6.29C15.84,6.069 16.022,5.528 15.801,5.082C15.581,4.636 15.039,4.454 14.594,4.675C13.59,5.172 12.53,6.407 11.588,7.938C10.352,9.946 9.272,12.452 8.626,14.073C6.961,11.947 5.291,11.496 5.291,11.496C4.815,11.355 4.314,11.628 4.174,12.104C4.033,12.581 4.306,13.082 4.782,13.222C4.782,13.222 6.56,13.804 8.04,16.436Z"/>
</svg>
