<svg id="a664ed95-eab0-488c-9741-ae78b2b83487" data-name="Ebene 1" xmlns="http://www.w3.org/2000/svg" viewBox="0 0 20 20">
  <g>
    <path d="M19.35,14.5a6.32,6.32,0,0,1,0-.67,39.51,39.51,0,0,0-.56-6.56.47.47,0,0,0-.52-.43L17,6.91c0-.46-.08-.91-.12-1.4l-.5,0,.5,0a.52.52,0,0,0-.51-.45c-3.14,0-5.91,0-8.59-.1-2.19,0-4.25-.1-6.45-.1a.5.5,0,0,0-.49.41A14.58,14.58,0,0,0,.68,8.68c0,.46,0,.92,0,1.38l0,3.68a.49.49,0,0,0,.16.37.51.51,0,0,0,.37.13c.45,0,.89-.06,1.34-.07h.34L3,16.29a.46.46,0,0,0,.17.36.49.49,0,0,0,.32.12h.06c3-.36,6.1-.43,9.09-.49,2,0,4.17-.09,6.27-.22a.51.51,0,0,0,.47-.45A7.58,7.58,0,0,0,19.35,14.5ZM2.53,13.17l-.83,0,0-3.14c0-.48,0-1,0-1.43a17.21,17.21,0,0,1,.06-2.79c2,0,4,.05,6,.1,2.55.06,5.19.12,8.16.1a34.88,34.88,0,0,1,.19,6c0,.18,0,.47,0,.77s0,.35,0,.51c-1.93,0-3.88,0-5.76-.09-1.62,0-3.28-.09-4.93-.09C4.46,13.11,3.49,13.12,2.53,13.17Zm10.1,2.11c-2.84.06-5.76.12-8.65.43l-.07-1.58c2.15,0,4.31,0,6.42.07,1.63.05,3.31.09,5,.09h1.28a.49.49,0,0,0,.48-.42,6.41,6.41,0,0,0,0-1.11c0-.27,0-.52,0-.68a28.61,28.61,0,0,0,0-4.16l.77,0a36.17,36.17,0,0,1,.48,5.94c0,.18,0,.47,0,.77s0,.35,0,.51C16.46,15.2,14.51,15.24,12.63,15.28Z"/>
    <path d="M7.15,11.15a.5.5,0,1,0-.86-.52.61.61,0,0,1-.76.18A1.08,1.08,0,0,1,5,10a3.85,3.85,0,0,1,0-.59,2.8,2.8,0,0,1,.15-.83.67.67,0,0,1,.36-.42,1.46,1.46,0,0,1,.86.16A.49.49,0,0,0,7,8a.5.5,0,0,0-.28-.64,2.17,2.17,0,0,0-1.56-.18,1.72,1.72,0,0,0-1,1A3.62,3.62,0,0,0,4,9.3a4.07,4.07,0,0,0,0,.78,2,2,0,0,0,1.13,1.65,1.79,1.79,0,0,0,.67.14A1.58,1.58,0,0,0,7.15,11.15Z"/>
    <path d="M8.09,11.81h.06a.5.5,0,0,0,.44-.56c-.08-.57-.13-1.14-.16-1.72h.74c0,.63.05,1.27.1,1.9a.49.49,0,0,0,.49.47h0a.5.5,0,0,0,.46-.54c-.08-1.24-.13-2.5-.13-3.75a.51.51,0,0,0-.5-.5h0a.49.49,0,0,0-.49.5c0,.31,0,.61,0,.92H8.41c0-.29,0-.58,0-.87a.51.51,0,0,0-.49-.51h0a.5.5,0,0,0-.5.49,24.54,24.54,0,0,0,.19,3.74A.51.51,0,0,0,8.09,11.81Z"/>
    <path d="M11.41,12h.06a.5.5,0,0,0,.44-.56c-.07-.6-.11-1.22-.17-1.83l.76,0A.49.49,0,0,0,13,9.07a.54.54,0,0,0-.51-.49l-.84,0c0-.15,0-.3,0-.45l1.08,0a.52.52,0,0,0,.46-.54.49.49,0,0,0-.54-.46c-.52,0-1.09,0-1.53,0a.44.44,0,0,0-.37.15.5.5,0,0,0-.14.38c.09,1.28.21,2.59.36,3.87A.5.5,0,0,0,11.41,12Z"/>
  </g>
</svg>
