<?xml version="1.0" encoding="UTF-8" standalone="no"?><!DOCTYPE svg PUBLIC "-//W3C//DTD SVG 1.1//EN" "http://www.w3.org/Graphics/SVG/1.1/DTD/svg11.dtd"><svg width="100%" height="100%" viewBox="0 0 20 20" version="1.1" xmlns="http://www.w3.org/2000/svg" xmlns:xlink="http://www.w3.org/1999/xlink" xml:space="preserve" xmlns:serif="http://www.serif.com/" style="fill-rule:evenodd;clip-rule:evenodd;stroke-linecap:round;stroke-linejoin:round;stroke-miterlimit:1.5;"><path d="M6.071,9.98c-0.583,0.608 -1.189,1.281 -1.406,2.115c-0.271,1.04 0.052,2.473 0.946,3.147c0.161,0.121 0.341,0.215 0.526,0.293c0.683,0.286 1.263,-0.182 1.446,-0.842c0.106,-0.383 -0.764,-0.949 -0.853,-1.329c-0.145,-0.615 0.086,-1.196 0.32,-1.731" style="fill:none;stroke:#000;stroke-width:1px;"/><path d="M14.157,9.748c0.615,0.822 1.275,1.938 1.296,2.996c0.017,0.893 -0.599,1.762 -1.357,2.191c-0.667,0.376 -1.512,0.054 -1.683,-0.747c-0.1,-0.465 0.556,-0.936 0.76,-1.388c0.18,-0.398 0.144,-0.71 0.06,-1.131" style="fill:none;stroke:#000;stroke-width:1px;"/><path d="M4.572,14.148c-0.309,-0.046 -0.997,-0.149 -1.294,-0.011c-0.204,0.094 -0.355,0.297 -0.481,0.474c-0.623,0.884 -0.168,2.114 0.318,2.963c0.175,0.306 0.383,0.59 0.7,0.76c1.59,0.853 2.932,-0.401 4.228,-1.131" style="fill:none;stroke:#000;stroke-width:1px;"/><path d="M7.556,16.438c1.11,1.185 2.594,1.084 4.016,0.583c0.303,-0.107 0.634,-0.18 0.918,-0.334" style="fill:none;stroke:#000;stroke-width:1px;"/><path d="M11.777,17.243c0.445,0.464 1.162,0.77 1.769,0.956c1.036,0.318 2.605,0.586 3.442,-0.303c0.819,-0.871 0.637,-1.988 0.247,-2.998c-0.097,-0.251 -0.219,-0.784 -0.481,-0.916c-0.393,-0.197 -1.303,-0.098 -1.686,0.027" style="fill:none;stroke:#000;stroke-width:1px;"/><path d="M6.662,9.426c-0.329,-0.325 -0.661,-0.67 -0.885,-1.076c-1.111,-2.015 -0.684,-4.277 0.938,-5.843c0.4,-0.386 0.882,-0.767 1.402,-0.975c0.884,-0.355 1.821,-0.217 2.733,-0.072c0.856,0.136 1.836,0.381 2.448,1.039c0.551,0.593 0.94,1.276 1.194,2.045c0.678,2.049 0.302,4.54 -1.806,5.601c-0.68,0.342 -1.94,0.676 -2.686,0.656c-1.389,-0.036 -2.857,-0.795 -3.338,-1.375Z" style="fill:none;stroke:#000;stroke-width:1px;"/><path d="M9.667,1.573c-0.076,0.087 -0.145,0.183 -0.203,0.282c-0.269,0.461 0.238,0.751 0.58,0.974c0.068,0.044 0.286,0.142 0.31,0.222c0.072,0.241 -0.313,0.57 -0.474,0.682c-0.135,0.094 -0.281,0.166 -0.433,0.227" style="fill:none;stroke:#000;stroke-width:1px;"/><path d="M8.09,10.361c0.37,0.604 1.017,1.633 1.744,1.758c0.218,0.037 0.456,-0.062 0.656,-0.138c0.535,-0.203 1.451,-1.013 1.635,-1.601" style="fill:none;stroke:#000;stroke-width:1px;"/><path d="M14.688,4.473c0.331,0.103 1.077,0.692 1.214,1.104c0.173,0.518 -0.323,0.633 -0.59,1.035c-0.268,0.402 -0.179,0.583 -0.568,0.734" style="fill:none;stroke:#000;stroke-width:1px;"/><path d="M5.105,5.329c-0.125,0.024 -0.252,0.05 -0.376,0.08" style="fill:none;"/><path d="M4.962,5.204c-0.983,0.345 -1.502,1.773 -0.82,2.612c0.432,0.531 1.115,0.694 1.765,0.769" style="fill:none;"/><ellipse cx="8.11" cy="6.054" rx="0.519" ry="0.51"/><ellipse cx="11.777" cy="6.076" rx="0.519" ry="0.532"/><path d="M8.898,8.048c0.633,0.737 1.67,0.772 2.361,-0.08" style="fill:none;stroke:#000;stroke-width:1px;"/><path d="M5.104,4.473c-0.583,0.079 -1.523,1.101 -0.801,1.731c0.364,0.318 0.4,0.712 0.862,0.733" style="fill:none;stroke:#000;stroke-width:1px;"/></svg>