<?xml version="1.0" encoding="UTF-8" standalone="no"?><!DOCTYPE svg PUBLIC "-//W3C//DTD SVG 1.1//EN" "http://www.w3.org/Graphics/SVG/1.1/DTD/svg11.dtd"><svg width="100%" height="100%" viewBox="0 0 20 20" version="1.1" xmlns="http://www.w3.org/2000/svg" xmlns:xlink="http://www.w3.org/1999/xlink" xml:space="preserve" xmlns:serif="http://www.serif.com/" style="fill-rule:evenodd;clip-rule:evenodd;stroke-linejoin:round;stroke-miterlimit:2;"><path d="M8.778,9.516c-0.16,0.173 -0.319,0.346 -0.478,0.52c-0.787,0.863 -1.518,1.756 -2.262,2.657c-0.553,0.67 -1.055,1.354 -1.768,1.863c-0.45,0.32 -0.554,0.945 -0.234,1.395c0.321,0.449 0.946,0.554 1.395,0.233c0.857,-0.611 1.484,-1.412 2.15,-2.218c0.722,-0.875 1.432,-1.743 2.197,-2.583c0.185,-0.203 0.372,-0.405 0.559,-0.607c0.416,0.343 0.827,0.693 1.228,1.055c0.682,0.618 1.356,1.501 2.075,2.076c1.159,0.926 1.674,1.64 2.22,2.076c0.431,0.345 1.061,0.275 1.406,-0.156c0.344,-0.431 0.274,-1.061 -0.157,-1.406c-0.546,-0.437 -1.062,-1.15 -2.22,-2.076c-0.689,-0.551 -1.328,-1.405 -1.982,-1.996c-0.389,-0.352 -0.787,-0.692 -1.19,-1.025c0.941,-0.969 1.906,-1.918 2.888,-2.837c0.697,-0.652 1.446,-1.243 2.142,-1.897c0.402,-0.378 0.422,-1.011 0.044,-1.413c-0.378,-0.402 -1.011,-0.422 -1.414,-0.044c-0.694,0.653 -1.443,1.242 -2.138,1.893c-1.05,0.983 -2.08,1.997 -3.083,3.035c-0.518,-0.417 -1.034,-0.837 -1.538,-1.273c-1.462,-1.262 -2.818,-2.665 -4.032,-4.166c-0.347,-0.429 -0.977,-0.495 -1.406,-0.148c-0.429,0.347 -0.496,0.977 -0.149,1.406c1.289,1.593 2.728,3.082 4.279,4.422c0.481,0.415 0.973,0.816 1.468,1.214Z"/></svg>