<svg id="a330d9fa-f5f0-4d3c-a3f0-523710404ed5" data-name="Ebene 1" xmlns="http://www.w3.org/2000/svg" viewBox="0 0 20 20">
  <path d="M17.28,9.49a4.6,4.6,0,0,0-.74-.64,5.77,5.77,0,0,0,.74-1.21,3.34,3.34,0,0,0-.53-4.07,4.4,4.4,0,0,0-4-1.23,3.28,3.28,0,0,0-1.57.86A3.45,3.45,0,0,0,10,1.43a4.4,4.4,0,0,0-4.54-.22A4,4,0,0,0,3,5.59c0,.09,0,.18,0,.27a3.77,3.77,0,0,0-1,.59c-.66.53-2,2.05-.78,4.73.89,1.87,2.34,2.25,3.31,2a2.19,2.19,0,0,0,.74-.34,1.82,1.82,0,0,0,.51.7,2.06,2.06,0,0,0,1.85.38A2.62,2.62,0,0,0,8,13.76l0,.77L7,14.72a.51.51,0,0,0-.26.86l3.78,3.59a.5.5,0,0,0,.34.13.51.51,0,0,0,.37-.15l3.24-3.41a.49.49,0,0,0,.11-.49.51.51,0,0,0-.37-.34L13,14.68v-.51a3,3,0,0,0,1.38.47h.27a3.28,3.28,0,0,0,2.74-1.57A2.79,2.79,0,0,0,17.28,9.49Zm-.67,3a2.22,2.22,0,0,1-2.09,1.12,1.76,1.76,0,0,1-1.45-.86l0-1.56a.51.51,0,0,0-.49-.51.52.52,0,0,0-.51.49L12,15.07a.51.51,0,0,0,.4.5l.64.13L10.8,18.1,8.1,15.54l.52-.1a.5.5,0,0,0,.42-.5l0-1.76A.41.41,0,0,0,9,13a2.82,2.82,0,0,0,.31-.53,1.8,1.8,0,0,0,.68.21,1.7,1.7,0,0,0,1.71-.93.5.5,0,0,0-.16-.69.51.51,0,0,0-.69.17.74.74,0,0,1-.93.42,1.51,1.51,0,0,1-.31-.16.34.34,0,0,1,0-.1c0-.47,0-1.09-.41-1.3a.65.65,0,0,0-.76.14,1,1,0,0,0-.22,1.07,1.67,1.67,0,0,0,.28.5,3.17,3.17,0,0,1-.17.38,1.36,1.36,0,0,1-.9.76,1.1,1.1,0,0,1-1-.15,1.55,1.55,0,0,1-.37-1.21,1.7,1.7,0,0,0,0-.39.49.49,0,0,0-.49-.47h0a.5.5,0,0,0-.5.46c0,.1,0,.2,0,.29a1,1,0,0,1-.78.75c-.63.16-1.53-.13-2.15-1.45A2.78,2.78,0,0,1,2.3,7.53a2.82,2.82,0,0,1,1.05-.74A1,1,0,0,0,4,7.3a.72.72,0,0,0,.78-.5.77.77,0,0,0-.2-1A1.14,1.14,0,0,0,4,5.66,3.31,3.31,0,0,1,4,4.51,3,3,0,0,1,5.82,2.12a3.48,3.48,0,0,1,3.54.11,2.51,2.51,0,0,1,1,2.38.5.5,0,0,0,1,.24A2.37,2.37,0,0,1,13,3.31a3.45,3.45,0,0,1,3.05,1,2.15,2.15,0,0,1,.54,2.3,4.74,4.74,0,0,1-1,1.81,1.36,1.36,0,0,0-.94,0,.77.77,0,0,0-.4.88.73.73,0,0,0,.63.61,1.47,1.47,0,0,0,.93-.35,2.77,2.77,0,0,1,.88.78A1.81,1.81,0,0,1,16.61,12.52Z"/>
</svg>
