<?xml version="1.0" encoding="UTF-8" standalone="no"?>
<!DOCTYPE svg PUBLIC "-//W3C//DTD SVG 1.1//EN" "http://www.w3.org/Graphics/SVG/1.1/DTD/svg11.dtd">
<svg width="100%" height="100%" viewBox="0 0 20 20" version="1.1" xmlns="http://www.w3.org/2000/svg" xmlns:xlink="http://www.w3.org/1999/xlink" xml:space="preserve" xmlns:serif="http://www.serif.com/" style="fill-rule:evenodd;clip-rule:evenodd;stroke-linejoin:round;stroke-miterlimit:2;">
    <g>
        <path d="M15.352,14.612C15.388,15.085 15.41,15.685 15.41,17.23C15.41,18.338 14.517,19.258 13.41,19.29C10.93,19.35 12.3,19.35 9.36,19.35L2.58,19.35C1.523,19.322 0.651,18.485 0.58,17.43C0.39,14.28 0.48,16.18 0.48,13.18L0.48,7.71C0.479,7.68 0.478,7.65 0.478,7.62C0.478,6.523 1.381,5.62 2.478,5.62L2.48,5.62L4.482,5.62L4.482,2.976C4.481,2.946 4.48,2.916 4.48,2.886C4.48,1.789 5.383,0.886 6.48,0.886L6.482,0.886L8.672,0.886C9.612,0.886 10.492,0.946 11.432,0.886C11.872,0.816 12.572,0.816 13.002,0.816L17.002,0.756C18.091,0.776 18.985,1.657 19.022,2.746C19.062,4.096 19.112,5.426 19.162,6.746C19.292,10.426 19.412,8.896 19.412,12.496C19.413,13.604 18.52,14.524 17.412,14.556C15.933,14.592 15.824,14.606 15.352,14.612ZM5.502,5.631C6.143,5.645 6.772,5.662 7.43,5.62C7.87,5.55 8.57,5.55 9,5.55L13,5.49C14.089,5.511 14.983,6.391 15.02,7.48C15.06,8.83 15.11,10.16 15.16,11.48C15.198,12.556 15.235,13.186 15.269,13.63C15.889,13.621 16.579,13.61 17.402,13.596L17.405,13.596C17.981,13.596 18.455,13.122 18.455,12.546C18.455,12.519 18.454,12.492 18.452,12.466C18.432,8.846 18.312,10.376 18.182,6.716C18.132,5.406 18.042,4.076 18.042,2.716C18.011,2.161 17.548,1.72 16.992,1.716L12.992,1.776C12.572,1.776 11.892,1.846 11.482,1.846L6.502,1.846L6.5,1.846C5.951,1.846 5.5,2.297 5.5,2.846C5.5,2.869 5.501,2.893 5.502,2.916L5.502,5.631ZM13.4,18.33L13.403,18.33C13.979,18.33 14.453,17.856 14.453,17.28C14.453,17.253 14.452,17.227 14.45,17.2C14.43,13.58 14.31,15.11 14.18,11.45C14.13,10.14 14.04,8.81 14.04,7.45C14.009,6.895 13.546,6.454 12.99,6.45L8.99,6.51C8.57,6.51 7.89,6.58 7.48,6.58L2.5,6.58L2.498,6.58C1.949,6.58 1.498,7.031 1.498,7.58C1.498,7.603 1.498,7.627 1.5,7.65L1.5,13.16C1.46,16.14 1.42,14.22 1.6,17.33C1.63,17.867 2.063,18.3 2.6,18.33C8.47,18.41 9.18,18.4 13.4,18.33Z"/>
    </g>
</svg>
