<svg id="b8956789-ce80-43ec-be95-702bd126fe36" data-name="Ebene 1" xmlns="http://www.w3.org/2000/svg" viewBox="0 0 20 20">
  <g>
    <path d="M5.25,4.83h0l9-.1a.5.5,0,0,0,0-1l-9,.1a.5.5,0,0,0,0,1Z"/>
    <path d="M19.62,11.07c0-2.29-.08-4.58-.13-6.89a.51.51,0,0,0-.5-.49h0l-1.56,0a.5.5,0,0,0,0,1H18.5c0,.75,0,1.49,0,2.24L1.27,7.25c0-.8,0-1.6,0-2.38h.69a.51.51,0,0,0,.5-.51.52.52,0,0,0-.51-.49H.74a.49.49,0,0,0-.49.5c0,2.2,0,4.43,0,6.66s0,4.44.06,6.64a.51.51,0,0,0,.44.5,88.6,88.6,0,0,0,10.8.68q3.93,0,7.7-.38a.49.49,0,0,0,.45-.5C19.71,15.65,19.66,13.36,19.62,11.07ZM1.36,17.23c0-2.06,0-4.14-.06-6.22,0-.92,0-1.84,0-2.76l17.28-.31.06,3.15.12,6.43A82.58,82.58,0,0,1,1.36,17.23Z"/>
    <path d="M3.52,5.77A.75.75,0,0,0,4.27,5V2.11a.75.75,0,1,0-1.5,0V5A.76.76,0,0,0,3.52,5.77Z"/>
    <path d="M15.84,6a.75.75,0,0,0,.75-.75V2.11a.75.75,0,1,0-1.5,0V5.23A.76.76,0,0,0,15.84,6Z"/>
    <path d="M16.49,13.67s-2.88.06-3.47.09a.5.5,0,0,0-.48.5V16a.5.5,0,0,0,.48.5c.07,0,1.13,0,2.14,0a13.76,13.76,0,0,0,1.39,0A.48.48,0,0,0,17,16V14.17a.49.49,0,0,0-.15-.36A.48.48,0,0,0,16.49,13.67Z"/>
  </g>
</svg>
