<svg id="b218a63e-2844-4de8-a100-5993dd152794" data-name="Ebene 1" xmlns="http://www.w3.org/2000/svg" viewBox="0 0 20 20">
  <g>
    <path d="M5.25,4.83h0l9-.1a.5.5,0,0,0,.49-.5.54.54,0,0,0-.5-.5l-9,.1a.5.5,0,0,0,0,1Z"/>
    <path d="M19.62,11.07c0-2.29-.08-4.58-.13-6.89a.51.51,0,0,0-.5-.49h0l-1.55,0a.5.5,0,0,0,0,1H18.5c0,.75,0,1.49,0,2.24L1.27,7.25c0-.8,0-1.6,0-2.38h.69a.5.5,0,0,0,0-1H.74a.49.49,0,0,0-.49.5c0,2.2,0,4.43,0,6.66s0,4.44.06,6.64a.51.51,0,0,0,.44.5,88.72,88.72,0,0,0,10.8.68q3.93,0,7.7-.38a.49.49,0,0,0,.45-.5C19.71,15.65,19.66,13.36,19.62,11.07ZM1.36,17.23c0-2.06,0-4.14-.06-6.22,0-.92,0-1.84,0-2.76l17.28-.31.06,3.15q.06,3.21.13,6.43A82.67,82.67,0,0,1,1.36,17.23Z"/>
    <path d="M3.52,5.77A.75.75,0,0,0,4.27,5V2.11a.75.75,0,1,0-1.5,0V5A.76.76,0,0,0,3.52,5.77Z"/>
    <path d="M15.84,6a.75.75,0,0,0,.75-.75V2.11a.75.75,0,1,0-1.5,0V5.23A.76.76,0,0,0,15.84,6Z"/>
    <path d="M6.46,9.71s-1,0-1.25,0a.5.5,0,0,0-.46.5v1a.51.51,0,0,0,.47.5l.77,0a4.22,4.22,0,0,0,.55,0A.5.5,0,0,0,7,11.21v-1a.55.55,0,0,0-.15-.36A.53.53,0,0,0,6.46,9.71Zm-.48,1H6Z"/>
    <path d="M10.6,9.71s-1,0-1.25,0a.5.5,0,0,0-.46.5v1a.5.5,0,0,0,.47.5l.77,0a4.33,4.33,0,0,0,.55,0,.49.49,0,0,0,.43-.49v-1A.51.51,0,0,0,11,9.85.52.52,0,0,0,10.6,9.71Zm-.49,1h0Z"/>
    <path d="M14.83,9.71s-1,0-1.25,0a.5.5,0,0,0-.46.5v1a.5.5,0,0,0,.47.5l.77,0a4.22,4.22,0,0,0,.55,0,.49.49,0,0,0,.43-.49v-1a.51.51,0,0,0-.15-.36A.52.52,0,0,0,14.83,9.71Zm-.49,1h0Z"/>
  </g>
</svg>
