<svg id="ed8c9a0f-a050-426e-bf97-f202249e1565" data-name="Ebene 1" xmlns="http://www.w3.org/2000/svg" viewBox="0 0 20 20"><path d="M15.16,7.54c-3.49.07-7,.08-10.46,0a.41.41,0,0,0-.36.15.47.47,0,0,0-.14.37l0,.81a50.29,50.29,0,0,0,.7,7.75,3.79,3.79,0,0,0,1,2.18,4,4,0,0,0,2.51.76c.72,0,1.45.07,2.19.07a14,14,0,0,0,2.42-.18,2.27,2.27,0,0,0,1.53-.8,2.42,2.42,0,0,0,.35-1,64.46,64.46,0,0,0,.74-9.46V8.05a.5.5,0,0,0-.51-.51ZM14,17.51a1.46,1.46,0,0,1-.19.59,1.39,1.39,0,0,1-.88.39,20.11,20.11,0,0,1-4.39.1,3.13,3.13,0,0,1-1.89-.5,3,3,0,0,1-.69-1.64,47.79,47.79,0,0,1-.68-7.58V8.58c3.12,0,6.29,0,9.44,0A62.79,62.79,0,0,1,14,17.51Z"/><path d="M12.43,17.39h.06A.51.51,0,0,0,13,17l.8-6.85a.5.5,0,0,0-1-.11L12,16.83A.52.52,0,0,0,12.43,17.39Z"/><path d="M9.25,10.12c.23,2.23.4,4.51.5,6.77a.5.5,0,0,0,.5.48h0a.5.5,0,0,0,.48-.52c-.1-2.28-.27-4.58-.51-6.83a.5.5,0,1,0-1,.1Z"/><path d="M7,9.56a.5.5,0,0,0-.46.54A68.81,68.81,0,0,0,7.38,17a.51.51,0,0,0,.49.41H8a.5.5,0,0,0,.4-.58A64.09,64.09,0,0,1,7.49,10,.51.51,0,0,0,7,9.56Z"/><path d="M16,3A2.89,2.89,0,0,0,13.5,1.13a6.37,6.37,0,0,0-2.4.31A2.29,2.29,0,0,0,9.81.33,2.21,2.21,0,0,0,8.6.42,11.86,11.86,0,0,0,7.33.85a1.71,1.71,0,0,0-1,.75,1.58,1.58,0,0,0-.13.59,3,3,0,0,0,0,.67L5.9,3A4.53,4.53,0,0,0,3.81,4a1.91,1.91,0,0,0-.15,2.6A.47.47,0,0,0,4,6.78a.45.45,0,0,0,.16,0C6.59,6,9.33,5.26,12,4.59c1.26-.32,2.51-.63,3.68-.95A.53.53,0,0,0,16,3.4.46.46,0,0,0,16,3ZM7.22,2.25a1.18,1.18,0,0,1,0-.2c.06-.12.33-.23.44-.27a10.78,10.78,0,0,1,1.17-.4,1.58,1.58,0,0,1,.69-.09,1.09,1.09,0,0,1,.53.44l-2.86.85C7.22,2.47,7.22,2.36,7.22,2.25Zm4.51,1.37c-2.53.64-5.14,1.31-7.5,2.06a1.14,1.14,0,0,1,.3-1,3.77,3.77,0,0,1,1.66-.79l4.7-1.39a7.6,7.6,0,0,1,2.16-.43l.34,0a2.22,2.22,0,0,1,1.42.7C13.81,3.1,12.78,3.36,11.73,3.62Z"/></svg>