<?xml version="1.0" encoding="UTF-8" standalone="no"?>
<!DOCTYPE svg PUBLIC "-//W3C//DTD SVG 1.1//EN" "http://www.w3.org/Graphics/SVG/1.1/DTD/svg11.dtd">
<svg width="100%" height="100%" viewBox="0 0 20 20" version="1.1" xmlns="http://www.w3.org/2000/svg" xmlns:xlink="http://www.w3.org/1999/xlink" xml:space="preserve" xmlns:serif="http://www.serif.com/" style="fill-rule:evenodd;clip-rule:evenodd;stroke-linejoin:round;stroke-miterlimit:2;">
    <g>
        <path d="M10.639,15.692C10.718,15.749 10.905,15.885 11.031,15.991C11.266,16.188 11.502,16.386 11.65,16.469C11.984,16.656 13.551,17.59 14.014,17.856C14.515,18.143 15.047,18.361 15.569,18.606C15.995,18.807 16.401,19.055 16.844,19.218C16.968,19.264 17.313,19.325 17.384,19.329C17.757,19.354 17.876,19.053 17.893,19.007C17.91,18.962 17.957,18.836 17.897,18.653C17.862,18.545 17.644,18.104 17.58,17.936C17.279,17.149 17.002,16.388 16.616,15.636C15.846,14.136 15.304,12.614 14.695,11.047C14.262,9.932 13.781,8.783 13.279,7.698C12.893,6.861 12.555,5.988 12.238,5.123C12.03,4.556 11.855,3.979 11.607,3.428C11.436,3.05 11.041,1.745 10.949,1.499C10.868,1.283 10.731,1.211 10.709,1.198C10.487,1.072 10.301,1.121 10.15,1.242C10.116,1.269 10.016,1.372 9.94,1.563C9.835,1.822 9.639,2.435 9.545,2.668C9.061,3.877 8.657,5.131 8.225,6.359C7.813,7.53 7.542,8.2 7.112,9.364C6.879,9.992 6.576,10.865 6.347,11.495C6.113,12.139 5.732,13.009 5.466,13.642C5.203,14.269 4.971,14.89 4.681,15.504C4.254,16.411 3.908,17.391 3.362,18.234C3.237,18.427 3.26,18.681 3.418,18.848C3.576,19.016 3.827,19.054 4.028,18.941C4.969,18.41 5.981,18.042 6.968,17.607C7.712,17.279 8.421,16.886 9.131,16.493C9.557,16.257 10.008,16.07 10.434,15.832C10.481,15.806 10.525,15.776 10.568,15.743C10.589,15.728 10.607,15.704 10.639,15.692ZM10.435,3.137C10.538,3.437 10.636,3.707 10.695,3.839C10.934,4.368 11.099,4.923 11.299,5.467C11.626,6.358 11.974,7.256 12.372,8.117C12.864,9.184 13.337,10.313 13.763,11.409C14.385,13.009 14.941,14.561 15.726,16.093C16.042,16.708 16.28,17.332 16.523,17.971C16.347,17.879 16.173,17.786 15.995,17.702C15.497,17.468 14.989,17.263 14.512,16.988C14.047,16.722 12.474,15.784 12.139,15.596C11.947,15.489 11.588,15.137 11.313,14.936C11.082,14.767 10.864,14.689 10.736,14.684C10.292,14.667 10.149,14.846 9.946,14.959C9.522,15.196 9.072,15.383 8.647,15.618C7.963,15.996 7.281,16.376 6.564,16.692C6.024,16.93 5.477,17.15 4.938,17.385L4.937,17.385C5.157,16.9 5.362,16.406 5.586,15.93C5.881,15.303 6.12,14.669 6.388,14.03C6.66,13.383 7.048,12.494 7.287,11.837C7.515,11.208 7.817,10.338 8.049,9.711C8.482,8.541 8.754,7.868 9.168,6.691C9.584,5.509 9.973,4.303 10.435,3.137Z"/>
    </g>
</svg>
