<?xml version="1.0" encoding="UTF-8" standalone="no"?><!DOCTYPE svg PUBLIC "-//W3C//DTD SVG 1.1//EN" "http://www.w3.org/Graphics/SVG/1.1/DTD/svg11.dtd"><svg width="100%" height="100%" viewBox="0 0 20 20" version="1.1" xmlns="http://www.w3.org/2000/svg" xmlns:xlink="http://www.w3.org/1999/xlink" xml:space="preserve" xmlns:serif="http://www.serif.com/" style="fill-rule:evenodd;clip-rule:evenodd;stroke-linejoin:round;stroke-miterlimit:2;"><path d="M8.351,13.514c-1.119,-0.949 -2.278,-1.861 -3.484,-2.687c-0.456,-0.312 -1.079,-0.195 -1.391,0.26c-0.311,0.456 -0.195,1.079 0.261,1.39c1.59,1.089 3.091,2.335 4.53,3.613c0.489,0.433 1.664,-0.545 1.664,-0.545c0,-0 -0.036,0.106 -0.053,0.142c0.05,-0.106 0.09,-0.215 0.126,-0.326c0.115,-0.359 0.156,-0.739 0.233,-1.107c0.164,-0.792 0.392,-1.547 0.727,-2.285c0.864,-1.899 2.036,-3.671 3.492,-5.167c0.405,-0.415 0.799,-0.984 1.325,-1.266c0.486,-0.261 0.669,-0.867 0.408,-1.354c-0.261,-0.486 -0.867,-0.669 -1.354,-0.409c-0.699,0.376 -1.273,1.081 -1.812,1.634c-1.616,1.66 -2.92,3.626 -3.879,5.734c-0.351,0.77 -0.604,1.555 -0.793,2.373Z"/></svg>