<?xml version="1.0" encoding="UTF-8" standalone="no"?>
<!DOCTYPE svg PUBLIC "-//W3C//DTD SVG 1.1//EN" "http://www.w3.org/Graphics/SVG/1.1/DTD/svg11.dtd">
<svg width="100%" height="100%" viewBox="0 0 20 20" version="1.1" xmlns="http://www.w3.org/2000/svg" xmlns:xlink="http://www.w3.org/1999/xlink" xml:space="preserve" xmlns:serif="http://www.serif.com/" style="fill-rule:evenodd;clip-rule:evenodd;stroke-linejoin:round;stroke-miterlimit:2;">
    <path d="M4.83,4.15L14.2,4.05C14.474,4.05 14.7,3.824 14.7,3.55C14.7,3.276 14.474,3.05 14.2,3.05L4.83,3.15C4.83,3.15 4.83,3.15 4.83,3.15C4.561,3.15 4.34,3.371 4.34,3.64C4.34,3.643 4.34,3.647 4.34,3.65C4.345,3.919 4.562,4.14 4.83,4.15Z" style="fill-rule:nonzero;"/>
    <path d="M10.742,17.461C10.679,17.509 10.598,17.575 10.479,17.573C7.326,17.534 4.178,17.316 1.05,16.92C0.804,16.89 0.618,16.678 0.62,16.43C0.56,14.32 0.61,12.19 0.56,10.06C0.51,7.93 0.51,5.8 0.51,3.69C0.51,3.687 0.51,3.683 0.51,3.68C0.51,3.409 0.729,3.185 1,3.18L2.5,3.18C2.774,3.18 3,3.406 3,3.68C3,3.954 2.774,4.18 2.5,4.18L1.5,4.18L1.5,6.42L18,6.11L18,4L16.6,4C16.326,3.995 16.1,3.774 16.09,3.5C16.09,3.226 16.316,3 16.59,3L18.46,3.01C18.729,3.015 18.95,3.232 18.96,3.5C19.005,5.569 19.13,7.613 19.088,9.662C19.085,9.823 18.958,9.944 18.845,10C18.731,10.056 18.471,10.095 18.334,10.034C18.196,9.974 18.05,9.807 18.047,9.636C18.039,9.172 18,7.13 18,7.13L1.53,7.43L1.53,10.06C1.58,12 1.58,14 1.58,16C4.553,16.359 7.542,16.55 10.533,16.574C10.634,16.575 10.756,16.663 10.794,16.723C10.877,16.851 10.864,17.129 10.864,17.129L10.855,17.283C10.855,17.283 10.804,17.412 10.742,17.461Z"/>
    <path d="M3.64,4.8C3.914,4.8 4.14,4.574 4.14,4.3L4.14,1.52C4.14,1.246 3.914,1.02 3.64,1.02C3.366,1.02 3.14,1.246 3.14,1.52L3.14,4.3C3.14,4.574 3.366,4.8 3.64,4.8Z" style="fill-rule:nonzero;"/>
    <path d="M15.44,5C15.714,5 15.94,4.774 15.94,4.5L15.94,1.5C15.94,1.226 15.714,1 15.44,1C15.166,1 14.94,1.226 14.94,1.5L14.94,4.5C14.94,4.774 15.166,5 15.44,5Z" style="fill-rule:nonzero;"/>
    <path d="M16.65,10.366L18.687,11.694C18.803,11.769 18.883,11.89 18.907,12.027C18.93,12.164 18.896,12.305 18.812,12.415L14.84,17.637C14.793,17.7 14.73,17.751 14.659,17.785L12.012,19.06C11.84,19.142 11.637,19.121 11.487,19.003C11.337,18.886 11.267,18.694 11.305,18.508L11.821,16.017C11.836,15.943 11.868,15.874 11.913,15.815L15.98,10.482C16.139,10.274 16.431,10.223 16.65,10.366ZM16.493,11.457L12.777,16.331L12.49,17.72L14.117,16.936L17.69,12.238L16.493,11.457Z"/>
    <path d="M3.636,14.351C3.36,14.352 3.135,14.128 3.134,13.852C3.134,13.576 3.357,13.352 3.633,13.351L7.913,13.339C8.189,13.338 8.414,13.561 8.415,13.837C8.416,14.113 8.192,14.338 7.916,14.339L3.636,14.351Z"/>
    <g transform="matrix(1.66931,-0.0209161,-0.0209161,1.00065,-2.00762,0.0627384)">
        <path d="M3.362,11.605C3.197,11.61 3.056,11.39 3.047,11.114C3.039,10.839 3.166,10.61 3.331,10.605L6.4,10.509C6.566,10.504 6.707,10.724 6.715,11C6.724,11.276 6.597,11.504 6.432,11.509L3.362,11.605Z"/>
    </g>
    <g transform="matrix(1,0,0,1,1.59586,-0.27211)">
        <path d="M8.96,11.557C8.684,11.552 8.465,11.323 8.47,11.047C8.476,10.771 8.704,10.552 8.98,10.557L11.438,10.605C11.714,10.611 11.933,10.839 11.928,11.115C11.923,11.391 11.694,11.61 11.418,11.605L8.96,11.557Z"/>
    </g>
</svg>
