<svg id="a17baec5-202b-4490-8c1f-120feef7621f" data-name="Ebene 1" xmlns="http://www.w3.org/2000/svg" viewBox="0 0 20 20">
  <path d="M19.47,9a21.74,21.74,0,0,0-.2-4.66s0,0,0-.05l0-.07-.07-.09s0,0,0,0h0A.42.42,0,0,0,19,4l0,0a.47.47,0,0,0-.17,0h0Q9.87,4,1,4.11a.48.48,0,0,0-.36.16h0a.6.6,0,0,0-.09.15s0,.05,0,.07a.29.29,0,0,0,0,.09c0,.74,0,1.51,0,2.27s0,1.51,0,2.24v.49a22.6,22.6,0,0,0,0,2.73c0,.43,0,1,0,1.52A18,18,0,0,0,.52,16s0,0,0,.05a.19.19,0,0,0,0,.1l0,.06a.25.25,0,0,0,0,.07l0,0h0a.44.44,0,0,0,.3.12H1c2.47-.1,5,0,7.44,0,1.54,0,3.1.08,4.66.08A57.13,57.13,0,0,0,19,16.24l.08,0,.08,0a.26.26,0,0,0,.11-.07l0,0h0a.39.39,0,0,0,.1-.16s0,0,0,0a.51.51,0,0,0,0-.13c0-1.07,0-2,0-3s0-1.87,0-2.93Zm-5.6,1.11c1.23-1.2,3.42-3.44,4.55-4.59a28.43,28.43,0,0,1,0,3.45l0,.84c0,1.07,0,2,0,3,0,.58,0,1.17,0,1.77ZM1.46,14.8c0-.32,0-.63,0-1,0-.58,0-1.15,0-1.6a20.82,20.82,0,0,1,0-2.62v-.5c0-.74,0-1.51,0-2.27V5.73c1.3,1.17,3.77,3.41,4.93,4.43Zm.79-9.71L17.58,5c-1.93,2-4.69,4.77-5.15,5.17A4.1,4.1,0,0,1,10,11.31a2.6,2.6,0,0,1-1.78-.91L7.6,9.87C7.22,9.58,4.17,6.83,2.25,5.09ZM8.51,15.43c-1.54,0-3.1-.08-4.67-.08l-1.53,0,4.85-4.56.4.34A3.54,3.54,0,0,0,10,12.31a4.93,4.93,0,0,0,3.07-1.41l.08-.07,4.65,4.5A90.07,90.07,0,0,1,8.51,15.43Z"/>
</svg>
