<svg id="ee9c956e-127e-41a8-973c-83d5a33b74b9" data-name="Ebene 1" xmlns="http://www.w3.org/2000/svg" viewBox="0 0 20 20">
  <g>
    <path d="M19.35,14.5a6.32,6.32,0,0,1,0-.67,38.73,38.73,0,0,0-.56-6.56.46.46,0,0,0-.52-.43L17,6.91c0-.46-.08-.91-.12-1.4l-.5,0,.5,0a.5.5,0,0,0-.5-.45h0c-3.15,0-5.92,0-8.6-.1-2.19,0-4.25-.1-6.45-.1a.5.5,0,0,0-.49.41A14.58,14.58,0,0,0,.68,8.68c0,.46,0,.92,0,1.38v3.68a.51.51,0,0,0,.15.37.53.53,0,0,0,.38.13c.45,0,.9-.06,1.34-.07h.34L3,16.29a.54.54,0,0,0,.18.36.49.49,0,0,0,.32.12h.06c3-.36,6.1-.43,9.09-.49,2,0,4.17-.09,6.27-.22a.51.51,0,0,0,.47-.45A7.58,7.58,0,0,0,19.35,14.5ZM2.53,13.17l-.83,0V10.07c0-.48,0-1,0-1.43a17.21,17.21,0,0,1,.06-2.79c2,0,4,.05,6,.1,2.55.06,5.2.12,8.16.1a34.88,34.88,0,0,1,.19,6c0,.18,0,.47,0,.78s0,.34,0,.5c-1.94,0-3.88,0-5.77-.09-1.61,0-3.27-.09-4.92-.09C4.46,13.11,3.49,13.12,2.53,13.17Zm10.1,2.11c-2.84.06-5.76.12-8.65.43l-.07-1.58c2.15,0,4.31,0,6.42.07,1.63.05,3.31.09,5,.09h1.28a.49.49,0,0,0,.48-.42,6.32,6.32,0,0,0,0-1.1c0-.27,0-.53,0-.69a30.16,30.16,0,0,0,0-4.16l.76,0a35.79,35.79,0,0,1,.48,5.94c0,.18,0,.47,0,.78,0,.16,0,.34,0,.5C16.46,15.2,14.51,15.24,12.63,15.28Z"/>
    <path d="M6.43,9.39l.6,0a4.38,4.38,0,0,0,0,.52H6.54a.5.5,0,0,0,0,1H7.3l0,.12A2.14,2.14,0,0,0,9.5,12.68a2.2,2.2,0,0,0,1.79-.89.52.52,0,0,0-.26-.68.45.45,0,0,0-.63.24,1.6,1.6,0,0,1-.9.33,1.11,1.11,0,0,1-1.14-.76h.86a.5.5,0,1,0,0-1l-1.12,0A3.44,3.44,0,0,1,8,9.48h.13c.39,0,.77,0,1.15,0a.5.5,0,0,0,.47-.53.52.52,0,0,0-.54-.47c-.38,0-.77,0-1.16,0A1.61,1.61,0,0,1,8.25,8c.48-.75,1.31-.54,2.05-.24l0,0A.48.48,0,0,0,11,7.48a.52.52,0,0,0-.3-.66c-1.51-.62-2.61-.41-3.27.63a2.41,2.41,0,0,0-.33,1l-.54,0a.5.5,0,0,0-.11,1Z"/>
  </g>
</svg>
