<?xml version="1.0" encoding="UTF-8" standalone="no"?>
<!DOCTYPE svg PUBLIC "-//W3C//DTD SVG 1.1//EN" "http://www.w3.org/Graphics/SVG/1.1/DTD/svg11.dtd">
<svg width="100%" height="100%" viewBox="0 0 20 20" version="1.1" xmlns="http://www.w3.org/2000/svg" xmlns:xlink="http://www.w3.org/1999/xlink" xml:space="preserve" xmlns:serif="http://www.serif.com/" style="fill-rule:evenodd;clip-rule:evenodd;stroke-linejoin:round;stroke-miterlimit:2;">
    <path d="M4.83,4.15L14.2,4.05C14.474,4.05 14.7,3.824 14.7,3.55C14.7,3.276 14.474,3.05 14.2,3.05L4.83,3.15C4.83,3.15 4.83,3.15 4.83,3.15C4.561,3.15 4.34,3.371 4.34,3.64C4.34,3.643 4.34,3.647 4.34,3.65C4.345,3.919 4.562,4.14 4.83,4.15Z" style="fill-rule:nonzero;"/>
    <path d="M19.09,10.32C19.09,8.05 19.01,5.79 18.96,3.5C18.95,3.232 18.729,3.015 18.46,3.01L16.59,3C16.316,3 16.09,3.226 16.09,3.5C16.1,3.774 16.326,3.995 16.6,4L18,4L18,6.11L1.5,6.42L1.5,4.18L2.5,4.18C2.774,4.18 3,3.954 3,3.68C3,3.406 2.774,3.18 2.5,3.18L1,3.18C0.729,3.185 0.51,3.409 0.51,3.68C0.51,3.683 0.51,3.687 0.51,3.69C0.51,5.8 0.51,7.93 0.56,10.06C0.61,12.19 0.56,14.32 0.62,16.43C0.618,16.678 0.804,16.89 1.05,16.92C4.486,17.354 7.946,17.575 11.41,17.58C13.917,17.58 16.377,17.46 18.79,17.22C19.049,17.194 19.247,16.97 19.24,16.71C19.18,14.57 19.13,12.44 19.09,10.32ZM1.58,16C1.58,14 1.58,12 1.53,10.06L1.53,7.43L18,7.13L18.06,10.33C18.06,12.33 18.13,14.28 18.17,16.27C12.646,16.755 7.086,16.664 1.58,16Z" style="fill-rule:nonzero;"/>
    <path d="M3.64,4.8C3.914,4.8 4.14,4.574 4.14,4.3L4.14,1.52C4.14,1.246 3.914,1.02 3.64,1.02C3.366,1.02 3.14,1.246 3.14,1.52L3.14,4.3C3.14,4.574 3.366,4.8 3.64,4.8Z" style="fill-rule:nonzero;"/>
    <path d="M15.44,5C15.714,5 15.94,4.774 15.94,4.5L15.94,1.5C15.94,1.226 15.714,1 15.44,1C15.166,1 14.94,1.226 14.94,1.5L14.94,4.5C14.94,4.774 15.166,5 15.44,5Z" style="fill-rule:nonzero;"/>
    <path d="M9.38,11.299C7.836,10.137 6.863,9.687 6.863,9.687C6.612,9.572 6.502,9.275 6.617,9.024C6.732,8.773 7.029,8.663 7.28,8.778C7.28,8.778 8.38,9.279 10.106,10.593C10.837,9.92 11.749,9.182 12.881,8.412C13.109,8.256 13.421,8.316 13.576,8.544C13.731,8.772 13.672,9.083 13.444,9.238C12.413,9.94 11.576,10.61 10.901,11.222C11.689,11.87 12.573,12.665 13.52,13.631C13.713,13.828 13.71,14.145 13.512,14.338C13.315,14.531 12.998,14.528 12.805,14.331C11.848,13.353 10.957,12.558 10.173,11.919C8.699,13.416 8.278,14.421 8.278,14.421C8.174,14.677 7.882,14.8 7.626,14.696C7.371,14.592 7.248,14.3 7.352,14.044C7.352,14.044 7.791,12.934 9.38,11.299Z"/>
</svg>
