<svg id="f390b239-19c9-40be-9fef-68cbc376dcdd" data-name="Ebene 1" xmlns="http://www.w3.org/2000/svg" viewBox="0 0 20 20">
  <g>
    <path d="M15.46,6.43A7.33,7.33,0,0,0,10.9,4.36V3.71A1.84,1.84,0,0,0,12.14,2,1.88,1.88,0,0,0,10.29.19h0A1.49,1.49,0,0,0,9.19.71a1.88,1.88,0,0,0-.53,1.34A2,2,0,0,0,9.77,3.64l.13,0v.74A7.74,7.74,0,0,0,3.43,9a7.75,7.75,0,0,0-.52,3.84c.7,3.74,4,6.63,7.42,6.63h.11A7.6,7.6,0,0,0,18,11.7,7.32,7.32,0,0,0,15.46,6.43ZM9.66,2a.93.93,0,0,1,.26-.59.53.53,0,0,1,.36-.2h0a.88.88,0,0,1,.85.8.81.81,0,0,1-.63.79.64.64,0,0,1-.28,0A1,1,0,0,1,9.66,2Zm.76,16.47h-.09A7,7,0,0,1,3.9,12.64a6.69,6.69,0,0,1,.43-3.21,6.78,6.78,0,0,1,6.11-4.07h.29a6.2,6.2,0,0,1,4,1.81A6.34,6.34,0,0,1,17,11.7,6.62,6.62,0,0,1,10.42,18.45Z"/>
    <path d="M12.76,11.65l-.55-1.21a.48.48,0,0,0-.09-.11.53.53,0,0,0-.22-.2l-1.57-.68c-1-.47-2.09-.93-3.17-1.37a.49.49,0,0,0-.55.11.5.5,0,0,0-.1.55C7,9.87,7.51,11,8,12.13l.56,1.23a.87.87,0,0,0,.09.11.51.51,0,0,0,.22.19l1.57.69c1,.46,2.09.92,3.17,1.37a.65.65,0,0,0,.19,0,.55.55,0,0,0,.36-.15.51.51,0,0,0,.1-.55C13.81,13.93,13.29,12.79,12.76,11.65ZM7.92,9.48l2,.88.89.39-.48.48L9.22,12.32l-.28-.61C8.59,11,8.25,10.23,7.92,9.48Zm2.95,4L10,13l.48-.46c.36-.37.73-.73,1.12-1.1l.28.59c.34.75.69,1.5,1,2.24Z"/>
  </g>
</svg>
