<svg id="a6fa16a8-43ef-4417-b767-a2e3ac0ddb18" data-name="Ebene 1" xmlns="http://www.w3.org/2000/svg" viewBox="0 0 20 20">
  <path d="M16.07,19.77c-1.32,0-2.73,0-2.82,0a.49.49,0,0,1-.48-.5l.07-7.09a.5.5,0,0,1,.5-.49h2V9.84H13.27a.72.72,0,0,1-.44-.18c-.24-.25-.19-.56-.06-1.29l.08-.48a2.43,2.43,0,0,1,1-1.7,3.08,3.08,0,0,1,1.78-.46l0-1.48a5.73,5.73,0,0,0-3.4.65c-1.78,1-1.27,4.32-1.26,4.36a.5.5,0,0,1-.11.39.48.48,0,0,1-.37.19l-1.8.06,0,1.76h1.75a.5.5,0,0,1,.5.5v7a.51.51,0,0,1-.16.37.48.48,0,0,1-.38.13,59.25,59.25,0,0,0-7.16,0,3.14,3.14,0,0,1-2.59-.56,2.42,2.42,0,0,1-.49-2,3.8,3.8,0,0,0,0-.46V15c0-2.93.06-9,0-11.44C.15,1.92.29,1.17.72.75A2,2,0,0,1,2.32.4l.44,0c1.21,0,8,0,11.57,0h2.21c.16,0,.34,0,.53,0a2.43,2.43,0,0,1,2,.33,1.82,1.82,0,0,1,.52,1.43c0,1.87,0,7.54-.07,11.89,0,.67,0,1.25,0,1.76,0,2.84,0,3.9-1.59,4C17.42,19.77,16.76,19.77,16.07,19.77Zm-2.3-1c1,0,3.08.05,4,0,.56,0,.63,0,.65-3,0-.51,0-1.1,0-1.77.07-4.33.07-10,.07-11.87a1,1,0,0,0-.18-.68c-.22-.19-.76-.13-1.19-.09a5.12,5.12,0,0,1-.64,0h-2.2c-3.63,0-10.38.06-11.6,0l-.47,0c-.4,0-.75,0-.85.06A4.11,4.11,0,0,0,1.2,3.58c.06,2.44,0,8.53,0,11.46v1.61c0,.17,0,.35,0,.53,0,.51-.07,1,.19,1.25s.64.38,1.81.28a52.88,52.88,0,0,1,6.78,0v-6H8.21a.49.49,0,0,1-.5-.49L7.65,9.42a.5.5,0,0,1,.48-.51l1.76-.06C9.81,7.7,9.84,5.09,11.71,4a7.21,7.21,0,0,1,4.35-.76.55.55,0,0,1,.52.49l.08,2.51a.51.51,0,0,1-.6.51A2.45,2.45,0,0,0,14.41,7a1.47,1.47,0,0,0-.58,1l-.08.49c0,.1,0,.21-.05.3h2.15a.5.5,0,0,1,.5.5v2.82a.51.51,0,0,1-.5.5h-2Z"/>
</svg>
