<svg id="a9724b70-3b93-40da-8764-df63b3b21853" data-name="Ebene 1" xmlns="http://www.w3.org/2000/svg" viewBox="0 0 20 20"><path d="M4.74,10.88a7.52,7.52,0,0,1-1.46,1L3.15,10.4A2.25,2.25,0,0,0,4.73,8.26,2.28,2.28,0,0,0,2.51,6.07h0a1.77,1.77,0,0,0-1.27.6A2.32,2.32,0,0,0,.58,8.34,2.43,2.43,0,0,0,1.9,10.29a1.74,1.74,0,0,0,.25.11v0l.13,1.47a13.62,13.62,0,0,0-1.37-.7.48.48,0,0,0-.65.26.51.51,0,0,0,.26.66,13,13,0,0,1,1.28.66l.58.32.22,2.5a10.14,10.14,0,0,0-1,1.64.5.5,0,0,0,.22.67.52.52,0,0,0,.68-.22,7.7,7.7,0,0,1,.7-1.17l1.07,1.42a.48.48,0,0,0,.4.2.49.49,0,0,0,.3-.1.51.51,0,0,0,.1-.7l-1.43-1.9-.22-2.52a8.13,8.13,0,0,0,2-1.29.5.5,0,0,0-.66-.75ZM1.57,8.28A1.39,1.39,0,0,1,2,7.36a.82.82,0,0,1,.54-.29h0A1.29,1.29,0,0,1,3.73,8.28a1.28,1.28,0,0,1-.94,1.19.45.45,0,0,1-.19,0,.57.57,0,0,1-.23-.08A1.48,1.48,0,0,1,1.57,8.28Z"/><path d="M19.35,7.93a.5.5,0,0,0-.71,0A6,6,0,0,1,17,9.13L17,7.06A3,3,0,0,0,19.16,4.2a3,3,0,0,0-2.9-2.87h0a2.29,2.29,0,0,0-1.63.78,3.16,3.16,0,0,0-.87,2.19A3.22,3.22,0,0,0,15.5,6.87a2.63,2.63,0,0,0,.45.18L16,9.19l-.2-.11c-.58-.33-1.19-.68-1.78-.94a.5.5,0,0,0-.4.92,17.17,17.17,0,0,1,1.68.89l.72.41.11,4.31a13.43,13.43,0,0,0-1.63,2.5.5.5,0,0,0,.89.45,13,13,0,0,1,1.17-1.89l1.66,2.21a.51.51,0,0,0,.4.2.57.57,0,0,0,.3-.1.51.51,0,0,0,.1-.7L17.12,14.8a.43.43,0,0,0,0-.11L17,10.22a7.1,7.1,0,0,0,2.32-1.58A.51.51,0,0,0,19.35,7.93Zm-4.61-3.7a2,2,0,0,1,.6-1.43,1.25,1.25,0,0,1,.9-.47h0a2,2,0,0,1,1.91,1.88,2,2,0,0,1-1.47,1.88.79.79,0,0,1-.33,0A.93.93,0,0,1,16,6,2.23,2.23,0,0,1,14.74,4.23Z"/><path d="M6.94,17.1H6.78a.5.5,0,0,0-.5.5.5.5,0,0,0,.5.5h.16a.5.5,0,0,0,.5-.5A.5.5,0,0,0,6.94,17.1Z"/><path d="M10.12,17.28a.52.52,0,0,0-.71,0,.57.57,0,0,0-.11.16.65.65,0,0,0,0,.19.58.58,0,0,0,0,.19.5.5,0,0,0,.11.17.52.52,0,0,0,.35.14.52.52,0,0,0,.36-.14.71.71,0,0,0,.11-.17.54.54,0,0,0,0-.19.43.43,0,0,0,0-.19A.54.54,0,0,0,10.12,17.28Z"/><path d="M12.25,3.62a.49.49,0,0,0,.35-.15.61.61,0,0,0,.12-.16.63.63,0,0,0,0-.19.41.41,0,0,0,0-.19.39.39,0,0,0-.11-.17.52.52,0,0,0-.7,0,.5.5,0,0,0-.11.17.41.41,0,0,0,0,.19.43.43,0,0,0,0,.19.42.42,0,0,0,.11.16.57.57,0,0,0,.16.11A.65.65,0,0,0,12.25,3.62Z"/><path d="M12.8,17.2a.57.57,0,0,0-.64,0,.58.58,0,0,0-.19.58.58.58,0,0,0,.52.38h0A.57.57,0,0,0,13,17.8.56.56,0,0,0,12.8,17.2Z"/><path d="M4.78,6.15a.5.5,0,0,0,.5-.5.5.5,0,0,0-.5-.5h0a.48.48,0,0,0-.48.5A.52.52,0,0,0,4.78,6.15Z"/><path d="M7.15,4.3H7.1a.48.48,0,0,0-.48.5.53.53,0,0,0,.53.5.51.51,0,0,0,.5-.5A.5.5,0,0,0,7.15,4.3Z"/><path d="M9.46,4.51h.06l.07,0a.47.47,0,0,0,.16,0,.5.5,0,0,0,.46-.34.52.52,0,0,0-.33-.64l-.09,0a.49.49,0,0,0-.63.3A.5.5,0,0,0,9.46,4.51Z"/></svg>