<?xml version="1.0" encoding="utf-8"?>
<!-- Generator: Adobe Illustrator 26.0.1, SVG Export Plug-In . SVG Version: 6.00 Build 0)  -->
<svg version="1.1" id="Ebene_1" xmlns="http://www.w3.org/2000/svg" xmlns:xlink="http://www.w3.org/1999/xlink" x="0px" y="0px"
	 viewBox="0 0 20 20" style="enable-background:new 0 0 20 20;" xml:space="preserve">
<style type="text/css">
	.st0{fill:none;stroke:#976CAB;stroke-linecap:round;stroke-linejoin:round;stroke-miterlimit:10;}
</style>
<g>
	<path d="M-3.4,9.5C-3.9,9.3-4.2,9.1-4.6,9c-0.1,0-0.2-0.1-0.2-0.1c-0.1-1-0.5-1.7-0.8-2.1c0.1-0.2,0.2-0.6,0.4-0.9
		C-4.9,5.2-4.5,4.8-4,4.3C-3.9,4.2-3.9,4-3.9,3.9c0-0.2-0.2-0.3-0.3-0.4c-0.5-0.1-1.9-0.4-2.8,0C-7.7,3.7-8,4-8.4,4.2
		c-0.1,0-0.1,0.1-0.2,0.2c-0.8-0.1-1.8,0-2.6,0.1c-0.3,0-0.5,0.3-0.4,0.6c0,0.3,0.3,0.5,0.6,0.4c0.8-0.1,1.8-0.2,2.5-0.1
		c0.1,0,0.3,0,0.4-0.1C-8.1,5.2-8,5.1-7.8,5.1c0.4-0.3,0.6-0.5,1.1-0.7c0.4-0.1,0.8-0.1,1.3-0.1C-5.6,4.6-5.9,5-6.1,5.4
		C-6.4,6-6.6,6.6-6.6,6.7c-0.1,0.2,0,0.4,0.1,0.5c0,0,0.6,0.8,0.7,2c0,0.2,0.1,0.3,0.3,0.4C-5.3,9.7-5.2,9.8-5,9.8
		c0.3,0.1,0.6,0.3,1,0.5c0,0.2,0,0.4,0,0.6c0,0.2,0,0.5,0,0.7c-0.6,0.2-1.5,0.6-1.5,0.6c-0.1,0.1-0.3,0.2-0.3,0.3
		c0,0-0.2,0.8-0.6,1.3c-0.4,0.6-1.1,1-1.1,1c-0.1,0.1-0.2,0.2-0.2,0.3c-0.1,0.2-0.5,1.5-0.7,2.4l-0.9,0c-0.1-0.2-0.1-0.4-0.2-0.6
		c-0.1-0.3-0.2-0.7-0.3-1c-0.1-0.1-0.2-0.2-0.3-0.3c-0.1,0-0.3,0-0.4,0c-0.8,0.4-2,0.4-2.8,0.1c-0.1-0.1-0.3,0-0.4,0
		c-0.1,0.1-0.2,0.2-0.2,0.4c0,0.3-0.1,0.7-0.1,1c0,0.2-0.1,0.4-0.1,0.5l-0.9,0l-0.6-2c0-0.2-0.2-0.3-0.3-0.3c-0.9-0.3-1.8-1-2.2-2
		c-0.4-0.9-0.6-2-0.4-3.2c0.1-1,0.5-1.7,0.9-2.3c0.6-0.6,1.4-1,2.1-1.3c0.3-0.1,0.4-0.4,0.2-0.7c-0.1-0.3-0.4-0.4-0.7-0.2
		c-0.8,0.4-1.8,0.8-2.5,1.6c-0.6,0.7-1,1.6-1.2,2.8c0,0.3-0.1,0.6-0.1,0.8c0,0-0.1,0-0.1,0c0-0.2,0-0.3,0-0.4
		c-0.1-0.6-0.8-0.9-1.4-0.8c-0.5,0.1-1,0.5-0.9,1.4c0,0.2,0.1,0.4,0.3,0.6c-0.1,0-0.3,0-0.4,0c-0.3,0-0.5,0.2-0.5,0.5
		c0,0.3,0.2,0.5,0.4,0.5c0.1,0,0.2,0,0.3,0c0.8,0,1.4-0.4,1.7-0.7c0,0,0,0,0,0c0.2,0,0.4-0.1,0.6-0.1c0.1,0.7,0.2,1.3,0.5,1.9
		c0.5,1.2,1.5,2.1,2.6,2.5l0.6,2.1c0.1,0.2,0.3,0.4,0.5,0.4l1.7,0c0,0,0,0,0,0c0.3,0,0.5-0.2,0.5-0.4c0-0.3,0.1-0.7,0.1-1
		c0-0.1,0-0.3,0.1-0.4c0.8,0.2,1.8,0.1,2.5-0.1c0.1,0.2,0.1,0.3,0.1,0.5c0.1,0.3,0.2,0.7,0.3,1c0.1,0.2,0.3,0.3,0.5,0.3l1.6,0
		c0.3,0,0.5-0.2,0.5-0.5c0-0.5,0.4-1.8,0.6-2.5c0.3-0.2,0.8-0.6,1.2-1.2c0.3-0.5,0.5-1,0.6-1.3c0.4-0.1,1.1-0.4,1.6-0.6
		c0.2-0.1,0.3-0.3,0.3-0.5c0-0.3,0-0.6,0-1c0-0.4,0-0.7,0-1C-3.1,9.7-3.2,9.5-3.4,9.5z M-20.9,11c-0.1,0-0.2,0-0.2,0
		c0-0.2,0-0.3,0-0.3c0,0,0,0,0.1,0c0.1,0,0.2,0,0.2,0C-20.8,10.7-20.9,10.8-20.9,11z"/>
	<path d="M-16.4,4.5c0.3,0.7,0.8,1.1,1.5,1.4C-14.6,5.9-14.3,6-14,6c0.1,0,0.1,0,0.2,0c0.5,0,0.9-0.2,1.1-0.4
		c0.3-0.2,0.7-0.4,0.9-0.7c0.2-0.4,0.3-0.8,0.3-1.2c0-0.5-0.2-1-0.4-1.3c-0.1-0.2-0.2-0.4-0.5-0.6c-1-0.8-2.6-0.7-3.5,0.3
		c-0.5,0.6-0.6,1.2-0.6,1.6c0,0,0,0.1,0,0.1C-16.5,3.9-16.5,4.2-16.4,4.5z M-15.2,2.7c0.5-0.5,1.5-0.6,2.1-0.2
		c0.1,0.1,0.1,0.2,0.2,0.3c0.2,0.3,0.3,0.6,0.3,0.8c0,0.1,0,0.5-0.1,0.7c-0.1,0.1-0.3,0.3-0.5,0.4C-13.4,4.9-13.7,5-13.9,5
		c-0.2,0-0.4,0-0.7-0.1c-0.5-0.2-0.8-0.4-0.9-0.8c0-0.1,0-0.3,0-0.4c0,0,0,0,0,0C-15.5,3.2-15.4,3-15.2,2.7z"/>
	<path d="M-16,7.9c0.1,0.1,0.3,0.2,0.4,0.2c0.1,0,0.2,0,0.3-0.1c0,0,1.2-0.8,4.1-0.9c0.3,0,0.5-0.2,0.5-0.5c0-0.3-0.2-0.5-0.5-0.5
		c-3.3,0.1-4.6,1.1-4.7,1.1C-16.1,7.4-16.1,7.7-16,7.9z"/>
</g>
<path class="st0" d="M27.1-10.7"/>
<g>
	<path d="M17.9,4c-2.2-3.9-7.2-2.9-8.1-2.6C4.8,0,2.5,3.6,1.4,5.4L1.3,5.6C-1,9.3,0.9,17.5,1,17.9c0,0.2,0.2,0.3,0.3,0.4
		c0.2,0.1,0.3,0,0.5-0.1c0.3-0.3,0.8-0.6,1-0.6h2c0.1,0,0.3-0.1,0.4-0.2c0.1-0.1,0.1-0.2,0.1-0.4c0-0.3,0-0.6-0.1-1
		c0.4,0.3,0.9,0.6,1.5,0.8c0.8,0.3,1.6,0.4,2.5,0.4c0.9,0,1.9-0.2,2.8-0.5c0.8-0.3,1.5-0.6,2.2-1c0,0.4-0.1,0.8-0.1,1.1l0,0.3
		c0,0.2,0,0.3,0.2,0.4c0.1,0.1,0.3,0.2,0.4,0.1c0.3,0,1-0.1,1.5,0.1c0.8,0.4,2.5,0.4,2.7,0.4c0.1,0,0.3-0.1,0.4-0.1s0.1-0.2,0.1-0.4
		c0-2,0.1-3.6,0.2-4.9C19.7,9.5,19.9,7.4,17.9,4z M11.7,15.9c-1.6,0.5-3.2,0.6-4.6,0c-1-0.4-1.4-0.8-2-1.5c-0.1-1-0.2-2-0.1-3.1
		c0-0.1,0-0.1,0-0.2c0.7,0,1.4-0.2,2.2-0.7c1.3-0.9,2.3-2.3,2.9-3.2c0.5,1,1.4,2.4,2.8,3.1c0.4,0.2,0.8,0.3,1.2,0.3c0,0,0,0.1,0,0.1
		c0.3,1.2,0.3,2.6,0.3,3.8C13.3,15.2,12.6,15.6,11.7,15.9z M18.5,12.9c-0.1,1.3-0.2,2.7-0.2,4.5c-0.6,0-1.3-0.1-1.7-0.3
		c-0.5-0.2-1.1-0.3-1.5-0.3c0.1-1.7,0.3-4-0.2-6.1c0.7-0.1,1.1-0.4,1.2-0.4c0.2-0.1,0.3-0.4,0.2-0.7c-0.1-0.2-0.4-0.3-0.7-0.2
		c0,0-1.2,0.6-2.4,0.1C11.4,8.6,10.5,6,10.5,6c-0.1-0.2-0.2-0.3-0.4-0.3C9.8,5.7,9.6,5.8,9.5,6c0,0-1.1,2.4-3,3.7
		c-1.4,0.9-2.8,0.5-2.9,0.4c-0.3-0.1-0.5,0-0.6,0.3c-0.1,0.3,0,0.5,0.3,0.6c0,0,0.3,0.1,0.7,0.2c0,0,0,0.1,0,0.1
		c-0.2,1.5,0,2.9,0.2,4.1c0.1,0.4,0.1,0.8,0.2,1.2H2.7c-0.3,0-0.7,0.2-1,0.3c-0.4-2.1-1.4-8,0.4-10.8l0.1-0.1c1.1-1.8,3-4.9,7.4-3.6
		c0.1,0,0.2,0,0.3,0c0.1,0,5-1.4,7.1,2.1C18.8,7.6,18.7,9.5,18.5,12.9z"/>
	<path d="M10.1,14c-1,0.7-1.8,0.1-1.9,0c-0.2-0.2-0.5-0.2-0.7,0.1c-0.2,0.2-0.2,0.5,0.1,0.7c0.3,0.2,0.9,0.5,1.6,0.5
		c0.5,0,1-0.1,1.5-0.5c0.2-0.1,0.3-0.5,0.2-0.7C10.7,14,10.4,13.9,10.1,14z"/>
	<path d="M7.6,12.1c0-0.2-0.1-0.3-0.2-0.4c-0.1-0.1-0.3-0.1-0.4-0.1l0,0c-0.2,0-0.4,0.1-0.4,0.3c0,0.1,0,0.1-0.1,0.2
		c0,0.1,0,0.1,0,0.2c0,0.1,0,0.2,0.1,0.3c0.1,0.1,0.1,0.1,0.2,0.1c0.1,0,0.2,0.1,0.3,0.1c0.1,0,0.3-0.1,0.4-0.2
		c0.1-0.1,0.1-0.2,0.1-0.3C7.6,12.2,7.6,12.1,7.6,12.1z"/>
	<path d="M11.4,11.6L11.4,11.6c-0.2,0-0.4,0.1-0.5,0.3c0,0.1,0,0.1-0.1,0.2c0,0.1,0,0.1,0,0.2c0,0.1,0,0.2,0.1,0.3
		c0.1,0.1,0.1,0.1,0.2,0.1c0.1,0,0.2,0.1,0.3,0.1c0.1,0,0.3-0.1,0.4-0.2c0.1-0.1,0.1-0.2,0.1-0.3c0-0.1,0-0.1,0-0.2
		c0-0.2-0.1-0.3-0.2-0.4C11.7,11.6,11.6,11.6,11.4,11.6z"/>
</g>
<g>
	<path d="M42.2,7.3C41.8,6.5,41,6,40.3,5.7l0.2-0.2c0.2-0.2,0.2-0.4,0.1-0.6c-1.1-2-3.4-2.1-4.9-2c0.1-0.1,0.1-0.3,0-0.4
		c-0.2-0.6-0.6-0.9-1.1-1.1C33.4,1,31.5,2,30.6,2.6c-0.5-1-1.6-1.8-1.8-1.9c-0.2-0.1-0.5-0.1-0.6,0c-0.8,0.8-0.9,2.3-0.8,3.3
		c-1.4-0.3-3.2,0.2-3.4,0.2c-0.1,0-0.2,0.1-0.3,0.2c-0.1,0.1-0.1,0.3,0,0.4c0.2,0.7,0.5,1.4,0.8,2c-1.6,0.7-1.8,3.6-1.8,3.7
		c0,0.2,0.1,0.3,0.2,0.4c0,0,0,0,0,0c-0.1,0.9-0.1,1.9,0.4,2.2c0.4,0.3,0.7,0.4,1,0.4c0.1,0,0.2,0,0.2,0c0.2,1.3,0.7,2,1.3,2.7
		l0.2,0.2c0.8,0.9,1.7,1.9,3.1,2.4c0.9,0.3,1.8,0.5,2.8,0.5c1,0,2.1-0.2,3.1-0.5c1-0.3,1.5-0.7,2.1-1.1c0.2-0.1,0.4-0.3,0.6-0.4
		c1.2-0.8,2-1.6,2.3-3.6c0.1,0,0.2,0,0.3,0c0.3,0,0.6-0.1,1-0.4c0.6-0.4,0.5-1.7,0.3-2.7c0.1-0.1,0.1-0.2,0.1-0.4
		c0.1-0.7-0.2-1.4-0.5-2L41.9,8c0.1,0,0.2-0.1,0.3-0.3C42.2,7.6,42.2,7.4,42.2,7.3z M25.1,7.7c0.2,0,0.3-0.1,0.4-0.2
		c0.1-0.1,0.1-0.3,0-0.5c0,0-0.5-1-0.8-1.9c0.9-0.2,2.3-0.3,3,0.1c0.2,0.1,0.4,0.1,0.5,0c0.2-0.1,0.2-0.3,0.2-0.5
		c-0.1-0.6-0.2-2,0.2-2.9c0.5,0.5,1.2,1.1,1.2,1.6c0,0.2,0.1,0.3,0.3,0.4c0.2,0.1,0.3,0,0.5-0.1c1-0.7,2.8-1.7,3.7-1.4
		c0.1,0,0.2,0.1,0.3,0.2c-0.2,0.2-0.4,0.4-0.7,0.8c-0.1,0.2-0.1,0.4,0,0.6c0.1,0.2,0.3,0.2,0.5,0.2c0,0,3.6-1,5.1,0.9l-0.6,0.5
		c-0.1,0.1-0.2,0.3-0.2,0.5c0,0.2,0.2,0.3,0.4,0.4c0.3,0.1,1.2,0.4,1.7,1l-0.7,0.2C40.1,7.6,40,7.7,40,7.8c0,0.2,0,0.3,0.1,0.4
		c0.3,0.5,0.8,1.3,0.7,1.7c-1.1-0.4-3.2-1.4-3.9-2.5c-0.1-0.1-0.2-0.2-0.3-0.2c0,0-0.1,0-0.1,0c-0.1,0-0.2,0-0.3,0.1
		c0,0-0.4,0.2-0.8,0.6c-0.6-0.2-1.4-0.6-1.5-1.1c0-0.2-0.2-0.4-0.4-0.4c-0.2-0.1-0.4,0-0.5,0.2c-0.2,0.2-0.7,0.8-1.2,1.1
		c-0.2-0.4-0.5-0.8-1-1c-0.2-0.1-0.4,0-0.6,0.2c-0.6,0.8-1.8,1.9-2.7,2.1l-0.3-0.7c-0.1-0.2-0.2-0.3-0.3-0.3c-0.2,0-0.3,0-0.4,0.1
		L25.4,9c-0.2,0.1-0.9,0.4-1.7,0.8C23.8,8.9,24.2,7.7,25.1,7.7z M24.3,12.6c-0.1,0.1-0.2,0.1-0.4-0.1c-0.1-0.2-0.1-0.9,0-1.7
		c0.2-0.1,0.4-0.2,0.5-0.2C24.3,11.4,24.3,12,24.3,12.6L24.3,12.6z M37.2,16.4c-0.2,0.2-0.5,0.3-0.7,0.4c-0.6,0.4-1.1,0.7-1.9,1
		c-1.8,0.6-3.7,0.6-5.3,0.1c-1.2-0.4-2-1.3-2.7-2.1l-0.2-0.2c-0.8-1-1.3-1.5-1.1-5.2c0-0.1,0-0.2,0-0.2c0.2-0.1,0.4-0.2,0.5-0.3
		c0,0,0,0,0,0l0,0c0,0,0,0,0.1,0l0,0l0.6-0.5l0.1,0.4c0.1,0.2,0.2,0.3,0.4,0.3c1.4,0.2,3-1.4,3.6-2.1C31,8.3,31,8.6,31,8.6
		c0,0.2,0.1,0.3,0.2,0.4c0.1,0.1,0.3,0.1,0.4,0c0.6-0.2,1.2-0.8,1.6-1.2C34,8.7,35.2,9,35.4,9c0.2,0,0.4,0,0.5-0.1
		c0.2-0.2,0.3-0.3,0.5-0.4c0.7,0.8,1.9,1.5,2.9,2C39.3,14.8,38.5,15.6,37.2,16.4z M40.7,12.5c-0.2,0.2-0.4,0.2-0.5,0.1l-0.1,0.1
		c0.1-0.6,0.1-1.2,0.1-1.9c0.2,0.1,0.3,0.1,0.4,0.1C40.8,11.7,40.8,12.4,40.7,12.5z"/>
	<path d="M32.9,15.7c-1.2,0.8-2.2,0-2.2,0c-0.2-0.2-0.5-0.2-0.7,0.1c-0.2,0.2-0.2,0.5,0.1,0.7c0.3,0.3,1,0.6,1.7,0.6
		c0.5,0,1.1-0.1,1.7-0.5c0.2-0.1,0.3-0.5,0.2-0.7C33.5,15.6,33.2,15.6,32.9,15.7z"/>
	<path d="M30,13.4c0-0.2-0.1-0.4-0.2-0.5c-0.1-0.1-0.3-0.1-0.5-0.1l0,0c-0.2,0-0.4,0.1-0.5,0.3c0,0.1-0.1,0.1-0.1,0.2
		c0,0.1-0.1,0.1-0.1,0.2c0,0.1,0,0.2,0.1,0.3c0.1,0.1,0.2,0.1,0.3,0.2c0.1,0,0.2,0.1,0.3,0.1c0.2,0,0.3-0.1,0.4-0.2
		c0.1-0.1,0.1-0.2,0.2-0.3C30,13.6,30,13.5,30,13.4z"/>
	<path d="M34.3,12.9L34.3,12.9c-0.2,0-0.4,0.1-0.5,0.3c0,0.1-0.1,0.1-0.1,0.2c0,0.1-0.1,0.1-0.1,0.2c0,0.1,0,0.2,0.1,0.3
		c0.1,0.1,0.2,0.1,0.3,0.2c0.1,0,0.2,0.1,0.3,0.1c0.2,0,0.3-0.1,0.4-0.2c0.1-0.1,0.1-0.2,0.2-0.3c0-0.1,0-0.1,0-0.2
		c0-0.2-0.1-0.4-0.2-0.5C34.7,12.9,34.5,12.8,34.3,12.9z"/>
</g>
<g>
	<path d="M49.1,4.7C49.1,4.7,49.1,4.7,49.1,4.7l9.4-0.1c0.3,0,0.5-0.2,0.5-0.5c0-0.3-0.2-0.5-0.5-0.5c0,0,0,0,0,0l-9.4,0.1
		c-0.3,0-0.5,0.2-0.5,0.5C48.6,4.5,48.8,4.7,49.1,4.7z"/>
	<path d="M63.4,10.9c0-2.3-0.1-4.5-0.1-6.8c0-0.3-0.2-0.5-0.5-0.5c0,0,0,0,0,0l-1.9,0c-0.3,0-0.5,0.2-0.5,0.5c0,0.3,0.2,0.5,0.5,0.5
		l1.4,0c0,0.7,0,1.4,0,2.1L45.8,7c0-0.7,0-1.5,0-2.2l1,0c0.3,0,0.5-0.2,0.5-0.5c0-0.3-0.2-0.5-0.5-0.5c0,0,0,0,0,0l-1.5,0
		c-0.3,0-0.5,0.2-0.5,0.5c0,2.1,0,4.2,0.1,6.4c0,2.1,0,4.3,0.1,6.4c0,0.3,0.2,0.5,0.4,0.5c3.5,0.4,7,0.7,10.4,0.7
		c2.5,0,5-0.1,7.4-0.4c0.3,0,0.5-0.2,0.5-0.5C63.4,15.2,63.4,13,63.4,10.9z M45.9,16.6c0-2,0-3.9-0.1-5.9c0-0.9,0-1.8,0-2.6
		l16.5-0.3c0,1.1,0,2.1,0.1,3.2c0,2,0.1,3.9,0.1,5.9C57.2,17.4,51.6,17.3,45.9,16.6z"/>
	<path d="M47.9,5.4c0.3,0,0.5-0.2,0.5-0.5V2.1c0-0.3-0.2-0.5-0.5-0.5s-0.5,0.2-0.5,0.5v2.8C47.4,5.2,47.6,5.4,47.9,5.4z"/>
	<path d="M59.7,5.6c0.3,0,0.5-0.2,0.5-0.5v-3c0-0.3-0.2-0.5-0.5-0.5s-0.5,0.2-0.5,0.5v3C59.2,5.4,59.4,5.6,59.7,5.6z"/>
	<path d="M53.9,9.1c-0.2-0.1-0.4-0.1-0.5,0.1l-1.7,1.3c-0.2,0.2-0.3,0.5-0.1,0.7s0.5,0.3,0.7,0.1l0.9-0.7l0.2,4.1
		c0,0.3,0.2,0.5,0.5,0.5c0,0,0,0,0,0c0.3,0,0.5-0.2,0.5-0.5l-0.3-5C54.2,9.4,54.1,9.2,53.9,9.1z"/>
</g>
<g>
	<path d="M84.9,6.1c-0.4-0.9-0.9-1.9-1.7-2.6c-0.4-0.4-0.8-0.7-1.5-1C80.9,2,80,1.7,79,1.5c-3.3-0.8-6.5-0.1-8.7,1.8
		c-1.6,1.4-2.7,3.3-3.1,5.5c-0.5,2.2-0.2,4.4,0.7,6.3c1,2,2.7,3.6,4.7,4.3c0.9,0.3,1.8,0.4,2.7,0.5c0.9,0.1,1.7,0.2,2.6,0.2
		c1.5,0,3-0.2,4.3-1c1.9-1.1,3.3-3.2,4-6.2c0.1-0.6,0.3-1.2,0.3-1.9C86.4,9.2,85.6,7.6,84.9,6.1z M85.1,12.6
		c-0.5,1.9-1.5,4.4-3.5,5.6c-1.8,1-4.1,0.9-6.3,0.7c-0.8-0.1-1.7-0.2-2.5-0.5c-1.7-0.6-3.3-2-4.1-3.7c-0.8-1.7-1-3.7-0.6-5.6
		c0.4-2,1.4-3.7,2.8-4.9c1.4-1.2,3.3-1.9,5.4-1.9c0.8,0,1.6,0.1,2.4,0.3c0.9,0.2,1.7,0.5,2.5,0.9c0,0,0,0,0,0
		c0.5,0.3,0.9,0.6,1.2,0.9c0.7,0.6,1.1,1.5,1.5,2.3c0.6,1.3,1.4,2.8,1.3,4.3C85.3,11.5,85.2,12.1,85.1,12.6z"/>
	<path d="M77.4,11.4c-0.3-0.3-0.5-0.5-0.6-0.7L76.9,5c0-0.3-0.2-0.5-0.5-0.5c0,0,0,0,0,0c-0.3,0-0.5,0.2-0.5,0.5l-0.1,5.8
		c0,0.1,0,0.2,0.1,0.3c0.2,0.4,0.5,0.7,0.8,1l1.9,1.9c0.1,0.1,0.2,0.1,0.4,0.1s0.3,0,0.4-0.1c0.2-0.2,0.2-0.5,0-0.7L77.4,11.4z"/>
	<path d="M76.4,4c0,0,0.1,0,0.1,0C76.8,4,77,3.7,76.9,3.4c0-0.1,0-0.3,0-0.4c0-0.3-0.2-0.5-0.4-0.5c-0.3,0-0.5,0.2-0.5,0.4
		c0,0.3,0,0.5,0,0.8C76,3.9,76.2,4,76.4,4z"/>
	<path d="M77,16.5c-0.3,0-0.5,0.2-0.5,0.5v0.6c0,0.3,0.2,0.5,0.5,0.5s0.5-0.2,0.5-0.5V17C77.5,16.7,77.2,16.5,77,16.5z"/>
	<path d="M69.8,10.6c0-0.3-0.2-0.5-0.4-0.5l-0.4,0l0,0c-0.3,0-0.5,0.2-0.5,0.4c0,0.3,0.2,0.5,0.5,0.6l0.4,0c0,0,0,0,0.1,0
		C69.6,11.1,69.8,10.9,69.8,10.6z"/>
	<path d="M83.3,10.1c-0.3,0.1-0.4,0.4-0.3,0.6c0.1,0.2,0.3,0.3,0.5,0.3c0.1,0,0.1,0,0.2,0c0.1,0,0.2,0,0.2,0
		c0.3,0.1,0.5-0.1,0.6-0.4c0.1-0.3-0.1-0.5-0.4-0.6C83.8,10,83.6,10,83.3,10.1z"/>
	<path d="M70.2,13.1c-0.2,0.1-0.5,0.3-0.7,0.5c-0.2,0.2-0.2,0.5,0,0.7c0.1,0.1,0.2,0.2,0.4,0.2c0.1,0,0.2,0,0.3-0.1
		c0.1-0.1,0.3-0.2,0.4-0.3c0.2-0.1,0.3-0.4,0.2-0.7C70.8,13.1,70.4,13,70.2,13.1z"/>
	<path d="M73.3,15.8c-0.2-0.1-0.5-0.1-0.7,0.2l-0.3,0.6c-0.1,0.2-0.1,0.5,0.2,0.7c0.1,0,0.2,0.1,0.3,0.1c0.2,0,0.3-0.1,0.4-0.2
		l0.3-0.6C73.6,16.3,73.5,16,73.3,15.8z"/>
	<path d="M80.4,16.1c-0.2-0.2-0.5-0.2-0.7,0c-0.2,0.2-0.2,0.5,0,0.7c0.2,0.2,0.3,0.4,0.5,0.7c0.1,0.2,0.3,0.2,0.4,0.2
		c0.1,0,0.2,0,0.3-0.1c0.2-0.1,0.3-0.5,0.2-0.7C80.8,16.6,80.6,16.4,80.4,16.1z"/>
	<path d="M83.2,13.5c-0.1,0-0.3-0.1-0.4-0.1c-0.2-0.1-0.5-0.1-0.7,0.2c-0.1,0.2-0.1,0.5,0.2,0.7c0.2,0.1,0.5,0.2,0.7,0.3
		c0,0,0.1,0,0.1,0c0.2,0,0.5-0.2,0.5-0.4C83.7,13.8,83.5,13.5,83.2,13.5z"/>
	<path d="M70,7.8C70.1,7.9,70.2,8,70.4,8c0.1,0,0.2,0,0.3-0.1c0.2-0.2,0.2-0.5,0.1-0.7l-0.4-0.5c-0.2-0.2-0.5-0.2-0.7-0.1
		c-0.2,0.2-0.2,0.5-0.1,0.7L70,7.8z"/>
	<path d="M73.1,4c-0.1-0.2-0.4-0.3-0.7-0.2c-0.2,0.1-0.3,0.4-0.2,0.7c0.1,0.2,0.3,0.4,0.5,0.6c0.1,0.1,0.2,0.1,0.3,0.1
		c0.1,0,0.3-0.1,0.4-0.2c0.2-0.2,0.2-0.5,0-0.7C73.3,4.2,73.2,4.1,73.1,4z"/>
	<path d="M79.4,5.1c0.1,0,0.2,0.1,0.2,0.1c0.2,0,0.3-0.1,0.4-0.3l0.3-0.6c0.1-0.2,0-0.5-0.2-0.7c-0.2-0.1-0.5,0-0.7,0.2l-0.3,0.6
		C79.1,4.7,79.2,5,79.4,5.1z"/>
	<path d="M82.7,7.9c0.2,0,0.4-0.2,0.4-0.5c0-0.3-0.2-0.5-0.5-0.5c-0.3,0-0.5,0.1-0.7,0.3S81.8,7.8,82,7.9c0.1,0.1,0.2,0.1,0.3,0.1
		C82.4,8.1,82.6,8,82.7,7.9z"/>
</g>
<g>
	<path d="M94.4,11.5c-0.4,0.4-0.9,0.7-1.5,1L92.8,11c0.9-0.3,1.6-1.2,1.6-2.1c0-1.2-1-2.2-2.2-2.2c0,0,0,0,0,0
		c-0.5,0-0.9,0.2-1.3,0.6c-0.4,0.5-0.7,1.1-0.7,1.7c0.1,0.8,0.6,1.5,1.3,2c0.1,0,0.2,0.1,0.3,0.1c0,0,0,0,0,0l0.1,1.5
		c-0.4-0.3-0.9-0.5-1.4-0.7c-0.3-0.1-0.5,0-0.7,0.3c-0.1,0.3,0,0.5,0.3,0.7c0.4,0.2,0.9,0.4,1.3,0.7c0.2,0.1,0.4,0.2,0.6,0.3
		l0.2,2.5c-0.4,0.5-0.8,1.1-1.1,1.6c-0.1,0.2,0,0.5,0.2,0.7c0.2,0.1,0.5,0,0.7-0.2c0.2-0.4,0.4-0.8,0.7-1.2l1.1,1.4
		c0.1,0.1,0.2,0.2,0.4,0.2c0.1,0,0.2,0,0.3-0.1c0.2-0.2,0.3-0.5,0.1-0.7L93.2,16L93,13.5c0.7-0.3,1.4-0.8,2-1.3
		c0.2-0.2,0.2-0.5,0-0.7C94.9,11.3,94.6,11.3,94.4,11.5z M91.2,8.9c0-0.3,0.1-0.7,0.4-0.9c0.1-0.1,0.3-0.3,0.5-0.3c0,0,0,0,0,0
		c0.6,0,1.2,0.6,1.2,1.2c0,0.5-0.4,1.1-0.9,1.2c-0.1,0-0.1,0-0.2,0c-0.1,0-0.1,0-0.2-0.1C91.6,9.8,91.3,9.3,91.2,8.9z"/>
	<path d="M109,8.5c-0.2-0.2-0.5-0.2-0.7,0c-0.6,0.6-1,0.9-1.6,1.2l-0.1-2.1c1.3-0.3,2.2-1.6,2.2-2.9c0-1.5-1.4-2.9-2.9-2.9
		c0,0,0,0,0,0c-0.6,0-1.2,0.3-1.6,0.8c-0.6,0.6-0.9,1.5-0.9,2.2c0.1,1,0.7,2,1.8,2.6c0.2,0.1,0.3,0.1,0.5,0.2l0.1,2.1
		c-0.1,0-0.1-0.1-0.2-0.1c-0.6-0.3-1.2-0.7-1.8-0.9c-0.3-0.1-0.5,0-0.7,0.3c-0.1,0.3,0,0.5,0.3,0.7c0.5,0.2,1.1,0.6,1.7,0.9
		c0.2,0.1,0.5,0.3,0.7,0.4l0.1,4.3c-0.6,0.8-1.2,1.6-1.6,2.5c-0.1,0.2,0,0.5,0.2,0.7c0.2,0.1,0.5,0,0.7-0.2c0.3-0.7,0.7-1.3,1.2-1.9
		l1.7,2.2c0.1,0.1,0.2,0.2,0.4,0.2c0.1,0,0.2,0,0.3-0.1c0.2-0.2,0.3-0.5,0.1-0.7l-1.9-2.5c0,0,0-0.1,0-0.1l-0.1-4.5
		c0.9-0.4,1.5-0.8,2.3-1.6C109.2,9,109.2,8.7,109,8.5z M104.4,4.8c0-0.5,0.2-1,0.6-1.4c0.3-0.3,0.6-0.5,0.9-0.5c0,0,0,0,0,0
		c1,0,1.9,0.9,1.9,1.9c0,0.8-0.6,1.7-1.5,1.9c-0.1,0-0.2,0-0.3,0c-0.1,0-0.2-0.1-0.4-0.1C104.9,6.2,104.4,5.5,104.4,4.8z"/>
	<path d="M96.6,17.7h-0.2c-0.3,0-0.5,0.2-0.5,0.5s0.2,0.5,0.5,0.5h0.2c0.3,0,0.5-0.2,0.5-0.5S96.9,17.7,96.6,17.7z"/>
	<path d="M99.8,17.9c-0.2-0.2-0.5-0.2-0.7,0c0,0-0.1,0.1-0.1,0.2c0,0.1,0,0.1,0,0.2c0,0.1,0,0.1,0,0.2c0,0.1,0.1,0.1,0.1,0.2
		c0.1,0.1,0.2,0.1,0.3,0.1c0.1,0,0.3-0.1,0.4-0.1c0,0,0.1-0.1,0.1-0.2c0,0,0-0.1,0-0.2c0-0.1,0-0.1,0-0.2
		C99.9,18,99.8,17.9,99.8,17.9z"/>
	<path d="M101.9,4.2c0.1,0,0.3-0.1,0.3-0.1c0.1,0,0.1-0.1,0.1-0.2c0-0.1,0-0.1,0-0.2c0-0.1,0-0.1,0-0.2c0-0.1-0.1-0.1-0.1-0.2
		c-0.2-0.2-0.5-0.2-0.7,0c-0.1,0-0.1,0.1-0.1,0.2c0,0.1,0,0.1,0,0.2c0,0.1,0,0.1,0,0.2c0,0.1,0.1,0.1,0.1,0.2c0,0,0.1,0.1,0.2,0.1
		C101.8,4.2,101.8,4.2,101.9,4.2z"/>
	<path d="M102.5,17.8c-0.2-0.1-0.5-0.1-0.6,0c-0.1,0.1-0.1,0.2-0.2,0.3c0,0.1,0,0.2,0,0.3c0.1,0.2,0.3,0.4,0.5,0.4c0,0,0,0,0,0
		c0.2,0,0.5-0.2,0.5-0.4C102.7,18.2,102.6,17.9,102.5,17.8z"/>
	<path d="M94.4,6.7c0.3,0,0.5-0.2,0.5-0.5s-0.2-0.5-0.5-0.5h0c-0.3,0-0.5,0.2-0.5,0.5S94.2,6.7,94.4,6.7z"/>
	<path d="M96.8,4.9L96.8,4.9c-0.3,0-0.5,0.2-0.5,0.5s0.2,0.5,0.5,0.5s0.5-0.2,0.5-0.5S97.1,4.9,96.8,4.9z"/>
	<path d="M99.1,5.1L99.1,5.1l0.1,0c0.1,0,0.1,0,0.2,0c0.2,0,0.4-0.1,0.5-0.3c0.1-0.3-0.1-0.6-0.3-0.6c0,0-0.1,0-0.1,0
		c-0.3-0.1-0.5,0-0.6,0.3C98.7,4.7,98.9,5,99.1,5.1z"/>
</g>
<g>
	<path d="M122.3,7.4c0-0.8-0.3-1.5-0.6-2.1c-0.2-0.4-0.4-0.8-0.8-1.2c-0.2-0.2-0.4-0.3-0.7-0.5c-0.4-0.2-0.8-0.4-1.2-0.5
		c-1.5-0.3-2.9,0-3.9,0.8c-0.7,0.6-1.2,1.5-1.4,2.4c-0.2,1-0.1,2,0.3,2.8c0.4,0.9,1.2,1.6,2.1,1.9c0.4,0.1,0.8,0.2,1.2,0.2
		c0.4,0,0.7,0.1,1.1,0.1c0.7,0,1.3-0.1,1.9-0.4c0.9-0.5,1.5-1.4,1.8-2.7C122.2,8,122.3,7.7,122.3,7.4z M121.2,8
		c-0.2,0.7-0.6,1.7-1.3,2.1c-0.7,0.4-1.6,0.3-2.4,0.2c-0.3,0-0.7-0.1-1-0.2c-0.6-0.2-1.2-0.7-1.5-1.4c-0.3-0.6-0.4-1.4-0.2-2.2
		c0.2-0.8,0.5-1.4,1.1-1.9c0.5-0.5,1.3-0.7,2.1-0.7c0.3,0,0.6,0,0.9,0.1c0.3,0.1,0.7,0.2,1,0.4h0c0.2,0.1,0.3,0.2,0.4,0.3
		c0.2,0.2,0.4,0.6,0.6,0.9c0.2,0.5,0.5,1.1,0.5,1.7C121.3,7.6,121.2,7.8,121.2,8z"/>
	<path d="M129.8,18c-0.1-0.1-0.6-0.7-0.7-0.8c-1.2-1-2.2-2-3.2-2.9c-0.9-0.9-1.9-1.9-3.1-2.8c0.5-0.7,1-1.7,1.2-2.8
		c0.1-0.3,0.2-0.8,0.2-1.3c0-1.2-0.5-2.3-0.9-3.1c-0.3-0.6-0.6-1.2-1.1-1.7c-0.3-0.2-0.6-0.5-1-0.7c-0.6-0.3-1.2-0.5-1.8-0.7
		c-2.2-0.5-4.3-0.1-5.7,1.2c-1,0.9-1.8,2.2-2.1,3.6c-0.3,1.4-0.2,2.9,0.4,4.1c0.6,1.3,1.8,2.4,3.1,2.8c0.6,0.2,1.2,0.3,1.7,0.3
		c0.6,0.1,1.1,0.1,1.7,0.1c0.9,0,1.7-0.1,2.5-0.5c0.4,0.5,0.9,0.9,1.3,1.4c1.5,1.6,2.9,3.1,4.5,4.5c0.3,0.3,0.7,0.6,1.2,0.8
		c0.2,0.1,0.4,0.1,0.7,0.1c0.3,0,0.6-0.1,0.8-0.4C129.8,19.2,130.1,18.5,129.8,18z M122.5,13c-0.2-0.2-0.4-0.4-0.5-0.6
		c0.1-0.1,0.2-0.1,0.2-0.2c0.2,0.2,0.4,0.3,0.6,0.5C122.7,12.8,122.6,12.9,122.5,13z M117.1,12.3c-0.5-0.1-1-0.1-1.5-0.3
		c-1.1-0.4-2-1.2-2.5-2.3c-0.5-1-0.6-2.3-0.4-3.5c0.3-1.2,0.9-2.3,1.7-3c0.9-0.8,2.1-1.1,3.3-1.1c0.5,0,1,0.1,1.5,0.2
		c0.5,0.1,1.1,0.3,1.6,0.6c0.3,0.2,0.6,0.3,0.7,0.5c0.4,0.4,0.7,0.9,0.9,1.4c0.4,0.8,0.8,1.8,0.8,2.7c0,0.4-0.1,0.7-0.2,1
		c-0.3,1.2-0.9,2.7-2.2,3.4C119.9,12.5,118.5,12.5,117.1,12.3z M123.2,13.7c0.1-0.1,0.2-0.2,0.3-0.3c0.6,0.6,1.2,1.1,1.7,1.7
		c0.8,0.8,1.6,1.5,2.5,2.3c-0.2,0.2-0.3,0.3-0.4,0.5C125.9,16.6,124.6,15.2,123.2,13.7z M128.9,18.7c0,0-0.1,0.1-0.5,0
		c-0.1,0-0.2-0.1-0.2-0.1c0.1-0.2,0.2-0.4,0.4-0.5c0.1,0.1,0.3,0.4,0.4,0.5C128.9,18.6,128.9,18.7,128.9,18.7z"/>
</g>
<g>
	<path d="M147.7,8.1c-3.5,0.1-7,0.1-10.5,0c-0.2,0-0.3,0.1-0.4,0.2c-0.1,0.1-0.1,0.2-0.1,0.4l0,0.8c0.1,2.6,0.2,5.2,0.7,7.7
		c0.2,0.8,0.4,1.6,1,2.2c0.7,0.7,1.8,0.7,2.5,0.8c0.7,0,1.5,0.1,2.2,0.1c0.8,0,1.6,0,2.4-0.2c0.5-0.1,1.1-0.3,1.5-0.8
		c0.2-0.3,0.3-0.7,0.3-1c0.6-3.1,0.6-6.4,0.7-9.5l0-0.2c0-0.1,0-0.3-0.1-0.4C147.9,8.2,147.8,8.1,147.7,8.1z M146.5,18.1
		c0,0.3-0.1,0.5-0.2,0.6c-0.2,0.2-0.6,0.3-0.9,0.4c-1.4,0.2-2.9,0.2-4.4,0.1c-0.7,0-1.5-0.1-1.9-0.5c-0.4-0.4-0.6-1-0.7-1.6
		c-0.5-2.4-0.6-5.1-0.7-7.6l0-0.3c3.1,0,6.3,0,9.4,0C147.1,12.1,147,15.2,146.5,18.1z"/>
	<path d="M144.9,18C145,18,145,18,144.9,18c0.3,0,0.5-0.2,0.6-0.4l0.8-6.8c0-0.3-0.2-0.5-0.4-0.6c-0.3,0-0.5,0.2-0.6,0.4l-0.8,6.8
		C144.5,17.7,144.7,18,144.9,18z"/>
	<path d="M141.8,10.7c0.2,2.2,0.4,4.5,0.5,6.8c0,0.3,0.2,0.5,0.5,0.5c0,0,0,0,0,0c0.3,0,0.5-0.2,0.5-0.5c-0.1-2.3-0.3-4.6-0.5-6.8
		c0-0.3-0.3-0.5-0.5-0.4C141.9,10.2,141.7,10.4,141.8,10.7z"/>
	<path d="M139.5,10.2c-0.3,0-0.5,0.3-0.5,0.5c0.2,2.3,0.5,4.6,0.9,6.9c0,0.2,0.3,0.4,0.5,0.4c0,0,0.1,0,0.1,0
		c0.3-0.1,0.5-0.3,0.4-0.6c-0.4-2.2-0.7-4.5-0.9-6.8C140,10.3,139.7,10.1,139.5,10.2z"/>
	<path d="M148.5,3.6c-0.3-1.1-1.5-1.8-2.5-1.9c-0.8-0.1-1.7,0.1-2.4,0.3c-0.2-0.4-0.6-0.9-1.3-1.1c-0.4-0.1-0.9,0-1.2,0.1
		c-0.4,0.1-0.8,0.3-1.3,0.4c-0.2,0.1-0.7,0.3-1,0.8c-0.1,0.2-0.1,0.4-0.1,0.6c0,0.2,0,0.5,0,0.7l-0.4,0.1c-0.7,0.2-1.5,0.4-2.1,1.1
		c-0.6,0.7-0.9,1.9-0.2,2.6c0.1,0.1,0.2,0.1,0.4,0.1c0.1,0,0.1,0,0.2,0c2.4-0.8,5.2-1.5,7.8-2.2c1.3-0.3,2.5-0.6,3.7-1
		c0.1,0,0.2-0.1,0.3-0.2C148.6,3.9,148.6,3.7,148.5,3.6z M139.7,2.9c0-0.1,0-0.2,0-0.2c0.1-0.1,0.3-0.2,0.4-0.3
		c0.4-0.2,0.8-0.3,1.2-0.4c0.2-0.1,0.5-0.1,0.7-0.1c0.2,0,0.4,0.2,0.5,0.4l-2.9,0.8C139.7,3.1,139.7,3,139.7,2.9z M144.3,4.2
		c-2.5,0.6-5.1,1.3-7.5,2.1c-0.1-0.3,0.1-0.7,0.3-1c0.4-0.4,1.1-0.6,1.7-0.8l4.7-1.4c0.7-0.2,1.4-0.4,2.2-0.4c0.1,0,0.2,0,0.3,0
		c0.5,0.1,1.1,0.3,1.4,0.7C146.3,3.7,145.3,4,144.3,4.2z"/>
</g>
<g>
	<path d="M170,5.6c-0.1-1.3-0.6-2.3-1.4-3.1c-0.7-0.7-1.7-1.1-2.9-1.3c-0.8-0.1-1.6-0.1-2.5,0c-1,0.1-1.9,0.5-2.4,1.2
		c-0.3,0.4-0.8,1-0.9,1.6l0,0.1c-0.3,1.2-0.5,2.1-0.4,3.4c0.3,2.6,0.7,4.5,1.5,6.3c0,0,0,0,0,0l0.1,0.3c0.7,1.6,1.4,3.4,3.4,5.5
		c0.1,0.1,0.2,0.2,0.4,0.2c0,0,0,0,0,0c0.1,0,0.3-0.1,0.4-0.1c2.2-2.3,3.2-4.7,4.1-7.3C170.2,9.8,170.3,8.3,170,5.6z M168.4,12.2
		c-0.6,1.8-1.5,4.3-3.5,6.5c-1.6-1.9-2.3-3.5-2.8-4.9l-0.1-0.3c-0.7-1.7-1.2-3.5-1.4-6c-0.1-1.2,0.1-1.9,0.4-3.1l0-0.1
		c0.1-0.4,0.5-0.9,0.8-1.2c0.3-0.4,1-0.7,1.7-0.8c0.8-0.1,1.5-0.1,2.2,0c1,0.2,1.8,0.5,2.4,1.1c0.7,0.6,1,1.4,1.1,2.4
		C169.3,8.3,169.2,9.6,168.4,12.2z"/>
	<path d="M166.5,5.1c-0.1-0.1-0.2-0.2-0.4-0.3c-0.2-0.1-0.5-0.2-0.7-0.3c-0.9-0.2-1.7,0-2.2,0.5c-0.4,0.4-0.7,0.9-0.8,1.4
		c-0.1,0.6-0.1,1.1,0.2,1.6c0.3,0.5,0.7,1,1.3,1.1c0.2,0.1,0.5,0.1,0.7,0.1c0.2,0,0.4,0,0.6,0c0.4,0,0.8-0.1,1.1-0.3
		c0.5-0.3,0.9-0.8,1.1-1.6c0-0.1,0.1-0.3,0.1-0.5c0-0.5-0.2-0.9-0.4-1.2C166.8,5.6,166.7,5.4,166.5,5.1z M166.3,7.3
		c-0.1,0.3-0.3,0.8-0.6,1c-0.3,0.2-0.7,0.1-1.1,0.1c-0.2,0-0.3,0-0.5-0.1c-0.3-0.1-0.5-0.3-0.7-0.6c-0.1-0.3-0.2-0.6-0.1-1
		c0.1-0.3,0.2-0.7,0.5-0.9c0.2-0.2,0.6-0.3,0.9-0.3c0.1,0,0.3,0,0.4,0c0.2,0,0.3,0.1,0.5,0.2c0,0,0,0,0,0c0.1,0,0.1,0.1,0.2,0.1
		c0.1,0.1,0.2,0.2,0.2,0.4c0.1,0.3,0.3,0.5,0.3,0.8C166.3,7.1,166.3,7.2,166.3,7.3z"/>
</g>
<path d="M245.5,5.9c0-0.3-0.2-0.5-0.5-0.5c0,0,0,0,0,0c-5.3,0.1-11.3,0.1-17.8,0c0,0,0,0,0,0c-0.3,0-0.5,0.2-0.5,0.5
	c-0.1,3.8,0,7.6,0.1,11.4c0,0.3,0.2,0.5,0.5,0.5c2.7,0.1,5,0.2,7.1,0.2c1.7,0,3.2,0,4.8-0.1c1.9,0,3.8-0.1,5.9-0.1c0,0,0,0,0,0
	c0.3,0,0.5-0.2,0.5-0.4C246,13.8,245.8,10.1,245.5,5.9z M243,14.7c0.3-1.9,0.2-3.8,0-5.9c0.6-0.5,1.1-1.1,1.6-1.7
	c0.2,3.2,0.3,6.2,0,9.1C244.1,15.8,243.5,15.3,243,14.7z M227.7,16.1c-0.1-2.9-0.1-5.8-0.1-8.7c0.5,0.6,0.9,1,1.5,1.7
	c0,1.9,0,3.7,0.1,5.6C228.7,15.1,228.2,15.6,227.7,16.1z M230.2,14.4c-0.1-1.7-0.1-3.4-0.1-5.2c4.3,0,8.3,0,11.9,0
	c0.2,1.9,0.2,3.6,0,5.2c-1.3,0-2.6,0-3.8,0C235.9,14.5,233.5,14.5,230.2,14.4z M243.8,6.5c-0.5,0.7-1,1.3-1.6,1.8
	c-3.7,0.1-7.9,0.1-12.4,0c-0.6-0.6-1-1.1-1.6-1.7C233.9,6.6,239.1,6.6,243.8,6.5z M239.1,17c-3.2,0.1-6.5,0.1-10.8-0.1
	c0.5-0.5,1-1,1.6-1.5c1.9,0.1,3.5,0.1,4.9,0.1c1.2,0,2.3,0,3.4,0c1.3,0,2.6,0,4,0c0.5,0.5,1.1,1,1.7,1.5C242.3,17,240.7,17,239.1,17
	z"/>
<path d="M195.6,17.6c-0.1-0.3-0.4-0.4-0.6-0.3c-0.5,0.2-1,0.2-1.5,0.3c0-0.1,0-0.1-0.1-0.2l-1.2-1.6l-0.2-2.1c0.6-0.3,1.2-0.6,1.7-1
	c0.2-0.2,0.2-0.5,0.1-0.7c-0.2-0.2-0.5-0.2-0.7-0.1c-0.3,0.3-0.7,0.5-1.1,0.7l-0.1-1c0.8-0.3,1.3-1,1.3-1.9v0c0-1-0.9-1.9-1.9-1.9
	c0,0,0,0,0,0c-0.4,0-0.8,0.2-1.1,0.5c-0.4,0.4-0.6,1-0.6,1.5c0,0.7,0.5,1.4,1.2,1.7c0.1,0,0.1,0,0.2,0.1l0.1,1.1
	c-0.3-0.2-0.7-0.4-1-0.5c-0.3-0.1-0.5,0-0.7,0.3c-0.1,0.3,0,0.5,0.3,0.7c0.3,0.1,0.7,0.4,1.1,0.6c0.2,0.1,0.3,0.2,0.5,0.2l0.2,2
	c-0.3,0.4-0.6,0.9-0.9,1.4c0,0.1,0,0.2,0,0.2c-0.5,0-1,0-1.4,0.1c-0.3,0-0.6,0.1-1,0.2c-0.4,0.1-0.7,0.2-1.1,0.2c-0.4,0-0.8,0-1.2,0
	c0,0,0,0,0,0c-0.3-1.4-0.3-2.8-0.2-4.1c0-0.9,0.1-1.8,0.2-2.7c0.3-0.1,0.6-0.2,0.9-0.4c0.4-0.4,0.6-0.8,0.7-1.2c0.3,0,0.6,0,0.9-0.2
	c0.3-0.2,0.6-0.5,0.8-0.9c0.4-0.8,0.4-1.8,0.1-2.6c-0.3-0.7-0.7-1.2-1.3-1.5c0.1-0.4,0.2-0.9,0-1.3c-0.2-0.6-0.6-1.2-1.2-1.5
	c-0.5-0.2-1-0.3-1.6-0.3c-0.7,0.1-1.3,0.3-1.8,0.7c-0.3,0.3-0.6,0.6-0.7,1c-0.6-0.3-1.4-0.4-2-0.3c-0.5,0-0.8,0.1-1.1,0.4
	c-0.3,0.3-0.5,0.7-0.5,1.3c0,0.9,0.3,1.8,0.8,2.5c-0.2,0.2-0.3,0.4-0.4,0.6c-0.2,0.4-0.1,0.9,0,1.3c0.3,0.9,1.3,1.5,2.2,1.5
	c0.2,0.3,0.6,0.6,1,0.8c0.1,2.2,0.2,4.4,0.1,6.6c-0.8-0.1-1.6,0-2.4,0.2c-0.3,0.1-0.4,0.4-0.3,0.6c0.1,0.3,0.4,0.4,0.6,0.3
	c1.1-0.3,2.3-0.2,3.5,0c0.7,0.1,1.5,0.2,2.2,0.2c0.2,0,0.5,0,0.7,0c0.4,0,0.8-0.1,1.2-0.2c0.3-0.1,0.6-0.1,0.9-0.2
	c0.8-0.1,1.6-0.1,2.5,0c1.2,0,2.5,0.1,3.8-0.3C195.6,18.1,195.7,17.8,195.6,17.6z M182.1,9.5c-0.1-0.2-0.3-0.3-0.5-0.3
	c0,0-0.1,0-0.1,0c-0.5,0.1-1.2-0.3-1.4-0.8c-0.1-0.2-0.1-0.4,0-0.6c0.1-0.2,0.2-0.3,0.4-0.3c0.2,0,0.3-0.2,0.4-0.3
	c0.1-0.2,0-0.4-0.1-0.5c-0.6-0.6-0.9-1.5-0.9-2.3c0-0.3,0.1-0.5,0.2-0.6c0.1-0.1,0.2-0.1,0.5-0.1c0.7,0,1.6,0.1,1.9,0.5
	c0.1,0.1,0.4,0.2,0.5,0.1c0.2-0.1,0.3-0.3,0.3-0.5c0-0.4,0.2-0.8,0.5-1c0.3-0.3,0.7-0.4,1.2-0.5c0.3,0,0.7,0,1.1,0.2
	c0.3,0.2,0.6,0.5,0.7,0.8c0.1,0.4,0,0.8-0.2,1.1c-0.1,0.1-0.1,0.3,0,0.4c0.1,0.1,0.2,0.3,0.3,0.3c0.5,0.2,1,0.6,1.2,1.2
	c0.2,0.6,0.2,1.2,0,1.8c-0.1,0.2-0.2,0.4-0.4,0.5c-0.2,0.1-0.5,0.1-0.8,0.1c-0.1,0-0.3,0-0.4,0.1c-0.1,0.1-0.2,0.2-0.2,0.3
	c0,0.5-0.1,0.8-0.4,1c-0.3,0.2-0.7,0.3-1.2,0.3c-0.6,0-1.1,0-1.5-0.1C182.6,10.1,182.3,9.8,182.1,9.5z M183.5,17.7
	c0-2.1,0-4.3-0.1-6.4c0.2,0,0.4,0,0.6,0c0.2,0,0.4,0,0.5,0c-0.1,0.8-0.2,1.6-0.2,2.5c-0.1,1.3-0.1,2.7,0.2,4.1c-0.2,0-0.3,0-0.5-0.1
	C183.9,17.8,183.7,17.7,183.5,17.7z M190.5,9.7c0-0.2,0.1-0.5,0.3-0.7c0.1-0.1,0.3-0.2,0.4-0.2c0,0,0,0,0,0c0.5,0,0.9,0.4,0.9,0.9
	c0,0.4-0.3,0.8-0.7,0.9c-0.1,0-0.1,0-0.1,0c0,0-0.1,0-0.2-0.1C190.8,10.4,190.5,10.1,190.5,9.7z M191.3,17.5
	c0.1-0.2,0.3-0.5,0.4-0.7l0.6,0.7c-0.3,0-0.5,0-0.8,0C191.5,17.5,191.4,17.5,191.3,17.5z"/>
<g>
	<path d="M214.3,12.4c0.8-0.5,1.3-1.5,1.3-2.5c0-1.5-1.4-2.9-2.9-2.9c-0.6,0-1.2,0.3-1.6,0.8c-0.6,0.6-0.9,1.5-0.9,2.2
		c0.1,0.8,0.5,1.6,1.2,2.2c-0.4,0.2-0.8,0.4-1.1,0.6c-0.6,0.5-0.9,1.1-1.2,1.8c-0.3,0.7-0.4,1.5-0.5,2.2c0,0.2-0.1,0.5-0.1,0.7
		c0,0.1,0,0.3,0.1,0.4s0.2,0.2,0.4,0.2c0.8,0,1.5,0,2.3,0c0.7,0,1.5,0,2.2,0c0.3,0,0.6,0,0.8,0.1c0.4,0,0.8,0.1,1.1,0.1
		c0.3,0,0.6,0,0.9-0.1c0.2-0.1,0.4-0.3,0.4-0.5l0-0.4c0-1.1,0-2.4-0.6-3.5C215.9,13.3,215.2,12.7,214.3,12.4z M211.2,10
		c0-0.5,0.2-1,0.6-1.4c0.3-0.3,0.6-0.5,0.9-0.5c0,0,0,0,0,0c1,0,1.9,0.9,1.9,1.9c0,0.8-0.6,1.7-1.5,1.9c-0.1,0-0.2,0-0.3,0
		c-0.1,0-0.2-0.1-0.4-0.1C211.7,11.3,211.3,10.6,211.2,10z M214.6,17.3c-0.3,0-0.6-0.1-0.9-0.1c-0.4,0-0.7,0-1.1,0
		c-0.4,0-0.8,0-1.2,0c-0.6,0-1.1,0-1.7,0c0-0.1,0-0.1,0-0.2c0.1-0.7,0.2-1.3,0.4-1.9c0.3-0.6,0.5-1.1,0.9-1.5
		c0.4-0.4,1.3-0.7,1.8-0.6c0.7,0.1,2,0.5,2.6,1.5c0.5,0.8,0.5,1.9,0.5,2.9C215.5,17.4,215,17.4,214.6,17.3z"/>
	<path d="M207.9,17.2c-0.5,0-2.2,0-3.1,0c0-0.1,0-0.1,0-0.2c0.1-0.7,0.2-1.3,0.4-1.9c0.3-0.6,0.5-1.1,0.9-1.5
		c0.4-0.4,1.3-0.7,1.7-0.6c0.4,0.1,0.8,0.3,0.9,0.4c0.2,0.2,0.5,0.2,0.7,0c0.2-0.2,0.2-0.5,0-0.7c-0.1-0.1-0.3-0.3-0.6-0.4
		c0.6-0.5,1-1.3,1-2c0-1.4-1.2-2.5-2.6-2.6c0,0,0,0,0,0c-0.5,0-1,0.2-1.5,0.7c-0.5,0.5-0.8,1.3-0.8,1.9c0.1,0.8,0.5,1.5,1.2,2
		c-0.3,0.1-0.6,0.3-0.8,0.5c-0.6,0.5-0.9,1.1-1.2,1.8c-0.3,0.7-0.4,1.5-0.5,2.2c0,0.2-0.1,0.5-0.1,0.7c0,0.1,0,0.3,0.1,0.4
		c0.1,0.1,0.2,0.2,0.4,0.2c0,0,2.9,0,3.6,0c0,0,0,0,0,0c0.3,0,0.5-0.2,0.5-0.5C208.4,17.5,208.2,17.2,207.9,17.2z M206.6,9.1
		c0.1-0.1,0.4-0.4,0.7-0.4c0,0,0,0,0,0c0.8,0,1.6,0.8,1.6,1.6c0,0,0,0,0,0c0,0.7-0.5,1.4-1.2,1.6c-0.1,0-0.2,0-0.3,0
		c-0.1,0-0.2,0-0.3-0.1c-0.6-0.3-1-0.9-1-1.5C206.1,9.9,206.3,9.4,206.6,9.1z"/>
	<path d="M222.1,14c-0.5-0.8-1.3-1.4-2.3-1.7c0.8-0.5,1.2-1.3,1.2-2.2c0-1.4-1.2-2.5-2.6-2.6c0,0,0,0,0,0c-0.5,0-1,0.2-1.5,0.7
		c-0.5,0.5-0.8,1.3-0.8,1.9c0.1,0.8,0.5,1.6,1.2,2.1c-0.5,0.2-1,0.4-1.3,0.7c-0.2,0.2-0.2,0.5,0,0.7c0.2,0.2,0.5,0.2,0.7,0
		c0.4-0.4,1.3-0.7,1.8-0.6c0.7,0.1,2,0.5,2.6,1.5c0.5,0.8,0.5,1.9,0.5,2.9c-0.8,0.1-2.2,0-3.2-0.1c-0.3,0-0.6,0-0.9-0.1
		c-0.3,0-0.5,0.2-0.5,0.5c0,0.3,0.2,0.5,0.5,0.5c0.2,0,0.5,0,0.8,0.1c0.9,0.1,1.8,0.1,2.5,0.1c0.6,0,1,0,1.3-0.1
		c0.2-0.1,0.4-0.3,0.4-0.5l0-0.4C222.7,16.3,222.7,15,222.1,14z M217.7,8.8c0.1-0.1,0.4-0.4,0.7-0.4c0,0,0,0,0,0
		c0.8,0,1.6,0.8,1.6,1.6c0,0,0,0,0,0c0,0.7-0.5,1.4-1.2,1.6c-0.1,0-0.2,0-0.3,0c-0.1,0-0.2,0-0.3-0.1c-0.6-0.3-1-0.9-1-1.5
		C217.1,9.7,217.3,9.2,217.7,8.8z"/>
</g>
</svg>
