<?xml version="1.0" encoding="UTF-8" standalone="no"?>
<!DOCTYPE svg PUBLIC "-//W3C//DTD SVG 1.1//EN" "http://www.w3.org/Graphics/SVG/1.1/DTD/svg11.dtd">
<svg width="100%" height="100%" viewBox="0 0 20 20" version="1.1" xmlns="http://www.w3.org/2000/svg" xmlns:xlink="http://www.w3.org/1999/xlink" xml:space="preserve" xmlns:serif="http://www.serif.com/" style="fill-rule:evenodd;clip-rule:evenodd;stroke-linecap:round;stroke-linejoin:round;stroke-miterlimit:1.5;">
    <g transform="matrix(1,0,0,1,0.0569543,0.648044)">
        <path d="M4.385,4.508C4.385,4.508 8.044,4.719 9.896,4.719C11.749,4.719 15.501,4.508 15.501,4.508C15.501,4.508 13.996,6.611 13.334,7.664C12.689,8.692 11.532,10.827 11.532,10.827C11.532,10.827 11.414,12.872 11.414,13.895C11.414,15.007 11.532,17.494 11.532,17.494L8.603,16.662L8.438,10.767C8.438,10.767 7.319,8.786 6.701,7.831C6.025,6.788 4.385,4.508 4.385,4.508Z" style="fill:none;stroke:black;stroke-width:1px;"/>
    </g>
    <g transform="matrix(1,0,0,1,0.515211,-0.374699)">
        <circle cx="7.835" cy="1.98" r="0.609"/>
    </g>
    <g transform="matrix(1,0,0,1,2.77375,1.45196)">
        <circle cx="7.835" cy="1.98" r="0.609"/>
    </g>
    <g transform="matrix(1,0,0,1,5.65425,0.843075)">
        <circle cx="7.835" cy="1.98" r="0.609"/>
    </g>
    <g transform="matrix(1,0,0,1,-1.24119,1.45196)">
        <circle cx="7.835" cy="1.98" r="0.609"/>
    </g>
    <g transform="matrix(1,0,0,1,3.38264,-0.983586)">
        <circle cx="7.835" cy="1.98" r="0.609"/>
    </g>
</svg>
