<?xml version="1.0" encoding="UTF-8" standalone="no"?>
<!DOCTYPE svg PUBLIC "-//W3C//DTD SVG 1.1//EN" "http://www.w3.org/Graphics/SVG/1.1/DTD/svg11.dtd">
<svg width="100%" height="100%" viewBox="0 0 20 20" version="1.1" xmlns="http://www.w3.org/2000/svg" xmlns:xlink="http://www.w3.org/1999/xlink" xml:space="preserve" xmlns:serif="http://www.serif.com/" style="fill-rule:evenodd;clip-rule:evenodd;stroke-linejoin:round;stroke-miterlimit:2;">
    <g transform="matrix(1.81329,0,0,1.89802,12.4284,-0.867145)">
        <path d="M0,10.634C-0.007,10.634 -0.013,10.633 -0.019,10.633C-0.102,10.629 -0.227,10.623 -0.325,10.511C-0.444,10.378 -0.482,10.185 -0.417,9.336C-0.347,8.429 -0.677,8.157 -0.68,8.154C-0.757,8.093 -0.795,7.991 -0.773,7.895C-0.751,7.801 -0.679,7.723 -0.583,7.703L-0.525,7.69C0.297,7.513 1.148,7.33 1.327,6.184C1.511,5.008 1.034,4.546 1.014,4.527C0.932,4.451 0.908,4.328 0.957,4.229C1.132,3.869 1.024,3.489 0.949,3.304C0.405,3.304 0.014,3.731 0.01,3.736C-0.049,3.802 -0.141,3.834 -0.229,3.816C-0.234,3.815 -0.72,3.717 -1.371,3.636C-1.943,3.565 -2.379,3.811 -2.384,3.814C-2.474,3.866 -2.587,3.858 -2.668,3.793C-3.137,3.421 -3.489,3.331 -3.667,3.312C-3.862,3.923 -3.655,4.158 -3.653,4.161C-3.605,4.213 -3.577,4.287 -3.583,4.357C-3.589,4.428 -3.62,4.496 -3.677,4.54C-3.707,4.565 -4.457,5.18 -4.067,6.458C-3.68,7.728 -2.297,7.709 -2.236,7.712C-2.128,7.719 -2.019,7.785 -1.988,7.894C-1.956,8.005 -2.001,8.122 -2.1,8.182C-2.154,8.217 -2.234,8.427 -2.261,8.605C-2.276,8.707 -2.351,8.789 -2.45,8.814C-2.635,8.86 -3.571,9.062 -3.851,8.549C-3.951,8.366 -4.054,8.239 -4.151,8.151C-4.101,8.232 -4.061,8.315 -4.023,8.395C-3.951,8.544 -3.877,8.698 -3.742,8.848C-3.512,9.103 -2.835,9.038 -2.616,8.995C-2.547,8.98 -2.476,8.997 -2.419,9.038C-2.362,9.079 -2.325,9.141 -2.316,9.211C-2.315,9.221 -2.285,9.461 -2.3,9.939C-2.307,10.149 -2.337,10.381 -2.516,10.509C-2.721,10.655 -2.992,10.57 -3.233,10.496C-3.583,10.386 -3.835,10.195 -4.291,9.848C-4.495,9.693 -4.746,9.502 -5.075,9.266C-5.665,8.841 -6.145,7.747 -6.268,6.544C-6.363,5.615 -6.325,3.841 -5.001,2.399C-2.781,-0.021 -0.235,0.97 0.601,1.294C2.705,2.114 3.719,3.804 3.614,6.317C3.558,7.664 3.054,8.764 2.117,9.586C1.26,10.337 0.24,10.634 0,10.634M-0.097,8.113C0.028,8.365 0.134,8.765 0.087,9.375C0.054,9.806 0.054,10.017 0.061,10.12C0.393,10.035 2.983,9.287 3.108,6.296C3.205,3.99 2.325,2.508 0.417,1.766C-0.896,1.254 -2.848,0.801 -4.629,2.741C-5.818,4.037 -5.851,5.647 -5.765,6.492C-5.639,7.719 -5.166,8.577 -4.779,8.855C-4.446,9.095 -4.192,9.288 -3.984,9.446C-3.547,9.778 -3.348,9.93 -3.081,10.013C-2.959,10.051 -2.872,10.074 -2.821,10.081C-2.815,10.052 -2.809,10.004 -2.806,9.924C-2.801,9.762 -2.801,9.632 -2.804,9.53C-3.171,9.564 -3.787,9.554 -4.118,9.187C-4.302,8.982 -4.4,8.778 -4.479,8.614C-4.582,8.399 -4.639,8.292 -4.792,8.223C-4.921,8.165 -5.224,8.029 -5.174,7.761C-5.151,7.635 -5.046,7.48 -4.675,7.459C-4.684,7.458 -3.951,7.31 -3.407,8.307C-3.362,8.39 -3.043,8.408 -2.726,8.354C-2.712,8.301 -2.695,8.242 -2.673,8.182C-3.34,8.066 -4.232,7.653 -4.551,6.605C-4.925,5.377 -4.435,4.615 -4.155,4.303C-4.264,4.068 -4.346,3.641 -4.081,2.969C-4.05,2.89 -3.982,2.832 -3.899,2.815C-3.838,2.8 -3.294,2.706 -2.481,3.3C-2.26,3.206 -1.827,3.069 -1.308,3.134C-0.835,3.193 -0.453,3.259 -0.261,3.294C-0.047,3.101 0.468,2.724 1.146,2.811C1.224,2.821 1.292,2.866 1.332,2.934C1.349,2.962 1.718,3.605 1.477,4.293C1.669,4.552 1.997,5.173 1.827,6.262C1.623,7.57 0.7,7.923 -0.097,8.113" style="fill-rule:nonzero;"/>
    </g>
</svg>
