<svg id="f03551f8-7b12-40c6-9570-e4ce4c61138e" data-name="Ebene 1" xmlns="http://www.w3.org/2000/svg" viewBox="0 0 20 20"><path d="M11.11,11.78a3,3,0,0,0,1.32-2.46A3,3,0,0,0,9.52,6.45a2.12,2.12,0,0,0-1.64.78A3.11,3.11,0,0,0,7,9.42a3.11,3.11,0,0,0,1.22,2.2,3.47,3.47,0,0,0-1.06.64A4.83,4.83,0,0,0,6,14.1a8.18,8.18,0,0,0-.5,2.21c0,.25-.06.49-.1.74a.5.5,0,0,0,.11.39.52.52,0,0,0,.37.19c.76,0,1.52,0,2.28,0s1.49,0,2.23,0c.27,0,.55,0,.83.07a8.77,8.77,0,0,0,1.15.1,3.79,3.79,0,0,0,.94-.12.5.5,0,0,0,.37-.49v-.4a6.69,6.69,0,0,0-.59-3.45A3.9,3.9,0,0,0,11.11,11.78ZM8,9.36a2.08,2.08,0,0,1,.6-1.44,1.29,1.29,0,0,1,.9-.47h0a2,2,0,0,1,1.91,1.89A2,2,0,0,1,10,11.22a1,1,0,0,1-.33,0,1.2,1.2,0,0,1-.4-.14A2.23,2.23,0,0,1,8,9.36Zm3.34,7.37c-.31,0-.61-.07-.91-.08s-.75,0-1.12,0H6.48a1.5,1.5,0,0,0,0-.2,7.29,7.29,0,0,1,.43-2A4.18,4.18,0,0,1,7.85,13a2.61,2.61,0,0,1,1.79-.6,3.64,3.64,0,0,1,2.6,1.48,6,6,0,0,1,.45,2.93A6.18,6.18,0,0,1,11.35,16.73Z"/><path d="M4.67,16.63c-.51,0-2.16,0-3,0l0-.19a6.92,6.92,0,0,1,.42-1.94A4.06,4.06,0,0,1,3,13a2.7,2.7,0,0,1,1.72-.62,3.55,3.55,0,0,1,.85.38.5.5,0,0,0,.71,0,.5.5,0,0,0,0-.7,2.33,2.33,0,0,0-.57-.36,2.63,2.63,0,0,0,1-2A2.63,2.63,0,0,0,4.12,7.1h0a2,2,0,0,0-1.46.69,2.77,2.77,0,0,0-.77,2,2.77,2.77,0,0,0,1.18,2,3.15,3.15,0,0,0-.75.5A5.09,5.09,0,0,0,1.15,14.1a8.18,8.18,0,0,0-.5,2.21c0,.24-.06.49-.1.74a.48.48,0,0,0,.12.4.49.49,0,0,0,.38.18s2.9,0,3.57,0h0a.5.5,0,0,0,.5-.47A.49.49,0,0,0,4.67,16.63ZM3.38,8.48a1.1,1.1,0,0,1,.73-.38h0A1.66,1.66,0,0,1,5.7,9.66h0a1.65,1.65,0,0,1-1.21,1.56.69.69,0,0,1-.27,0,1.1,1.1,0,0,1-.32-.11,1.85,1.85,0,0,1-1-1.47A1.74,1.74,0,0,1,3.38,8.48Z"/><path d="M18.86,13.36a4.06,4.06,0,0,0-2.31-1.71A2.58,2.58,0,0,0,15.2,6.87h0a2,2,0,0,0-1.46.69,2.77,2.77,0,0,0-.77,2,2.8,2.8,0,0,0,1.22,2.05,3.47,3.47,0,0,0-1.25.7.5.5,0,0,0,0,.71.5.5,0,0,0,.71,0,2.56,2.56,0,0,1,1.79-.6A3.64,3.64,0,0,1,18,13.87a5.89,5.89,0,0,1,.45,2.92,26.38,26.38,0,0,1-3.16-.09c-.35,0-.65-.05-.86-.05a.48.48,0,0,0-.52.47.51.51,0,0,0,.48.53c.2,0,.49,0,.83.05.92.06,1.81.12,2.54.12a5.58,5.58,0,0,0,1.32-.12.5.5,0,0,0,.37-.49v-.4A6.69,6.69,0,0,0,18.86,13.36ZM14.45,8.25a1.12,1.12,0,0,1,.74-.38h0a1.66,1.66,0,0,1,1.59,1.56h0A1.64,1.64,0,0,1,15.56,11a.66.66,0,0,1-.27,0,1.17,1.17,0,0,1-.31-.11,1.89,1.89,0,0,1-1-1.47A1.81,1.81,0,0,1,14.45,8.25Z"/></svg>