<svg id="f7349385-77eb-4dd8-828e-4018334ac164" data-name="Ebene 1" xmlns="http://www.w3.org/2000/svg" viewBox="0 0 20 20">
  <path d="M9.91,19.62c-4.47,0-8.65-3.72-9.56-8.54A9.91,9.91,0,0,1,1,6.15a10,10,0,0,1,9-6,9,9,0,0,1,6.55,2.66,9.44,9.44,0,0,1,3.22,6.79,9.77,9.77,0,0,1-9.69,10H9.91Zm.13-.5h0Zm.4-18a2.61,2.61,0,0,0-.4,0A9,9,0,0,0,1.91,6.6a9,9,0,0,0-.58,4.3c.82,4.35,4.57,7.72,8.58,7.72H10a8.8,8.8,0,0,0,8.71-9,8.42,8.42,0,0,0-2.9-6.05A8.28,8.28,0,0,0,10.44,1.17Z"/>
  <g>
    <path d="M10.11,14.56A2.94,2.94,0,0,1,7.6,13a2.53,2.53,0,0,1-.32-1.3A3.5,3.5,0,0,1,9,9.39l.27-.21a8,8,0,0,0,2-2.51,2.49,2.49,0,0,0,.26-2.19,1.92,1.92,0,0,0-1-.75A3.34,3.34,0,0,0,6.79,4.86a.51.51,0,0,1-.7.11A.5.5,0,0,1,6,4.27a4.35,4.35,0,0,1,5-1.47A2.78,2.78,0,0,1,12.4,4a3.34,3.34,0,0,1-.24,3.14A9,9,0,0,1,9.86,10l-.28.23c-.62.49-1.26,1-1.3,1.62a1.48,1.48,0,0,0,.2.76,1.9,1.9,0,0,0,1.84,1,1.45,1.45,0,0,0,1.24-1.42.5.5,0,0,1,.46-.54.52.52,0,0,1,.53.47,2.46,2.46,0,0,1-2.09,2.48A2.07,2.07,0,0,1,10.11,14.56Z"/>
    <path d="M10,17.26a.5.5,0,0,1-.21-.05l-.08,0h0a.37.37,0,0,1-.24-.08.66.66,0,0,1-.3-.57A.68.68,0,0,1,9.51,16a.52.52,0,0,1,.5,0,.8.8,0,0,1,.42,1,.5.5,0,0,1-.28.27A.57.57,0,0,1,10,17.26Z"/>
  </g>
</svg>
