<svg id="bfd19c5f-f607-448a-9ba2-22f6ccb5f97e" data-name="Ebene 1" xmlns="http://www.w3.org/2000/svg" viewBox="0 0 20 20">
  <g>
    <path d="M13.38,6.24a3.44,3.44,0,0,0-.78-.54,5.93,5.93,0,0,0-1.44-.54,5.15,5.15,0,0,0-4.55,1,5.37,5.37,0,0,0-1.3,6.14,4.28,4.28,0,0,0,2.48,2.25,6.26,6.26,0,0,0,1.37.27,11.37,11.37,0,0,0,1.31.09,4.45,4.45,0,0,0,2.26-.52,4.93,4.93,0,0,0,2.12-3.23,5.41,5.41,0,0,0,.15-1,5.55,5.55,0,0,0-.74-2.5A4.49,4.49,0,0,0,13.38,6.24Zm.5,4.63a4.09,4.09,0,0,1-1.65,2.61,4.87,4.87,0,0,1-3,.31,6.59,6.59,0,0,1-1.16-.22,3.34,3.34,0,0,1-1.89-1.73A4.18,4.18,0,0,1,6,9.19,4.15,4.15,0,0,1,7.27,6.88,3.84,3.84,0,0,1,9.81,6a4.9,4.9,0,0,1,1.13.13,4.47,4.47,0,0,1,1.19.44,2.37,2.37,0,0,1,.55.38,3.53,3.53,0,0,1,.68,1.09,4.73,4.73,0,0,1,.64,2A4.55,4.55,0,0,1,13.88,10.87Z"/>
    <path d="M16.39,3.06a1.21,1.21,0,0,0-.25-.17,1.64,1.64,0,0,0-.39-.14A1.4,1.4,0,0,0,14.49,3a1.46,1.46,0,0,0-.36,1.7,1.24,1.24,0,0,0,.73.66,1.27,1.27,0,0,0,.36.07,1.55,1.55,0,0,0,.31,0,1.3,1.3,0,0,0,.65-.16,1.34,1.34,0,0,0,.61-.9,1.92,1.92,0,0,0,.05-.29,1.57,1.57,0,0,0-.19-.69A1.55,1.55,0,0,0,16.39,3.06Zm-.64.83a.53.53,0,0,1,.07.3.45.45,0,0,1-.14.27.83.83,0,0,1-.35,0l-.15,0A.27.27,0,0,1,15,4.31.44.44,0,0,1,15,4a.44.44,0,0,1,.14-.25.38.38,0,0,1,.24-.07h.14l.14,0,.24-.44-.22.45Z"/>
    <path d="M19.16,6.48c-.05-1.32-.1-2.65-.14-4A2.06,2.06,0,0,0,17,.49h0L9,.55c-.43,0-1.13,0-1.57.07-.94.06-1.82,0-2.76,0-.71,0-1.43,0-2.19,0a2,2,0,0,0-2,2.09c0,1.83,0,3.68,0,5.47,0,3-.09,6.1.1,9.25a2.06,2.06,0,0,0,2,1.92l6.78,0c2.94,0,5.57,0,8.05-.06a2.06,2.06,0,0,0,2-2.06C19.41,13.63,19.29,10.16,19.16,6.48ZM17.4,18.33c-4.22.07-8.93.08-14.8,0a1.06,1.06,0,0,1-1-1c-.18-3.11-.14-6.19-.1-9.17,0-1.8,0-3.66,0-5.51a1,1,0,0,1,1-1.07H3.2l1.43,0c.91,0,1.86,0,2.85,0,.41,0,1.09-.07,1.51-.07l8-.06h0a1.06,1.06,0,0,1,1.05,1c0,1.36.09,2.69.14,4,.13,3.66.25,7.13.27,10.75A1.05,1.05,0,0,1,17.4,18.33Z"/>
  </g>
</svg>
