<svg id="b97c6601-d31c-42a4-8631-dddff82c50d7" data-name="Ebene 1" xmlns="http://www.w3.org/2000/svg" viewBox="0 0 20 20">
  <path d="M17.16,7.71A7.93,7.93,0,0,0,9.41.28h0A6,6,0,0,0,5.1,2.36,7.9,7.9,0,0,0,2.85,7.93,8.37,8.37,0,0,0,6.68,14.1h0l0,.27c0,.49.12,1.1.2,1.51a1.89,1.89,0,0,0,.25.66,1.77,1.77,0,0,0,1,.65l0,.95a1.31,1.31,0,0,0,.24.79,1.12,1.12,0,0,0,.44.31,2.69,2.69,0,0,0,1.13.21h.38a3.56,3.56,0,0,0,.76-.09,1.44,1.44,0,0,0,.81-.54,1.6,1.6,0,0,0,.17-1.17l0-.37a1.54,1.54,0,0,0,1.26-1.72,2.59,2.59,0,0,1,0-.41,2,2,0,0,0,0-.84A7.74,7.74,0,0,0,17.16,7.71Zm-8.84,1A1.75,1.75,0,0,0,9,9.93a1.3,1.3,0,0,0,.94.19,1.05,1.05,0,0,0,.69-.46A1.32,1.32,0,0,0,10.82,9a2.86,2.86,0,0,0-.38-1.62h.19a1.51,1.51,0,0,1,.72.15,2.23,2.23,0,0,1,.81,1.07c.4.86-.1,2.21-.59,3.51a13.79,13.79,0,0,0-.63,2A6,6,0,0,1,8.75,14l-.22-.52c-.87-2-1.85-4.31-1.5-5.59a1.36,1.36,0,0,1,1.27-1,2,2,0,0,1,.48.19l-.13.17A2.08,2.08,0,0,0,8.32,8.68Zm1-.12a1,1,0,0,1,.15-.73l0-.06a2,2,0,0,1,.31,1.17.85.85,0,0,1,0,.18.22.22,0,0,1-.22,0A.74.74,0,0,1,9.32,8.56Zm1.79,9.69a.41.41,0,0,1-.24.13,3,3,0,0,1-.53.06A2.51,2.51,0,0,1,9.2,18.3a1.12,1.12,0,0,1,0-.2l0-.75h.08l1.09,0h.75l0,.41A.91.91,0,0,1,11.11,18.25ZM12.37,15a4.65,4.65,0,0,0,0,.58c0,.42-.11.55-.2.62a1.63,1.63,0,0,1-.83.17c-.67,0-1.35,0-2,0C8.39,16.31,8.09,16.13,8,16a1.25,1.25,0,0,1-.1-.31c0-.25-.1-.61-.14-1a4.52,4.52,0,0,0,.45.16h0a7.78,7.78,0,0,0,2.17.34,4.11,4.11,0,0,0,.8-.07l.33-.08h.05a6.32,6.32,0,0,0,.84-.27C12.39,14.84,12.39,14.9,12.37,15ZM12,13.85c.13-.43.29-.89.47-1.37.56-1.49,1.13-3,.56-4.27a3.07,3.07,0,0,0-1.25-1.54,2.62,2.62,0,0,0-1.17-.27,2.85,2.85,0,0,0-.94.12,2.78,2.78,0,0,0-1.2-.6,2.29,2.29,0,0,0-2.44,1.7c-.42,1.5.42,3.63,1.33,5.74a7.35,7.35,0,0,1-3.55-5.5A6.84,6.84,0,0,1,5.83,3,5,5,0,0,1,9.38,1.28h0a6.9,6.9,0,0,1,6.75,6.45A6.73,6.73,0,0,1,12,13.85Z"/>
</svg>
