<?xml version="1.0" encoding="UTF-8" standalone="no"?>
<!DOCTYPE svg PUBLIC "-//W3C//DTD SVG 1.1//EN" "http://www.w3.org/Graphics/SVG/1.1/DTD/svg11.dtd">
<svg width="100%" height="100%" viewBox="0 0 20 20" version="1.1" xmlns="http://www.w3.org/2000/svg" xmlns:xlink="http://www.w3.org/1999/xlink" xml:space="preserve" xmlns:serif="http://www.serif.com/" style="fill-rule:evenodd;clip-rule:evenodd;stroke-linecap:round;stroke-linejoin:round;stroke-miterlimit:1.5;">
    <g transform="matrix(1.39297,0,0,1.41255,-3.78016,-4.36221)">
        <path d="M11.111,9.141C10.619,8.517 8.797,7.492 7.331,8.954C7.331,8.954 5.414,10.721 4.048,12.141C3.993,12.198 2.962,13.694 4.254,15.193C5.547,16.691 6.755,16.277 7.331,16.093C8.213,15.813 9.682,14.031 9.682,14.031" style="fill:none;stroke:black;stroke-width:0.71px;"/>
    </g>
    <g transform="matrix(1.39297,0,0,1.41255,-3.78016,-4.36221)">
        <path d="M8.994,10.79C9.363,11.314 10.512,12.459 12.179,11.277C13.309,10.476 15.167,8.673 16.039,7.492C16.907,6.316 15.589,4.682 14.952,4.345C13.876,3.775 12.704,3.614 11.936,4.251C11.168,4.888 10.244,5.994 10.244,5.994" style="fill:none;stroke:black;stroke-width:0.71px;"/>
    </g>
</svg>
