<svg id="ab3f7115-3689-4d54-b79c-3ba0d611c49b" data-name="Ebene 1" xmlns="http://www.w3.org/2000/svg" viewBox="0 0 20 20"><path d="M14.75,5A4.57,4.57,0,0,0,13.31,2,5.69,5.69,0,0,0,10.42.67,9.3,9.3,0,0,0,8,.7,3.4,3.4,0,0,0,5.58,1.89,4.89,4.89,0,0,0,4.64,3.5l0,.14a8.79,8.79,0,0,0-.38,3.41,21,21,0,0,0,1.5,6.3h0l.12.27a17.65,17.65,0,0,0,3.38,5.54.48.48,0,0,0,.36.16h0a.51.51,0,0,0,.36-.15A17.49,17.49,0,0,0,14,11.89,13.83,13.83,0,0,0,14.75,5Zm-1.69,6.53a17.4,17.4,0,0,1-3.45,6.51,16.9,16.9,0,0,1-2.85-4.85L6.64,13A20.18,20.18,0,0,1,5.21,7a7.8,7.8,0,0,1,.36-3.06l0-.15a4.19,4.19,0,0,1,.76-1.23,2.44,2.44,0,0,1,1.69-.82,8.51,8.51,0,0,1,2.19,0,4.68,4.68,0,0,1,2.38,1.06,3.52,3.52,0,0,1,1.12,2.41A12.84,12.84,0,0,1,13.06,11.57Z"/><path d="M11.2,4.55a1.86,1.86,0,0,0-.41-.29,2.57,2.57,0,0,0-.7-.26,2.5,2.5,0,0,0-2.25.48A2.54,2.54,0,0,0,7,5.9,2.55,2.55,0,0,0,7.2,7.52,2.15,2.15,0,0,0,8.45,8.66a2.85,2.85,0,0,0,.66.13c.2,0,.41,0,.62,0a2.17,2.17,0,0,0,1.13-.27A2.38,2.38,0,0,0,11.92,7a2.91,2.91,0,0,0,.08-.5,2.73,2.73,0,0,0-.35-1.23A2.43,2.43,0,0,0,11.2,4.55ZM11,6.72a1.53,1.53,0,0,1-.59,1,1.91,1.91,0,0,1-1.13.1,2.34,2.34,0,0,1-.46-.09,1.16,1.16,0,0,1-.67-.62,1.57,1.57,0,0,1-.1-1,1.64,1.64,0,0,1,.49-.86,1.41,1.41,0,0,1,.94-.32,2.28,2.28,0,0,1,.44,0,2.2,2.2,0,0,1,.45.17h0a1.06,1.06,0,0,1,.18.13,1.25,1.25,0,0,1,.25.4,2,2,0,0,1,.25.77A1.37,1.37,0,0,1,11,6.72Z"/></svg>