<?xml version="1.0" encoding="UTF-8" standalone="no"?><!DOCTYPE svg PUBLIC "-//W3C//DTD SVG 1.1//EN" "http://www.w3.org/Graphics/SVG/1.1/DTD/svg11.dtd"><svg width="100%" height="100%" viewBox="0 0 20 20" version="1.1" xmlns="http://www.w3.org/2000/svg" xmlns:xlink="http://www.w3.org/1999/xlink" xml:space="preserve" xmlns:serif="http://www.serif.com/" style="fill-rule:evenodd;clip-rule:evenodd;stroke-linecap:round;stroke-linejoin:round;stroke-miterlimit:1.5;"><path d="M10.076,17.76c-0.068,0.021 -0.134,0.043 -0.2,0.065c-0.262,0.088 -0.403,0.371 -0.315,0.633c0.088,0.262 0.371,0.403 0.633,0.315c1.139,-0.382 2.433,-0.605 3.647,-0.982c1.312,-0.407 2.53,-0.993 3.414,-2.071c0.396,-0.481 0.854,-1.235 0.987,-1.968c0.105,-0.582 0.015,-1.152 -0.377,-1.616l-0,-0.001c-0.199,-0.235 -0.431,-0.307 -0.687,-0.302c-0.129,0.003 -0.27,0.037 -0.41,0.059c-0.556,0.088 -1.1,0.201 -1.637,0.37c-1.351,0.428 -2.581,1.214 -3.438,2.358c-0.634,0.846 -1.064,1.898 -1.564,2.83c-0.053,0.098 -0.069,0.207 -0.053,0.31Zm7.072,-4.918c-0.06,0.011 -0.16,0.028 -0.224,0.038c-0.506,0.08 -1.002,0.181 -1.491,0.336c-1.153,0.364 -2.209,1.028 -2.94,2.004c-0.495,0.661 -0.854,1.457 -1.23,2.212c0.754,-0.189 1.533,-0.363 2.282,-0.596c1.123,-0.349 2.18,-0.827 2.937,-1.75l0.001,-0c0.258,-0.315 0.557,-0.773 0.709,-1.25c0.109,-0.345 0.153,-0.706 -0.044,-0.994Z"/><path d="M10.446,9.769c0.793,2.728 -0.333,5.327 -0.51,8.057" style="fill:none;stroke:#000;stroke-width:1px;"/><path d="M9.42,18.436c0.118,0.079 0.269,0.107 0.415,0.064c0.266,-0.076 0.419,-0.353 0.342,-0.618c-0.268,-0.933 -0.535,-1.889 -1.036,-2.731c-0.848,-1.427 -2.424,-2.505 -3.977,-3.025c-0.726,-0.244 -1.456,-0.329 -2.218,-0.259c-0.093,0.008 -0.435,0.014 -0.608,0.06c-0.166,0.043 -0.274,0.129 -0.333,0.198c-0.001,0.001 -0.001,0.002 -0.002,0.003c-0.221,0.265 -0.288,0.771 -0.285,1.095c0.007,0.906 0.454,1.691 1.088,2.311c0.981,0.96 2.536,1.282 3.809,1.634c0.971,0.268 1.798,0.661 2.645,1.202c0.051,0.032 0.105,0.054 0.16,0.066Zm-0.556,-1.452c-0.153,-0.458 -0.335,-0.905 -0.583,-1.321l-0,-0.001c-0.73,-1.228 -2.098,-2.14 -3.435,-2.588c-0.592,-0.198 -1.186,-0.269 -1.808,-0.211l-0.298,0.021l-0.003,0.015c-0.018,0.111 -0.02,0.227 -0.019,0.316c0.005,0.634 0.344,1.171 0.788,1.604l-0,0.001c0.863,0.844 2.254,1.074 3.375,1.384c0.714,0.197 1.357,0.454 1.983,0.78Z"/><path d="M10.119,8.935c-0.379,0.284 -0.76,0.669 -1.18,0.882c-0.52,0.264 -1.174,0.315 -1.748,0.319c-0.212,0.002 -0.452,0.004 -0.649,-0.087c-0.665,-0.305 -0.88,-1.126 -0.63,-1.768c0.179,-0.463 0.759,-0.675 1.2,-0.778c0.141,-0.033 0.284,-0.048 0.428,-0.061c0.02,-0.001 0.145,0.002 0.153,-0.011c0.015,-0.023 -0.052,-0.008 -0.079,-0.012c-0.056,-0.008 -0.113,-0.015 -0.17,-0.021c-0.164,-0.019 -0.33,-0.028 -0.495,-0.031c-0.493,-0.011 -1.083,0.099 -1.548,-0.115c-0.962,-0.443 -0.817,-1.66 -0.24,-2.362c0.431,-0.523 1.627,-0.822 2.243,-0.515c0.21,0.105 0.409,0.258 0.551,0.447c0.017,0.023 0.216,0.309 0.219,0.307c0.008,-0.004 -0.061,-0.233 -0.068,-0.257c-0.072,-0.278 -0.142,-0.558 -0.205,-0.838c-0.204,-0.911 0.064,-1.817 1.085,-2.01c1.118,-0.211 2.286,0.995 1.606,2.077c-0.026,0.042 0.042,-0.092 0.061,-0.138c0.041,-0.094 0.082,-0.189 0.126,-0.282c0.129,-0.28 0.301,-0.548 0.537,-0.75c0.654,-0.559 1.618,-0.493 2.341,-0.094c0.186,0.103 0.365,0.232 0.514,0.384c0.108,0.111 0.206,0.239 0.274,0.378c0.575,1.175 -1.17,1.469 -1.936,1.515c-0.047,0.003 0.094,-0.007 0.141,-0.009c0.092,-0.006 0.184,-0.012 0.275,-0.014c0.278,-0.008 0.557,-0.006 0.834,0.024c0.873,0.095 1.642,0.534 1.902,1.432c0.113,0.392 -0.12,0.659 -0.459,0.838c-0.526,0.278 -1.166,0.33 -1.737,0.176c-0.172,-0.046 -0.34,-0.109 -0.495,-0.195c-0.042,-0.023 -0.157,-0.129 -0.199,-0.129c-0.036,0.001 0.041,0.06 0.062,0.089c0.038,0.055 0.077,0.111 0.118,0.165c0.124,0.163 0.247,0.329 0.36,0.5c0.326,0.495 0.94,1.399 0.57,1.996c-0.62,1.001 -1.788,-0.029 -2.396,-0.447c-0.176,-0.121 -0.354,-0.246 -0.517,-0.384" style="fill:none;stroke:#000;stroke-width:1px;"/><path d="M9.032,6.435c-0.117,0.148 -0.144,0.356 -0.053,0.535c0.329,0.645 0.968,1.109 1.69,1.198c0.565,0.069 1.189,-0.206 1.317,-0.827c0.089,-0.436 -0.096,-1.22 -0.484,-1.723c-0.328,-0.425 -0.779,-0.647 -1.263,-0.53c-0.261,0.062 -0.478,0.209 -0.66,0.406c-0.19,0.208 -0.337,0.478 -0.473,0.698c-0.047,0.076 -0.071,0.159 -0.074,0.243Zm0.943,0.251c0.194,0.264 0.488,0.449 0.816,0.49c0.057,0.007 0.117,0.004 0.172,-0.013c0.016,-0.006 0.039,-0.004 0.043,-0.022c0.048,-0.234 -0.088,-0.643 -0.296,-0.911c-0.07,-0.091 -0.135,-0.195 -0.238,-0.17l-0.001,-0c-0.092,0.022 -0.151,0.1 -0.21,0.176c-0.111,0.142 -0.2,0.308 -0.286,0.45Z"/></svg>