<?xml version="1.0" encoding="UTF-8" standalone="no"?>
<!DOCTYPE svg PUBLIC "-//W3C//DTD SVG 1.1//EN" "http://www.w3.org/Graphics/SVG/1.1/DTD/svg11.dtd">
<svg width="100%" height="100%" viewBox="0 0 84 84" version="1.1" xmlns="http://www.w3.org/2000/svg" xmlns:xlink="http://www.w3.org/1999/xlink" xml:space="preserve" xmlns:serif="http://www.serif.com/" style="fill-rule:evenodd;clip-rule:evenodd;stroke-linejoin:round;stroke-miterlimit:2;">
    <g id="g16">
        <path id="logo-background" d="M41.643,83.285C64.642,83.285 83.287,64.642 83.287,41.643C83.287,18.643 64.642,0 41.643,0C18.644,0 -0,18.644 -0,41.643C-0,64.642 18.644,83.285 41.643,83.285ZM62.856,56.516C63.057,57.163 63.169,57.854 63.169,58.456C63.169,59.571 62.767,59.703 61.809,59.703L54.319,59.703L54.319,56.516L53.206,56.383L53.206,59.703L50.464,59.703L50.642,60.999L53.206,60.999L53.206,63.094L54.319,63.094L54.319,60.998L61.943,60.998C63.659,60.998 64.283,60.262 64.283,58.545C64.283,57.765 64.105,56.893 63.86,56.272L62.856,56.516ZM63.277,37.208C63.256,37.173 63.235,37.138 63.213,37.103L64.06,37.015L64.06,35.901L56.125,35.901C54.097,35.901 52.983,37.015 52.983,39.823C52.983,40.937 53.162,42.297 53.406,43.166L54.498,42.966C54.297,41.962 54.142,40.825 54.142,39.756C54.142,37.974 54.632,37.193 56.125,37.193L58.243,37.193L58.243,40.403C58.243,42.458 58.901,43.507 60.989,43.586C61.368,44.72 62.321,45.337 64.671,45.915C67.042,46.493 67.072,46.616 67.072,47.556C67.072,48.436 66.86,48.801 65.552,48.801C65.095,48.801 64.64,48.777 64.195,48.735C64.094,47.883 63.911,47.064 63.682,46.42L62.635,46.645C62.8,47.252 62.942,47.918 63.035,48.583C62.322,48.464 61.659,48.305 61.084,48.132L60.385,51.384C61.049,51.605 61.889,51.808 62.759,51.963C62.341,52.655 61.571,52.905 60.383,52.905L59.022,52.905L59.022,46.197L56.928,46.197C54.698,46.197 52.982,47.089 52.982,50.142C52.982,53.197 54.698,54.2 56.928,54.2L60.338,54.2C62.087,54.2 63.408,53.662 63.977,52.145C64.612,52.222 65.227,52.266 65.764,52.266C69.991,52.265 71.267,50.593 71.267,47.556C71.267,44.605 70.963,43.696 66.738,42.754C64.975,42.358 64.853,42.236 64.853,41.326C64.853,40.655 65.158,40.322 66.434,40.322C67.588,40.322 69.199,40.505 70.507,40.747L70.901,37.343C69.594,37.009 67.528,36.857 66.403,36.857C65.1,36.857 64.075,36.97 63.277,37.208ZM56.883,52.905C55.055,52.905 54.097,52.171 54.097,50.14C54.097,48.115 55.055,47.467 56.883,47.467L57.863,47.467L57.863,52.905L56.883,52.905ZM35.25,46.794C35.25,50.41 36.922,52.265 39.931,52.265C41.542,52.265 43.457,51.444 44.49,50.777L44.946,51.961L48.38,51.961L48.38,30.502L44.003,31.11L44.003,37.28C43,37.037 41.45,36.855 40.235,36.855C36.77,36.855 35.25,38.831 35.25,42.326L35.25,46.794ZM32.059,37.159L27.682,37.159L27.682,51.961L32.059,51.961L32.059,37.159ZM16.618,44.514L20.57,51.961L25.252,51.961L21.178,44.514L25.069,37.159L20.388,37.159L16.618,44.514ZM16.041,51.961L16.041,30.502L11.664,31.11L11.664,51.961L16.041,51.961ZM44.003,47.309C43.365,47.856 42.21,48.465 41.207,48.465C40.052,48.465 39.627,47.825 39.627,46.793L39.627,42.325C39.627,41.353 40.052,40.653 41.207,40.653C42.119,40.653 43.243,40.836 44.003,41.018L44.003,47.309ZM60.773,42.274C59.74,42.165 59.401,41.66 59.401,40.357L59.401,37.193L62.009,37.193C62.109,37.334 62.203,37.481 62.291,37.633C61.142,38.329 60.75,39.518 60.75,41.294C60.75,41.649 60.756,41.974 60.773,42.274ZM32.059,30.654L27.682,30.654L27.682,35.304L32.059,35.304L32.059,30.654ZM64.06,17.756L55.435,17.756C53.941,17.756 52.982,18.358 52.982,20.052C52.982,21.367 53.606,23.35 54.185,24.598C53.428,24.889 52.982,25.535 52.982,26.695C52.982,28.01 53.629,29.948 54.185,31.108L53.205,31.197L53.205,32.334L64.06,32.334L64.06,31.042L55.435,31.042C54.721,29.682 54.186,27.764 54.186,26.873C54.186,26.115 54.475,25.692 55.278,25.692L64.06,25.692L64.06,24.4L55.435,24.4C54.721,23.04 54.186,21.256 54.186,20.231C54.186,19.473 54.475,19.049 55.278,19.049L64.06,19.049L64.06,17.756Z" style="fill-rule:nonzero;"/>
    </g>
</svg>
