<svg id="ea1cee89-22cb-455f-a1c8-32a4cd5e27c8" data-name="Ebene 1" xmlns="http://www.w3.org/2000/svg" viewBox="0 0 20 20"><path d="M19.77,7.15a3.89,3.89,0,0,0-1.83-1.63l.25-.2a.49.49,0,0,0,.12-.63c-1.1-2-3.41-2.12-4.94-2a.51.51,0,0,0,0-.4,1.71,1.71,0,0,0-1.12-1.09C11,.83,9.14,1.84,8.21,2.42A6.81,6.81,0,0,0,6.43.51a.51.51,0,0,0-.65.05,4.45,4.45,0,0,0-.84,3.3,9.13,9.13,0,0,0-3.43.24.49.49,0,0,0-.31.24.46.46,0,0,0,0,.38,14.76,14.76,0,0,0,.76,2C.31,7.4.15,10.27.15,10.41a.49.49,0,0,0,.21.43h0c-.1.85-.08,1.87.42,2.24a1.6,1.6,0,0,0,1,.35.83.83,0,0,0,.22,0A4.49,4.49,0,0,0,3.3,16.12l.17.19a7.41,7.41,0,0,0,3.1,2.38,8.06,8.06,0,0,0,2.83.49,9.65,9.65,0,0,0,3.14-.54,7.65,7.65,0,0,0,2.14-1.12l.63-.42a4.67,4.67,0,0,0,2.33-3.6,1.36,1.36,0,0,0,.3,0,1.6,1.6,0,0,0,.95-.35c.58-.43.5-1.68.31-2.75a1.09,1.09,0,0,0,.14-.37,3.27,3.27,0,0,0-.55-2l.69-.23a.54.54,0,0,0,.31-.28A.51.51,0,0,0,19.77,7.15ZM2.65,7.53a.51.51,0,0,0,.41-.25.52.52,0,0,0,0-.47s-.48-1-.8-1.86a5.32,5.32,0,0,1,3,.07.51.51,0,0,0,.53,0A.5.5,0,0,0,6,4.5a5.49,5.49,0,0,1,.21-2.87A3.59,3.59,0,0,1,7.47,3.26a.5.5,0,0,0,.3.39.51.51,0,0,0,.49-.06c1-.69,2.82-1.68,3.72-1.41a.77.77,0,0,1,.29.17,5,5,0,0,0-.68.81.5.5,0,0,0,.55.77s3.57-1,5.07.9l-.56.46a.48.48,0,0,0-.18.49.51.51,0,0,0,.36.38,4.08,4.08,0,0,1,1.69,1l-.65.22a.51.51,0,0,0-.32.32.49.49,0,0,0,.07.44,3.64,3.64,0,0,1,.74,1.73c-1.1-.4-3.21-1.36-3.87-2.45a.48.48,0,0,0-.32-.23h-.11a.6.6,0,0,0-.28.08,9.2,9.2,0,0,0-.77.62c-.64-.21-1.44-.63-1.5-1.06a.49.49,0,0,0-.36-.41.51.51,0,0,0-.52.16A7.39,7.39,0,0,1,9.38,7.68a1.78,1.78,0,0,0-1-.95.5.5,0,0,0-.56.16A5.87,5.87,0,0,1,5.11,9l-.26-.73a.47.47,0,0,0-.33-.31A.52.52,0,0,0,4.07,8L3,8.87c-.21.1-.87.41-1.72.77C1.41,8.79,1.78,7.57,2.65,7.53ZM1.88,12.4c-.07.06-.23.06-.45-.09a4,4,0,0,1,0-1.65L2,10.44c-.05.78-.06,1.43,0,2Zm12.89,3.86-.65.44a7.11,7.11,0,0,1-1.9,1,8,8,0,0,1-5.31.05,6.56,6.56,0,0,1-2.69-2.09l-.17-.2c-.84-1-1.35-1.54-1.08-5.23a.54.54,0,0,0,0-.22,4.61,4.61,0,0,0,.51-.26l0,0h0l.06-.05h0l.59-.47.15.42a.52.52,0,0,0,.42.33c1.42.16,3-1.39,3.59-2.12a1.4,1.4,0,0,1,.31.63.55.55,0,0,0,.25.36.52.52,0,0,0,.44,0,5.37,5.37,0,0,0,1.59-1.15A4.53,4.53,0,0,0,13,8.88a.47.47,0,0,0,.48-.13A5.26,5.26,0,0,1,14,8.34a8.72,8.72,0,0,0,2.9,1.95C16.84,14.61,16.06,15.44,14.77,16.26Zm3.53-3.88c-.25.18-.41.18-.46.14l-.08.07c0-.55.09-1.17.1-1.88l.39.14A4.79,4.79,0,0,1,18.3,12.38Z"/><path d="M10.52,15.55a1.88,1.88,0,0,1-2.22,0,.5.5,0,0,0-.65.76,2.79,2.79,0,0,0,1.74.6,3,3,0,0,0,1.66-.5.5.5,0,0,0-.53-.85Z"/><path d="M7.61,13.28a.56.56,0,0,0-.23-.48.51.51,0,0,0-.46-.08h0a.63.63,0,0,0-.51.33.6.6,0,0,0-.06.19.59.59,0,0,0,0,.23.42.42,0,0,0,.12.3.61.61,0,0,0,.26.15A.59.59,0,0,0,7,14a.64.64,0,0,0,.45-.19.61.61,0,0,0,.17-.34A.58.58,0,0,0,7.61,13.28Z"/><path d="M11.94,12.72h0a.61.61,0,0,0-.56.52.46.46,0,0,0,0,.23.39.39,0,0,0,.12.3.61.61,0,0,0,.26.15A.59.59,0,0,0,12,14a.64.64,0,0,0,.45-.19.6.6,0,0,0,.16-.34.61.61,0,0,0,.05-.18.59.59,0,0,0-.23-.48A.53.53,0,0,0,11.94,12.72Z"/></svg>