<?xml version="1.0" encoding="UTF-8" standalone="no"?><!DOCTYPE svg PUBLIC "-//W3C//DTD SVG 1.1//EN" "http://www.w3.org/Graphics/SVG/1.1/DTD/svg11.dtd"><svg width="100%" height="100%" viewBox="0 0 20 20" version="1.1" xmlns="http://www.w3.org/2000/svg" xmlns:xlink="http://www.w3.org/1999/xlink" xml:space="preserve" xmlns:serif="http://www.serif.com/" style="fill-rule:evenodd;clip-rule:evenodd;stroke-linecap:round;stroke-linejoin:round;stroke-miterlimit:1.5;"><path d="M11.41,7.211c1.574,-0.412 2.798,-0.307 4.242,0.245c0.258,0.098 0.547,-0.031 0.646,-0.289c0.098,-0.257 -0.031,-0.547 -0.289,-0.645c-1.652,-0.632 -3.052,-0.75 -4.852,-0.279c-0.267,0.07 -0.427,0.344 -0.357,0.611c0.07,0.267 0.343,0.427 0.61,0.357Z"/><path d="M1.207,5.083c1.467,-1.281 4.574,-1.243 6.412,-0.794c0.961,0.234 2.381,0.629 2.381,0.629c0,0 1.747,-0.715 3.324,-0.765c1.005,-0.031 2.524,0.119 3.732,0.53c0.547,0.186 1.086,0.393 1.573,0.708" style="fill:none;stroke:#000;stroke-width:1px;"/><path d="M1.207,5.083c0.129,1.317 -0.088,3.252 -0,4.572c0.101,1.518 -0.021,6.036 -0,6.674c0.005,0.177 -0.091,0.698 -0,0.847c0.016,0.028 1.345,-0.949 5.341,-0.933c0.787,0.003 1.504,0.13 2.224,0.435c0.25,0.106 0.492,0.229 0.731,0.356c0.049,0.026 0.245,0.126 0.245,0.126c-0,-0 2.311,-0.791 3.853,-0.949c1.837,-0.188 3.388,0.065 5.028,0.809" style="fill:none;stroke:#000;stroke-width:1px;"/><path d="M11.703,9.142c0.895,-0.258 2.864,-0.155 3.925,0.316c0.252,0.112 0.548,-0.001 0.66,-0.254c0.112,-0.252 -0.002,-0.547 -0.254,-0.66c-1.245,-0.553 -3.557,-0.666 -4.608,-0.363c-0.265,0.076 -0.418,0.353 -0.342,0.619c0.076,0.265 0.354,0.418 0.619,0.342Z"/><path d="M11.764,11.085c0.244,-0.105 0.619,-0.045 0.888,-0.059c0.276,-0.014 0.488,-0.249 0.474,-0.525c-0.014,-0.275 -0.25,-0.487 -0.525,-0.473c-0.377,0.019 -0.895,-0.008 -1.236,0.14c-0.253,0.11 -0.369,0.405 -0.259,0.658c0.11,0.253 0.404,0.369 0.658,0.259Z"/><path d="M11.606,12.903c1.072,-0.089 2.722,-0.162 3.719,0.242c0.256,0.103 0.548,-0.02 0.651,-0.276c0.104,-0.256 -0.019,-0.547 -0.275,-0.651c-1.121,-0.454 -2.973,-0.412 -4.178,-0.311c-0.275,0.023 -0.48,0.265 -0.457,0.54c0.023,0.275 0.265,0.479 0.54,0.456Z"/><path d="M18.629,5.391c0,1.759 -0.151,3.571 -0.123,5.332c0.032,2.102 0.071,4.198 0.123,6.297" style="fill:none;stroke:#000;stroke-width:1px;"/><path d="M9.899,4.919c0.064,0.772 0.067,4.026 0.101,4.744c0.037,0.785 0.144,5.451 -0.099,6.987" style="fill:none;stroke:#000;stroke-width:1px;"/></svg>