<?xml version="1.0" encoding="UTF-8" standalone="no"?>
<!DOCTYPE svg PUBLIC "-//W3C//DTD SVG 1.1//EN" "http://www.w3.org/Graphics/SVG/1.1/DTD/svg11.dtd">
<svg width="100%" height="100%" viewBox="0 0 20 20" version="1.1" xmlns="http://www.w3.org/2000/svg" xmlns:xlink="http://www.w3.org/1999/xlink" xml:space="preserve" xmlns:serif="http://www.serif.com/" style="fill-rule:evenodd;clip-rule:evenodd;stroke-linejoin:round;stroke-miterlimit:2;">
    <g transform="matrix(0.587481,0,0,0.596789,0.318293,7.43496)">
        <path d="M5.737,6.338C5.67,6.987 5.624,7.763 5.669,8.472C5.731,9.442 5.839,11.359 5.923,12.866C5.203,12.744 4.356,12.812 3.509,13.112L3.509,13.112C2.362,13.519 1.63,14.312 1.199,15.1C0.871,15.699 0.646,16.278 0.849,16.85C1.052,17.423 1.881,18.017 2.513,18.276C3.344,18.615 4.154,18.382 5.301,17.975C6.448,17.568 6.95,17.12 7.381,16.333C7.708,15.736 7.844,15.017 7.81,14.389C7.785,13.946 7.747,13.256 7.704,12.485C7.623,11.024 7.524,9.272 7.466,8.358C7.43,7.802 7.46,7.2 7.509,6.672L17.143,5.166C17.364,6.091 17.365,7.307 17.351,8.171C17.335,9.151 17.458,10.582 17.371,11.481C16.571,11.239 15.545,11.261 14.52,11.625L14.52,11.625C13.373,12.032 12.717,12.81 12.286,13.597C11.958,14.197 11.657,14.791 11.86,15.363C12.063,15.936 12.377,16.523 13.01,16.781C13.84,17.121 15.395,16.772 16.542,16.365C17.69,15.958 18.307,15.441 18.737,14.654C18.977,14.216 19.117,12.777 19.12,12.522C19.12,12.522 19.071,9.818 19.097,8.23C19.113,7.248 18.78,3.575 18.723,3.211C18.667,2.858 18.589,2.244 18.545,1.959C18.516,1.768 18.472,1.723 18.199,1.763C18.006,1.792 17.764,1.824 17.436,1.875L6.567,3.574C6.292,3.617 6.083,3.682 5.963,3.726C5.887,3.753 5.834,3.844 5.816,3.957C5.765,4.283 5.673,4.959 5.722,5.275C5.765,5.548 5.754,6.006 5.737,6.338Z"/>
    </g>
    <g transform="matrix(0.581027,0.0868439,-0.0882198,0.590232,7.22993,0.254794)">
        <path d="M17.113,1.901L17.265,5.086C17.364,6.33 17.365,7.307 17.351,8.171C17.335,9.151 17.458,10.582 17.371,11.481C16.571,11.239 15.545,11.261 14.52,11.625L14.52,11.625C13.373,12.032 12.717,12.81 12.286,13.597C11.958,14.197 11.657,14.791 11.86,15.363C12.063,15.936 12.377,16.523 13.01,16.781C13.84,17.121 15.395,16.772 16.542,16.365C17.69,15.958 18.307,15.441 18.737,14.654C18.977,14.216 19.117,12.777 19.12,12.522C19.12,12.522 19.071,9.818 19.097,8.23C19.109,7.481 18.999,5.682 18.883,4.465C18.864,4.267 19.659,4.204 20.064,4.666C20.252,4.879 20.461,5.32 20.595,5.764C20.726,6.197 20.793,6.642 20.829,6.837C21.065,8.123 20.447,9.803 20.946,9.958C21.687,10.189 22.301,7.607 22.265,6.706C22.236,5.977 21.729,4.099 21.056,3.565C19.761,2.537 18.618,2.611 18.602,2.495C18.569,2.258 18.567,2.104 18.545,1.959C18.516,1.768 18.472,1.723 18.199,1.763C18.006,1.792 17.44,1.85 17.113,1.901Z"/>
    </g>
</svg>
