<svg id="b2674be6-2f11-44d4-86a0-020b17828e36" data-name="Ebene 1" xmlns="http://www.w3.org/2000/svg" viewBox="0 0 20 20"><path d="M17.17,17a.51.51,0,0,0-.64-.31,6.22,6.22,0,0,1-1.49.27.39.39,0,0,0-.08-.21l-1.19-1.58-.18-2.07A6.91,6.91,0,0,0,15.26,12a.5.5,0,0,0-.65-.75A6.31,6.31,0,0,1,13.5,12l-.09-1a2,2,0,0,0,1.32-1.86h0A2,2,0,0,0,12.79,7.2h0a1.6,1.6,0,0,0-1.13.53,2.07,2.07,0,0,0-.57,1.47,2.13,2.13,0,0,0,1.16,1.71l.16.07.1,1.07c-.34-.19-.69-.38-1-.53a.5.5,0,1,0-.39.92c.34.15.71.36,1.07.56l.45.25.18,2a7.55,7.55,0,0,0-.87,1.37.52.52,0,0,0-.05.24,9.67,9.67,0,0,0-1.42.09c-.33,0-.65.11-1,.18a9.88,9.88,0,0,1-1.11.19,6.11,6.11,0,0,1-1.21,0v0a13.88,13.88,0,0,1-.25-4.1c.05-.89.14-1.78.24-2.66A2.18,2.18,0,0,0,8,10.13a2,2,0,0,0,.69-1.19,2,2,0,0,0,.9-.21,1.91,1.91,0,0,0,.82-.92,3.17,3.17,0,0,0,.06-2.61,3,3,0,0,0-1.3-1.5,2.41,2.41,0,0,0,0-1.33A2.43,2.43,0,0,0,8,.9,2.93,2.93,0,0,0,6.42.61a3.18,3.18,0,0,0-1.76.7,2.54,2.54,0,0,0-.7,1,4.68,4.68,0,0,0-2-.35,1.67,1.67,0,0,0-1.1.4A1.72,1.72,0,0,0,.4,3.66,4.42,4.42,0,0,0,1.17,6.2a1.52,1.52,0,0,0-.42.63,1.88,1.88,0,0,0,0,1.34A2.41,2.41,0,0,0,2.94,9.63a2.48,2.48,0,0,0,1,.79c.13,2.19.17,4.41.12,6.6a6.48,6.48,0,0,0-2.39.22.51.51,0,0,0-.33.63.5.5,0,0,0,.63.32,8.18,8.18,0,0,1,3.52,0,16.5,16.5,0,0,0,2.23.2l.74,0c.41-.05.81-.13,1.21-.21s.6-.13.91-.17a14.64,14.64,0,0,1,2.49,0,10.31,10.31,0,0,0,3.78-.31A.51.51,0,0,0,17.17,17ZM3.66,8.88a.52.52,0,0,0-.46-.29l-.11,0A1.32,1.32,0,0,1,1.72,7.8a.87.87,0,0,1,0-.63A.52.52,0,0,1,2,6.83a.51.51,0,0,0,.36-.35A.51.51,0,0,0,2.29,6,3.35,3.35,0,0,1,1.4,3.67a.84.84,0,0,1,.16-.6A.76.76,0,0,1,2,2.93a2.9,2.9,0,0,1,1.92.52.51.51,0,0,0,.54.11.5.5,0,0,0,.31-.46,1.46,1.46,0,0,1,.52-1,2.19,2.19,0,0,1,1.2-.46,1.87,1.87,0,0,1,1,.17,1.41,1.41,0,0,1,.68.85A1.44,1.44,0,0,1,8.08,3.7a.5.5,0,0,0,.27.73,1.94,1.94,0,0,1,1.2,1.16,2.19,2.19,0,0,1,0,1.79,1.1,1.1,0,0,1-.39.47,1.64,1.64,0,0,1-.83.07A.52.52,0,0,0,7.93,8a.53.53,0,0,0-.17.35,1.24,1.24,0,0,1-.41,1,2.09,2.09,0,0,1-1.17.32,4.69,4.69,0,0,1-1.53-.08A1.55,1.55,0,0,1,3.66,8.88Zm1.4,8.24c.05-2.13,0-4.29-.11-6.43.2,0,.41,0,.62,0l.55,0c-.09.82-.18,1.65-.22,2.47a14.87,14.87,0,0,0,.21,4.08l-.48-.06Zm7-8a1.1,1.1,0,0,1,.31-.71.58.58,0,0,1,.4-.22h0A.95.95,0,0,1,13,10.07a.36.36,0,0,1-.14,0A.38.38,0,0,1,12.7,10,1.16,1.16,0,0,1,12.07,9.13Zm.83,7.79c.13-.24.27-.48.42-.71l.56.74-.77,0Z"/></svg>