<?xml version="1.0" encoding="UTF-8" standalone="no"?><!DOCTYPE svg PUBLIC "-//W3C//DTD SVG 1.1//EN" "http://www.w3.org/Graphics/SVG/1.1/DTD/svg11.dtd"><svg width="100%" height="100%" viewBox="0 0 20 20" version="1.1" xmlns="http://www.w3.org/2000/svg" xmlns:xlink="http://www.w3.org/1999/xlink" xml:space="preserve" xmlns:serif="http://www.serif.com/" style="fill-rule:evenodd;clip-rule:evenodd;stroke-linecap:round;stroke-linejoin:round;stroke-miterlimit:1.5;"><g><path d="M19.35,14.5c-0.012,-0.223 -0.012,-0.447 0,-0.67c-0.004,-2.198 -0.191,-4.393 -0.56,-6.56c-0.019,-0.243 -0.225,-0.433 -0.469,-0.433c-0.017,0 -0.034,0.001 -0.051,0.003l-1.27,0.07c-0,-0.46 -0.08,-0.91 -0.12,-1.4l-0.5,0l0.5,0c-0.035,-0.255 -0.253,-0.447 -0.51,-0.45c-3.14,0 -5.91,0 -8.59,-0.1c-2.19,0 -4.25,-0.1 -6.45,-0.1c-0.24,0.001 -0.447,0.174 -0.49,0.41c-0.187,1.126 -0.24,2.271 -0.16,3.41l-0,5.06c-0.002,0.141 0.056,0.275 0.16,0.37c0.101,0.091 0.234,0.138 0.37,0.13c0.45,-0 0.89,-0.06 1.34,-0.07l0.34,-0l0.11,2.12c-0.001,0.139 0.062,0.272 0.17,0.36c0.089,0.077 0.202,0.12 0.32,0.12l0.06,0c3,-0.36 6.1,-0.43 9.09,-0.49c2,0 4.17,-0.09 6.27,-0.22c0.243,-0.018 0.442,-0.208 0.47,-0.45c0.017,-0.37 0.007,-0.741 -0.03,-1.11Zm-16.82,-1.33l-0.83,-0l0,-4.57c-0.056,-0.93 -0.035,-1.863 0.06,-2.79c2,-0 4,0.05 6,0.1c2.55,0.06 5.19,0.12 8.16,0.1c0.236,1.991 0.299,3.998 0.19,6l0,1.28c-1.93,-0 -3.88,-0 -5.76,-0.09c-1.62,-0 -3.28,-0.09 -4.93,-0.09c-0.96,-0 -1.93,0.01 -2.89,0.06Zm10.1,2.11c-2.84,0.06 -5.76,0.12 -8.65,0.43l-0.07,-1.58c2.15,-0 4.31,-0 6.42,0.07c1.63,0.05 3.31,0.09 5,0.09l1.28,-0c0.241,-0.002 0.446,-0.182 0.48,-0.42c0.032,-0.369 0.032,-0.741 0,-1.11l0,-0.68c0.101,-1.385 0.101,-2.775 -0,-4.16l0.77,-0c0.323,1.963 0.484,3.95 0.48,5.94l0,1.28c-1.88,0.06 -3.83,0.1 -5.71,0.14Z" style="fill-rule:nonzero;"/><circle cx="5.576" cy="9.375" r="2.179" style="fill:none;stroke:#000;stroke-width:0.86px;"/><path d="M10,8.408c0,-0 0.914,-0.108 1.948,-0.044c0.852,0.052 2.071,0.198 2.567,0.176" style="fill:none;stroke:#000;stroke-width:0.86px;"/><path d="M10.016,10.556c-0,0 1.127,-0.066 1.766,0" style="fill:none;stroke:#000;stroke-width:0.86px;"/></g></svg>