<?xml version="1.0" encoding="UTF-8" standalone="no"?><!DOCTYPE svg PUBLIC "-//W3C//DTD SVG 1.1//EN" "http://www.w3.org/Graphics/SVG/1.1/DTD/svg11.dtd"><svg width="100%" height="100%" viewBox="0 0 20 20" version="1.1" xmlns="http://www.w3.org/2000/svg" xmlns:xlink="http://www.w3.org/1999/xlink" xml:space="preserve" xmlns:serif="http://www.serif.com/" style="fill-rule:evenodd;clip-rule:evenodd;stroke-linecap:round;stroke-linejoin:round;stroke-miterlimit:1.5;"><g><path d="M10,2.12c2.269,-0 4.039,1.003 5.478,2.539c1.319,1.409 2.402,3.26 2.402,5.341c0,1.869 -1.011,3.501 -2.1,4.853c-1.445,1.794 -3.299,3.027 -5.78,3.027c-2.193,0 -4.517,-0.496 -5.947,-1.944c-1.404,-1.423 -1.933,-3.78 -1.933,-5.936c-0,-2.179 0.589,-4.152 2.02,-5.579c1.426,-1.422 3.689,-2.301 5.86,-2.301Z" style="fill:none;stroke:#000;stroke-width:1px;"/><path d="M7.142,6.652c0.123,-0.073 0.266,-0.115 0.419,-0.115c0.453,-0 0.822,0.368 0.822,0.822c-0,0.235 -0.084,0.44 -0.247,0.609c-0.16,0.166 -0.557,0.307 -0.811,0.307c-0.453,0 -0.822,-0.368 -0.822,-0.822c0,-0.39 0.273,-0.718 0.639,-0.801Z"/><path d="M12.847,8.275c-0.434,0 -0.787,-0.352 -0.787,-0.786c0,-0.434 0.353,-0.787 0.787,-0.787l0.27,0c0.434,0 0.786,0.353 0.786,0.787c0,0.434 -0.352,0.786 -0.786,0.786l-0.27,0Z"/><path d="M5.13,11.348c-0,0 3.638,6.781 9.459,0.033" style="fill:none;stroke:#000;stroke-width:1px;"/></g></svg>