<?xml version="1.0" encoding="UTF-8" standalone="no"?><!DOCTYPE svg PUBLIC "-//W3C//DTD SVG 1.1//EN" "http://www.w3.org/Graphics/SVG/1.1/DTD/svg11.dtd"><svg width="100%" height="100%" viewBox="0 0 20 20" version="1.1" xmlns="http://www.w3.org/2000/svg" xmlns:xlink="http://www.w3.org/1999/xlink" xml:space="preserve" xmlns:serif="http://www.serif.com/" style="fill-rule:evenodd;clip-rule:evenodd;stroke-linejoin:round;stroke-miterlimit:2;"><path d="M6.593,6.533c0.081,0.18 0.131,0.397 0.211,0.594c0.077,0.191 0.178,0.367 0.318,0.507c0.289,0.291 0.691,0.377 1.079,0.423c0.54,0.065 1.093,0.115 1.636,0.126c0.249,0.005 0.454,-0.193 0.459,-0.441c0.005,-0.249 -0.193,-0.454 -0.441,-0.459c-0.514,-0.01 -1.037,-0.058 -1.547,-0.119c-0.191,-0.023 -0.405,-0.02 -0.547,-0.164c-0.078,-0.078 -0.116,-0.187 -0.155,-0.296c-0.066,-0.185 -0.119,-0.377 -0.193,-0.541c-0.102,-0.227 -0.369,-0.327 -0.595,-0.225c-0.227,0.102 -0.328,0.369 -0.225,0.595Z"/><path d="M6.843,3.723c-0.397,-0.002 -0.793,0.032 -1.19,0.063c-0.472,0.037 -0.974,0.024 -1.436,0.127c-0.357,0.08 -0.68,0.255 -1.002,0.422c-0.451,0.232 -0.935,0.389 -1.394,0.603c-0.106,0.05 -0.212,0.1 -0.32,0.148c0.003,-0.002 0.014,-0.006 0.014,-0.006c0,-0 -0.161,0.07 -0.188,0.089c-0.18,0.125 -0.195,0.289 -0.196,0.365c-0.001,0.087 0.022,0.201 0.082,0.318c0.061,0.122 0.171,0.263 0.226,0.332c0.471,0.588 1.213,0.648 1.903,0.59c0.68,-0.057 1.368,-0.104 2.046,-0.18c0.286,-0.032 0.554,-0.135 0.845,-0.136c0.443,-0.002 0.881,0.13 1.314,0.208c0.322,0.059 0.676,0.047 0.985,0.16c0.273,0.1 0.494,0.333 0.698,0.532c0.357,0.347 0.56,0.827 0.749,1.28c0.027,0.065 0.061,0.14 0.086,0.217c0.007,0.023 0.015,0.063 0.018,0.081c-0.061,0.106 -0.164,0.168 -0.275,0.212c-0.176,0.07 -0.375,0.094 -0.554,0.104c-0.031,0.001 -0.146,0.013 -0.225,0.021c-0.475,-0.367 -1.059,-0.567 -1.617,-0.768c-0.698,-0.252 -1.361,-0.531 -2.102,-0.633c-0.512,-0.071 -1.009,-0.015 -1.521,-0.029c-0.935,-0.025 -2.03,0.58 -2.105,1.594c-0.007,0.092 -0.044,0.315 -0.033,0.45c0.01,0.107 0.041,0.194 0.077,0.256c0.05,0.086 0.138,0.175 0.281,0.221c0.094,0.03 0.282,0.03 0.334,0.029c0.199,-0.002 0.401,-0.016 0.599,0.012c0.293,0.042 0.576,0.134 0.866,0.192c0.469,0.094 0.999,0.16 1.417,0.407c0.285,0.168 0.522,0.433 0.785,0.634c0.241,0.184 0.469,0.384 0.706,0.572c0.155,0.124 0.386,0.218 0.556,0.351c0.315,0.245 0.602,0.528 0.927,0.762c0.397,0.287 0.863,0.444 1.29,0.677c0.359,0.197 0.668,0.462 1.018,0.672c0.191,0.115 0.423,0.164 0.594,0.309c0.268,0.227 0.398,0.565 0.58,0.857c0.301,0.483 0.647,0.938 0.939,1.427c0.128,0.213 0.404,0.282 0.617,0.155c0.214,-0.127 0.283,-0.404 0.156,-0.617c-0.295,-0.494 -0.644,-0.953 -0.948,-1.441c-0.231,-0.37 -0.422,-0.78 -0.762,-1.068c-0.208,-0.176 -0.481,-0.254 -0.713,-0.393c-0.36,-0.217 -0.679,-0.488 -1.049,-0.691c-0.394,-0.215 -0.829,-0.352 -1.195,-0.617c-0.316,-0.228 -0.594,-0.503 -0.901,-0.742c-0.168,-0.131 -0.396,-0.223 -0.549,-0.345c-0.242,-0.192 -0.474,-0.395 -0.719,-0.583c-0.291,-0.222 -0.559,-0.508 -0.874,-0.694c-0.503,-0.297 -1.134,-0.402 -1.699,-0.515c-0.306,-0.061 -0.606,-0.156 -0.916,-0.2c-0.16,-0.023 -0.323,-0.025 -0.485,-0.024c0.022,-0.233 0.175,-0.406 0.366,-0.527c0.24,-0.152 0.542,-0.228 0.815,-0.22c0.479,0.013 0.944,-0.046 1.422,0.02c0.678,0.094 1.283,0.358 1.921,0.588c0.503,0.182 1.042,0.342 1.453,0.701c0.058,0.051 0.163,0.113 0.314,0.126c0.123,0.01 0.361,-0.024 0.428,-0.027c0.603,-0.033 1.305,-0.242 1.598,-0.837c0.082,-0.165 0.101,-0.347 0.071,-0.531c-0.027,-0.172 -0.102,-0.348 -0.162,-0.492c-0.235,-0.563 -0.508,-1.146 -0.951,-1.578c-0.292,-0.284 -0.627,-0.589 -1.017,-0.732c-0.357,-0.13 -0.762,-0.133 -1.134,-0.2c-0.486,-0.088 -0.98,-0.225 -1.478,-0.223c-0.324,0.001 -0.624,0.106 -0.941,0.141c-0.67,0.075 -1.349,0.122 -2.021,0.178c-0.35,0.03 -0.741,0.072 -1.016,-0.146c0.455,-0.208 0.932,-0.367 1.377,-0.597c0.253,-0.131 0.503,-0.28 0.785,-0.342c0.421,-0.094 0.88,-0.075 1.31,-0.108c0.475,-0.037 0.949,-0.083 1.426,-0.051c0.794,0.053 1.596,0.256 2.37,0.431c0.465,0.105 0.938,0.173 1.391,0.325c0.236,0.079 0.491,-0.048 0.57,-0.284c0.079,-0.235 -0.049,-0.49 -0.284,-0.569c-0.482,-0.162 -0.984,-0.239 -1.479,-0.35c-0.596,-0.135 -1.208,-0.283 -1.82,-0.374c0.112,-0.135 0.231,-0.264 0.355,-0.391c0.043,-0.045 0.09,-0.095 0.14,-0.142c0.021,-0.019 0.04,-0.039 0.061,-0.055c0.046,0.02 0.134,0.057 0.177,0.076c0.276,0.121 0.566,0.218 0.857,0.299c0.923,0.257 1.816,0.495 2.689,0.899c0.283,0.13 0.64,0.26 0.878,0.465c0.176,0.15 0.239,0.448 0.306,0.661c0.198,0.626 0.311,1.277 0.594,1.873c0.294,0.616 0.643,1.202 0.918,1.829c0.238,0.541 0.352,1.132 0.595,1.668c0.324,0.717 0.796,1.401 1.235,2.052c0.442,0.654 0.851,1.281 1.408,1.846c0.174,0.177 0.459,0.178 0.636,0.004c0.177,-0.174 0.179,-0.46 0.004,-0.636c-0.517,-0.524 -0.892,-1.11 -1.302,-1.718c-0.411,-0.609 -0.857,-1.248 -1.161,-1.92c-0.242,-0.532 -0.354,-1.12 -0.59,-1.658c-0.279,-0.635 -0.633,-1.229 -0.93,-1.853c-0.266,-0.559 -0.363,-1.172 -0.549,-1.758c-0.112,-0.357 -0.285,-0.822 -0.578,-1.074c-0.297,-0.255 -0.733,-0.435 -1.086,-0.598c-0.918,-0.424 -1.856,-0.679 -2.825,-0.949c-0.251,-0.07 -0.5,-0.152 -0.738,-0.256c-0.091,-0.04 -0.205,-0.098 -0.318,-0.13c-0.146,-0.041 -0.292,-0.046 -0.424,-0.009c-0.248,0.07 -0.47,0.279 -0.643,0.458c-0.282,0.29 -0.543,0.589 -0.763,0.928Z"/><path d="M10.613,2.74c0.052,0.039 0.23,0.175 0.289,0.23c0.439,0.408 0.823,0.874 1.208,1.331c0.16,0.19 0.444,0.214 0.634,0.054c0.19,-0.16 0.214,-0.444 0.054,-0.634c-0.409,-0.485 -0.818,-0.978 -1.283,-1.41c-0.116,-0.108 -0.319,-0.294 -0.517,-0.388c-0.151,-0.073 -0.306,-0.101 -0.446,-0.083c-0.426,0.053 -0.915,0.304 -1.282,0.517c-0.214,0.125 -0.288,0.4 -0.163,0.615c0.125,0.215 0.4,0.288 0.615,0.163c0.258,-0.149 0.589,-0.341 0.891,-0.395Z"/></svg>