<?xml version="1.0" encoding="UTF-8" standalone="no"?>
<!DOCTYPE svg PUBLIC "-//W3C//DTD SVG 1.1//EN" "http://www.w3.org/Graphics/SVG/1.1/DTD/svg11.dtd">
<svg width="100%" height="100%" viewBox="0 0 20 20" version="1.1" xmlns="http://www.w3.org/2000/svg" xmlns:xlink="http://www.w3.org/1999/xlink" xml:space="preserve" xmlns:serif="http://www.serif.com/" style="fill-rule:evenodd;clip-rule:evenodd;stroke-linejoin:round;stroke-miterlimit:2;">
    <path d="M8.376,13.202C8.32,13.368 8.266,13.535 8.215,13.703C7.575,15.777 7.184,17.9 7.184,17.9C7.134,18.171 6.873,18.351 6.601,18.301C6.33,18.251 6.15,17.99 6.2,17.718C6.2,17.718 6.602,15.538 7.259,13.408C7.405,12.934 7.57,12.464 7.735,12.019C7.476,11.403 7.298,10.732 7.225,10.053C7.058,8.493 7.833,7.875 8.439,7.816C9.145,7.747 9.941,8.353 9.712,9.513C9.631,9.919 9.235,10.853 8.812,11.978C9.049,12.455 9.344,12.881 9.679,13.219C10.134,13.678 10.661,13.976 11.22,13.964C11.681,13.954 12.15,13.726 12.611,13.251C13.146,12.699 13.653,11.834 14.11,10.592C14.64,9.151 14.323,7.363 13.134,6.226C12.33,5.459 11.131,5 9.539,5.118C7.839,5.244 6.714,5.779 6.011,6.525C4.98,7.619 4.878,9.136 5.117,10.283C5.217,10.765 5.377,11.182 5.563,11.471C5.644,11.596 5.717,11.697 5.802,11.737C6.051,11.856 6.157,12.155 6.038,12.404C5.919,12.653 5.62,12.759 5.371,12.64C5.157,12.538 4.926,12.327 4.722,12.012C4.483,11.64 4.267,11.107 4.138,10.487C3.842,9.066 4.006,7.194 5.283,5.839C6.12,4.952 7.442,4.271 9.465,4.121C11.4,3.977 12.848,4.57 13.825,5.503C15.305,6.918 15.708,9.143 15.049,10.937C13.966,13.883 12.516,14.936 11.242,14.964C10.425,14.982 9.633,14.594 8.969,13.923C8.757,13.71 8.558,13.467 8.376,13.202ZM8.311,10.525C8.522,9.984 8.683,9.558 8.731,9.319C8.797,8.983 8.667,8.723 8.472,8.833C8.39,8.878 8.329,8.972 8.282,9.1C8.206,9.308 8.181,9.588 8.219,9.947C8.24,10.141 8.271,10.334 8.311,10.525Z"/>
    <path d="M4.491,18.117C1.857,16.392 0.156,13.38 0.156,10C0.156,4.605 4.541,0.225 9.944,0.225C15.346,0.225 19.732,4.605 19.732,10C19.732,15.395 15.346,19.775 9.944,19.775C9.188,19.775 8.453,19.689 7.747,19.527C7.46,19.461 7.494,19.09 7.591,18.906C7.667,18.761 7.855,18.535 8.254,18.613C8.801,18.719 9.366,18.775 9.944,18.775C14.794,18.775 18.732,14.843 18.732,10C18.732,5.157 14.794,1.225 9.944,1.225C5.094,1.225 1.156,5.157 1.156,10C1.156,13.051 2.714,15.746 5.087,17.312C5.346,17.483 5.295,17.846 5.201,17.982C5.098,18.133 4.799,18.319 4.491,18.117Z"/>
</svg>
