<?xml version="1.0" encoding="UTF-8" standalone="no"?><!DOCTYPE svg PUBLIC "-//W3C//DTD SVG 1.1//EN" "http://www.w3.org/Graphics/SVG/1.1/DTD/svg11.dtd"><svg width="100%" height="100%" viewBox="0 0 20 20" version="1.1" xmlns="http://www.w3.org/2000/svg" xmlns:xlink="http://www.w3.org/1999/xlink" xml:space="preserve" xmlns:serif="http://www.serif.com/" style="fill-rule:evenodd;clip-rule:evenodd;stroke-linecap:round;stroke-linejoin:round;stroke-miterlimit:1.5;"><path d="M16.874,8.547c-0.357,-0.642 -0.904,-1.147 -1.56,-1.441l0.213,-0.176c0.162,-0.133 0.206,-0.372 0.102,-0.557c-0.937,-1.768 -2.906,-1.874 -4.211,-1.768c0.047,-0.113 0.047,-0.241 0,-0.354c-0.149,-0.461 -0.505,-0.82 -0.954,-0.963c-1.066,-0.327 -2.651,0.566 -3.444,1.078c-0.396,-0.659 -0.911,-1.232 -1.517,-1.688c-0.17,-0.125 -0.404,-0.106 -0.554,0.044c-0.602,0.835 -0.86,1.885 -0.716,2.917c-0.979,-0.122 -1.971,-0.05 -2.924,0.212c-0.113,0.03 -0.208,0.107 -0.264,0.212c-0.047,0.107 -0.047,0.23 -0,0.336c0.174,0.605 0.391,1.196 0.648,1.768c-1.407,0.601 -1.543,3.138 -1.543,3.261c-0.008,0.151 0.06,0.295 0.179,0.381c-0.085,0.751 -0.068,1.652 0.358,1.979c0.242,0.201 0.543,0.31 0.852,0.31c0.063,0.008 0.126,0.008 0.188,-0c0.097,0.9 0.488,1.739 1.108,2.377l0.145,0.168c0.683,0.934 1.596,1.661 2.642,2.104c0.773,0.293 1.59,0.44 2.412,0.433c0.912,-0.004 1.816,-0.165 2.677,-0.477c0.655,-0.228 1.27,-0.562 1.824,-0.99l0.537,-0.371c1.119,-0.664 1.861,-1.852 1.986,-3.182c0.085,0.009 0.171,0.009 0.256,-0c0.295,-0.01 0.579,-0.118 0.81,-0.31c0.494,-0.38 0.426,-1.485 0.264,-2.43c0.059,-0.101 0.099,-0.212 0.119,-0.327c0.033,-0.627 -0.132,-1.247 -0.469,-1.768l0.589,-0.203c0.116,-0.043 0.211,-0.132 0.264,-0.248c0.034,-0.107 0.028,-0.224 -0.017,-0.327Zm-14.593,0.336c0.144,-0.009 0.276,-0.092 0.349,-0.221c0.064,-0.131 0.064,-0.285 0,-0.415c-0.063,-0.131 -0.409,-0.884 -0.682,-1.644c0.841,-0.235 1.729,-0.213 2.558,0.061c0.138,0.088 0.313,0.088 0.451,0c0.145,-0.1 0.216,-0.283 0.179,-0.459c-0.159,-0.847 -0.097,-1.723 0.179,-2.537c0.486,0.361 0.86,0.862 1.074,1.441c0.021,0.153 0.119,0.284 0.256,0.344c0.139,0.058 0.297,0.038 0.418,-0.053c0.852,-0.609 2.403,-1.484 3.171,-1.246c0.092,0.031 0.176,0.082 0.247,0.15c-0.217,0.217 -0.412,0.457 -0.58,0.716c-0.052,0.075 -0.079,0.165 -0.079,0.258c-0,0.242 0.192,0.442 0.426,0.442c0.041,-0 0.082,-0.007 0.122,-0.019c0.04,-0.012 3.043,-0.884 4.322,0.795l-0.478,0.407c-0.128,0.1 -0.189,0.27 -0.153,0.433c0.035,0.162 0.153,0.291 0.307,0.336c0.542,0.169 1.037,0.472 1.44,0.884l-0.554,0.194c-0.128,0.045 -0.229,0.15 -0.273,0.283c-0.041,0.132 -0.019,0.277 0.06,0.389c0.336,0.444 0.553,0.971 0.631,1.529c-0.938,-0.353 -2.736,-1.202 -3.299,-2.165c-0.059,-0.105 -0.158,-0.179 -0.273,-0.204l-0.093,0c-0.084,0.003 -0.166,0.028 -0.239,0.071c-0.228,0.17 -0.447,0.353 -0.656,0.548c-0.546,-0.186 -1.228,-0.557 -1.279,-0.937c-0.022,-0.174 -0.144,-0.317 -0.307,-0.362c-0.161,-0.045 -0.334,0.01 -0.443,0.141c-0.319,0.365 -0.676,0.691 -1.066,0.972c-0.163,-0.387 -0.471,-0.69 -0.852,-0.839c-0.171,-0.064 -0.364,-0.007 -0.477,0.141c-0.574,0.847 -1.378,1.496 -2.31,1.865l-0.222,-0.645c-0.042,-0.135 -0.149,-0.239 -0.281,-0.274c-0.126,-0.049 -0.268,-0.036 -0.384,0.035l-0.912,0.769c-0.179,0.089 -0.741,0.363 -1.466,0.681c0.111,-0.751 0.426,-1.83 1.168,-1.865Zm-0.656,4.304c-0.06,0.053 -0.197,0.053 -0.384,-0.079c-0.098,-0.481 -0.098,-0.978 -0,-1.459l0.486,-0.194c-0.043,0.689 -0.051,1.264 -0,1.768l-0.102,-0.036Zm10.987,3.412l-0.554,0.389c-0.494,0.378 -1.04,0.676 -1.62,0.884c-1.459,0.548 -3.057,0.564 -4.526,0.044c-0.908,-0.396 -1.699,-1.033 -2.293,-1.847l-0.145,-0.177c-0.716,-0.884 -1.151,-1.361 -0.92,-4.623c0.012,-0.064 0.012,-0.13 -0,-0.194c0.149,-0.067 0.294,-0.144 0.434,-0.23l0.051,-0.044l0.503,-0.416l0.128,0.372c0.059,0.158 0.196,0.27 0.358,0.291c1.211,0.142 2.557,-1.228 3.06,-1.873c0.133,0.159 0.224,0.351 0.265,0.556c0.025,0.132 0.102,0.248 0.213,0.319c0.118,0.057 0.256,0.057 0.375,-0c0.508,-0.25 0.967,-0.595 1.355,-1.017c0.5,0.512 1.125,0.872 1.807,1.043c0.146,0.046 0.305,0.001 0.409,-0.115c0.14,-0.13 0.289,-0.251 0.443,-0.362c0.704,0.741 1.545,1.328 2.472,1.723c-0.051,3.819 -0.716,4.552 -1.815,5.277Zm3.009,-3.429c-0.213,0.159 -0.35,0.159 -0.392,0.123l-0.069,0.062c0,-0.486 0.077,-1.034 0.086,-1.661l0.332,0.123c0.084,0.446 0.099,0.902 0.043,1.353Z" style="fill-rule:nonzero;"/><path d="M8.989,15.972c-0.562,0.426 -1.33,0.426 -1.892,-0c-0.077,-0.069 -0.176,-0.107 -0.277,-0.107c-0.234,0 -0.426,0.2 -0.426,0.442c-0,0.13 0.054,0.252 0.149,0.336c0.422,0.346 0.945,0.533 1.483,0.531c0.503,-0 0.996,-0.154 1.415,-0.442c0.125,-0.081 0.201,-0.223 0.201,-0.376c-0,-0.243 -0.193,-0.443 -0.427,-0.443c-0.08,0 -0.158,0.024 -0.226,0.067l0,-0.008Z" style="fill-rule:nonzero;"/><path d="M6.509,13.965c0.007,-0.166 -0.066,-0.326 -0.196,-0.424c-0.112,-0.088 -0.259,-0.114 -0.392,-0.071c-0.184,0.014 -0.348,0.124 -0.435,0.292c-0.026,0.053 -0.043,0.109 -0.051,0.168c-0.013,0.067 -0.013,0.136 -0,0.203c-0.002,0.099 0.035,0.195 0.102,0.265c0.062,0.063 0.138,0.108 0.222,0.133c0.07,0.042 0.149,0.067 0.23,0.071c0.144,-0.002 0.282,-0.062 0.383,-0.168c0.078,-0.082 0.129,-0.187 0.145,-0.301c0.006,-0.056 0.003,-0.113 -0.008,-0.168Z" style="fill-rule:nonzero;"/><path d="M10.2,13.47c-0.243,0.018 -0.443,0.21 -0.478,0.46c-0.016,0.066 -0.016,0.136 0,0.203c-0.004,0.1 0.033,0.196 0.102,0.265c0.063,0.063 0.139,0.108 0.222,0.133c0.063,0.038 0.132,0.063 0.205,0.071c0.144,-0.002 0.282,-0.062 0.383,-0.168c0.076,-0.083 0.123,-0.188 0.137,-0.301c0.022,-0.05 0.036,-0.104 0.042,-0.159c0.004,-0.166 -0.069,-0.323 -0.196,-0.424c-0.117,-0.097 -0.274,-0.127 -0.417,-0.08Z" style="fill-rule:nonzero;"/><path d="M18.694,1.658l-0,4.086" style="fill:none;stroke:#000;stroke-width:1px;"/><path d="M18.61,7.947c0.028,-0.049 0.056,-0.098 0.084,-0.146" style="fill:none;stroke:#000;stroke-width:1px;"/></svg>