<?xml version="1.0" encoding="UTF-8" standalone="no"?><!DOCTYPE svg PUBLIC "-//W3C//DTD SVG 1.1//EN" "http://www.w3.org/Graphics/SVG/1.1/DTD/svg11.dtd"><svg width="100%" height="100%" viewBox="0 0 20 20" version="1.1" xmlns="http://www.w3.org/2000/svg" xmlns:xlink="http://www.w3.org/1999/xlink" xml:space="preserve" xmlns:serif="http://www.serif.com/" style="fill-rule:evenodd;clip-rule:evenodd;stroke-linejoin:round;stroke-miterlimit:2;"><path d="M18.34,5.54c-0.404,-0.964 -0.972,-1.851 -1.68,-2.62c-0.437,-0.4 -0.929,-0.737 -1.46,-1c-0.874,-0.456 -1.806,-0.792 -2.77,-1c-3.015,-0.834 -6.255,-0.172 -8.7,1.78c-1.609,1.437 -2.711,3.356 -3.14,5.47c-0.467,2.108 -0.239,4.312 0.65,6.28c0.915,1.999 2.606,3.541 4.68,4.27c0.862,0.267 1.751,0.442 2.65,0.52c0.859,0.11 1.724,0.17 2.59,0.18c1.493,0.051 2.973,-0.294 4.29,-1c1.89,-1.08 3.28,-3.22 4,-6.19c0.171,-0.623 0.269,-1.264 0.29,-1.91c-0.085,-1.681 -0.565,-3.319 -1.4,-4.78Zm0.16,6.46c-0.5,1.88 -1.5,4.37 -3.5,5.57c-1.79,1 -4.07,0.93 -6.26,0.68c-0.831,-0.072 -1.652,-0.23 -2.45,-0.47c-1.83,-0.654 -3.323,-2.017 -4.14,-3.78c-0.798,-1.771 -1.002,-3.754 -0.58,-5.65c0.393,-1.892 1.381,-3.61 2.82,-4.9c1.51,-1.256 3.427,-1.921 5.39,-1.87c0.818,0.002 1.633,0.095 2.43,0.28c0.878,0.195 1.726,0.508 2.52,0.93c0.463,0.22 0.89,0.506 1.27,0.85c0.613,0.697 1.101,1.496 1.44,2.36c0.765,1.323 1.217,2.805 1.32,4.33c-0.027,0.564 -0.114,1.124 -0.26,1.67Z" style="fill-rule:nonzero;"/><path d="M3.031,7.524c-0.019,0.016 -0.161,0.137 -0.227,0.201c-0.096,0.094 -0.163,0.194 -0.196,0.287c-0,0 -0,0 -0,0c-0.102,0.282 -0.056,0.59 0.022,0.892c0.021,0.081 0.043,0.162 0.056,0.241c0.008,0.048 0.025,0.099 -0.024,0.135c0,-0 0,-0 -0,0c-0.046,0.034 -0.107,0.032 -0.171,0.031c-0.085,-0 -0.175,-0.013 -0.265,-0.031c-0.293,-0.058 -0.59,-0.164 -0.801,-0.208c-0.243,-0.052 -0.482,0.104 -0.533,0.347c-0.052,0.243 0.104,0.482 0.347,0.533c0.266,0.056 0.661,0.201 1.023,0.245c0.356,0.042 0.686,-0.011 0.932,-0.191c0.369,-0.27 0.437,-0.601 0.387,-0.964c-0.019,-0.137 -0.059,-0.28 -0.095,-0.423c-0.022,-0.087 -0.055,-0.175 -0.043,-0.258c0.071,-0.062 0.287,-0.255 0.351,-0.359c-0,-0 -0,-0.001 -0,-0.001c0.166,-0.275 0.243,-0.579 0.439,-0.844c0,0 0.001,-0 0.001,-0c0.302,-0.409 0.733,-0.75 0.993,-1.185c0,-0 0,-0 0,-0c0.204,-0.341 0.288,-0.731 0.319,-1.122c-0,-0 -0,-0.001 -0,-0.001c0.023,-0.308 0.01,-0.652 -0.144,-0.93c-0.001,-0 -0.001,-0.001 -0.001,-0.001c-0.22,-0.395 -0.638,-0.766 -0.973,-1.063c-0.186,-0.164 -0.471,-0.147 -0.636,0.038c-0.164,0.186 -0.147,0.471 0.038,0.636c0.265,0.235 0.61,0.514 0.785,0.826c0.069,0.127 0.044,0.286 0.033,0.426c-0.019,0.252 -0.061,0.508 -0.193,0.729c-0.246,0.411 -0.659,0.726 -0.944,1.111c-0.211,0.284 -0.303,0.607 -0.48,0.903Z"/><path d="M5.227,12.977c-0.006,0.08 -0.021,0.292 -0.011,0.394c0,0 0,0.001 0,0.001c0.019,0.182 0.084,0.351 0.166,0.514c0.044,0.087 0.099,0.169 0.133,0.259c-0.204,0.181 -0.433,0.332 -0.58,0.569c-0.236,0.378 -0.319,0.817 -0.389,1.258c-0.051,0.32 -0.09,0.642 -0.258,0.911c-0.132,0.21 -0.069,0.488 0.142,0.62c0.21,0.132 0.488,0.069 0.62,-0.142c0.233,-0.37 0.314,-0.806 0.385,-1.247c0.051,-0.322 0.092,-0.648 0.264,-0.924c0,-0 0,-0.001 0.001,-0.001c0.104,-0.168 0.284,-0.256 0.429,-0.385c0,-0.001 0.001,-0.001 0.002,-0.002c0.065,-0.06 0.177,-0.175 0.236,-0.286c0.061,-0.114 0.083,-0.231 0.073,-0.336c0,-0.001 0,-0.001 -0,-0.002c-0.018,-0.186 -0.083,-0.356 -0.164,-0.521c-0.062,-0.125 -0.15,-0.239 -0.164,-0.377c-0.011,-0.104 0.021,-0.232 0.018,-0.348c-0.006,-0.196 -0.064,-0.372 -0.193,-0.516c-0,0 -0.001,-0 -0.001,-0c-0.201,-0.222 -0.47,-0.374 -0.754,-0.506c-0.2,-0.094 -0.409,-0.175 -0.577,-0.301c0,0 -0,0 -0,-0c-0.25,-0.186 -0.506,-0.425 -0.786,-0.603c-0.237,-0.151 -0.491,-0.261 -0.765,-0.295c-0.25,-0.033 -0.484,0.057 -0.725,0.106c-0.431,0.086 -0.867,0.16 -1.28,0.316c-0.232,0.088 -0.349,0.348 -0.261,0.581c0.088,0.232 0.348,0.349 0.581,0.261c0.366,-0.139 0.754,-0.2 1.137,-0.276l0.26,-0.067c0.057,-0.015 0.113,-0.036 0.173,-0.029c0.001,0 0.001,0 0.001,0c0.187,0.024 0.351,0.125 0.509,0.239c0.217,0.156 0.419,0.341 0.618,0.489c0.215,0.16 0.478,0.274 0.734,0.394c0.154,0.072 0.308,0.143 0.426,0.252Z"/><path d="M8.798,5.705c0.018,0.009 0.035,0.02 0.045,0.03c0.02,0.039 0.127,0.238 0.204,0.308c0.087,0.078 0.204,0.132 0.344,0.141c0.141,0.009 0.322,-0.042 0.416,-0.088c0.316,-0.153 0.427,-0.354 0.493,-0.582c0.025,-0.084 0.029,-0.179 0.065,-0.276c0.061,-0.011 0.248,-0.04 0.318,-0.019c0.338,0.104 0.612,0.358 0.884,0.573c0.336,0.266 0.721,0.458 1.003,0.79c-0,0 -0,0 0,0c0.56,0.66 0.994,1.364 1.63,1.961c0,0 0,0.001 0.001,0.001c0.245,0.23 0.486,0.476 0.79,0.633c0.435,0.225 0.778,0.103 1.043,-0.172c0.248,-0.258 0.403,-0.72 0.461,-1.01c0.074,0.024 0.142,0.06 0.226,0.12c0,0 0.001,0 0.001,0c0.351,0.251 0.669,0.547 0.984,0.841c0,0 0,0 0,0c0.313,0.292 0.567,0.546 1.016,0.591c0.247,0.024 0.468,-0.156 0.493,-0.403c0.024,-0.247 -0.156,-0.468 -0.403,-0.493c-0.102,-0.01 -0.172,-0.06 -0.239,-0.116c-0.085,-0.071 -0.164,-0.154 -0.253,-0.237c-0.343,-0.32 -0.693,-0.642 -1.075,-0.915c-0.294,-0.21 -0.475,-0.269 -0.825,-0.323c-0.06,-0.009 -0.183,-0.041 -0.269,-0.041c-0.076,0.001 -0.144,0.016 -0.2,0.038c-0.08,0.031 -0.194,0.097 -0.262,0.257c-0.032,0.076 -0.071,0.451 -0.077,0.507c-0.018,0.089 -0.047,0.204 -0.091,0.317c-0.019,0.049 -0.041,0.098 -0.066,0.144c-0.016,0.028 -0.045,0.064 -0.064,0.088c-0.223,-0.119 -0.393,-0.313 -0.576,-0.484c-0.61,-0.572 -1.021,-1.253 -1.559,-1.886c-0.32,-0.378 -0.747,-0.61 -1.131,-0.914c0,0 0,0 0,-0c-0.358,-0.283 -0.734,-0.591 -1.178,-0.727c-0,-0 -0,-0 -0.001,-0c-0.198,-0.061 -0.535,-0.078 -0.811,0.002c-0.258,0.075 -0.462,0.231 -0.562,0.442c-0.048,0.1 -0.077,0.198 -0.099,0.293c-0.124,-0.12 -0.297,-0.229 -0.477,-0.282c-0.2,-0.059 -0.403,-0.051 -0.573,0.026c-0,0 -0,0 -0.001,0.001c-0.143,0.065 -0.26,0.175 -0.352,0.315c-0.071,0.109 -0.123,0.24 -0.178,0.339c0,0 0,0 0,0c-0.136,0.246 -0.381,0.335 -0.629,0.442c-0.008,0.004 -0.018,0.008 -0.028,0.012c0.005,-0.066 0.033,-0.135 0.052,-0.204c0.037,-0.141 0.075,-0.281 0.089,-0.408c0,0 0,0 0,0c0.022,-0.195 0.026,-0.391 0.041,-0.584c0.015,-0.204 0.039,-0.405 0.164,-0.585c-0,-0 -0,-0.001 0,-0.001c0.237,-0.343 0.577,-0.436 0.922,-0.534c0.325,-0.092 0.659,-0.18 0.974,-0.346c0,0 0.001,0 0.001,0c0.685,-0.361 0.953,-0.941 1.307,-1.578c0.121,-0.218 0.043,-0.492 -0.174,-0.612c-0.218,-0.121 -0.492,-0.043 -0.612,0.174c-0.266,0.479 -0.426,0.949 -0.941,1.22c-0.335,0.176 -0.698,0.238 -1.036,0.347c-0.451,0.146 -0.863,0.358 -1.181,0.817c-0.333,0.48 -0.298,1.034 -0.359,1.582c-0.017,0.149 -0.082,0.32 -0.114,0.485c-0.038,0.192 -0.041,0.381 0.009,0.552c0,0 0,0 0,0c0.088,0.3 0.25,0.455 0.424,0.537c0.219,0.104 0.511,0.087 0.822,-0.048c-0,-0 -0,-0 -0,-0c0.432,-0.189 0.819,-0.402 1.057,-0.832c0.03,-0.054 0.082,-0.157 0.117,-0.226Zm7.145,1.355l0.012,-0.005l-0.012,0.005Z"/><path d="M6.927,7.984c-0.006,0.019 -0.01,0.038 -0.014,0.058c-0.054,0.304 -0.132,0.622 -0.148,0.931c-0.047,0.888 0.487,1.472 1.172,1.949c0.203,0.142 0.437,0.234 0.6,0.426c0.154,0.183 0.219,0.39 0.288,0.598c0.063,0.192 0.126,0.385 0.218,0.574c0.06,0.126 0.145,0.234 0.241,0.334c0.069,0.072 0.151,0.134 0.2,0.221c0.074,0.13 0.032,0.275 0.007,0.418c-0.033,0.185 -0.072,0.37 -0.079,0.547c0,0 0,0.001 0,0.001c-0.026,0.786 0.332,1.856 0.955,2.37c-0,0 -0,0 -0,0c0.658,0.543 1.815,0.462 2.11,-0.482c0.054,-0.171 0.061,-0.349 0.051,-0.528c-0.006,-0.125 -0.041,-0.252 0.003,-0.367c0,-0.001 0,-0.001 0.001,-0.002c0.027,-0.074 0.082,-0.118 0.136,-0.159c0.075,-0.055 0.155,-0.103 0.231,-0.155c0.207,-0.139 0.389,-0.301 0.501,-0.547c0.174,-0.382 0.135,-0.786 0.143,-1.192c-0,0 -0,-0 -0,-0c0.004,-0.202 0.067,-0.412 0.139,-0.6c0.065,-0.167 0.186,-0.292 0.327,-0.398c0,-0 0.001,-0 0.001,-0.001c0.092,-0.069 0.222,-0.15 0.322,-0.245c0.127,-0.122 0.215,-0.265 0.248,-0.422c0,-0 0,-0.001 0.001,-0.001c0.119,-0.576 -0.277,-1.072 -0.673,-1.412c-0.315,-0.27 -0.585,-0.517 -0.804,-0.874c-0.186,-0.304 -0.353,-0.655 -0.559,-0.968c-0.253,-0.381 -0.563,-0.708 -0.991,-0.896c-0,-0 -0.001,-0 -0.001,-0c-0.265,-0.116 -0.545,-0.129 -0.833,-0.1c-0.265,0.028 -0.537,0.114 -0.796,0.055c-0,0 -0,0 -0.001,0c-0.38,-0.086 -0.711,-0.332 -1.098,-0.404c0,-0 0,-0 0,-0c-0.366,-0.068 -0.795,0.024 -1.151,0.237c-0.368,0.22 -0.65,0.565 -0.736,0.952c-0.006,0.027 -0.01,0.055 -0.011,0.082Zm6.777,3.102c0,-0.089 -0.055,-0.164 -0.111,-0.234c-0.08,-0.101 -0.179,-0.19 -0.271,-0.268c-0,-0.001 -0,-0.001 -0.001,-0.001c-0.388,-0.335 -0.714,-0.646 -0.984,-1.087c-0.001,0 -0.001,0 -0.001,-0c-0.181,-0.296 -0.341,-0.637 -0.542,-0.941c-0.156,-0.236 -0.336,-0.453 -0.601,-0.569c-0.214,-0.093 -0.447,-0.021 -0.681,0.011c-0.265,0.037 -0.531,0.056 -0.788,-0.002c-0.217,-0.05 -0.422,-0.142 -0.626,-0.236c-0.142,-0.065 -0.283,-0.133 -0.437,-0.162c-0.168,-0.031 -0.361,0.027 -0.524,0.125c-0.151,0.091 -0.285,0.218 -0.321,0.376c-0.003,0.013 -0.006,0.026 -0.01,0.039c-0.001,0.021 -0.003,0.042 -0.007,0.063c-0.048,0.268 -0.122,0.548 -0.136,0.819c0,0 0,0.001 0,0.001c-0.029,0.549 0.365,0.869 0.788,1.164c0,-0 0,-0 0.001,-0c0.266,0.186 0.558,0.33 0.771,0.582c0,0 0.001,0 0.001,0c0.199,0.237 0.315,0.493 0.409,0.759c0.07,0.2 0.124,0.406 0.22,0.604c0,0 0,0.001 0.001,0.001c0.038,0.08 0.111,0.133 0.173,0.196c0.091,0.093 0.176,0.191 0.24,0.305c0,0 0.001,0 0.001,0.001c0.13,0.23 0.165,0.474 0.148,0.724c-0.017,0.239 -0.096,0.485 -0.104,0.716c-0.018,0.541 0.198,1.291 0.627,1.645c0.122,0.1 0.291,0.151 0.444,0.132c0.104,-0.014 0.198,-0.071 0.236,-0.189c-0,-0.001 -0,-0.001 -0,-0.001c0.04,-0.13 0.005,-0.268 -0,-0.402c-0.008,-0.186 0.005,-0.368 0.07,-0.54c0.103,-0.276 0.283,-0.455 0.491,-0.601c0.082,-0.058 0.169,-0.11 0.251,-0.168c0.058,-0.04 0.118,-0.079 0.149,-0.149c0,-0 0,-0 0,-0c0.122,-0.268 0.057,-0.554 0.063,-0.838c0.006,-0.304 0.091,-0.623 0.199,-0.905c-0,-0 0,-0.001 0,-0.001c0.127,-0.329 0.35,-0.586 0.627,-0.794l0.235,-0.175Z"/><path d="M14.661,12.432c-0.118,0.061 -0.208,0.174 -0.235,0.315c-0.067,0.35 -0.216,0.674 -0.299,1.019c-0.001,0.001 -0.001,0.002 -0.001,0.003c-0.055,0.232 -0.098,0.529 -0.004,0.761c0.147,0.36 0.522,0.55 0.884,0.577c0.617,0.046 1.22,-0.316 1.404,-0.925c-0,-0 -0,-0.001 0,-0.001c0.085,-0.285 0.114,-0.695 0.04,-1.06c-0.058,-0.285 -0.179,-0.541 -0.356,-0.719c-0,0 -0.001,-0 -0.001,-0c-0.282,-0.282 -0.748,-0.463 -1.136,-0.247c-0.001,0 -0.001,0 -0.001,0.001c-0.106,0.059 -0.208,0.156 -0.295,0.276Zm0.675,0.619c-0.023,0.035 -0.045,0.069 -0.068,0.104l-0.026,0.037c-0.075,0.263 -0.176,0.518 -0.24,0.784c-0.013,0.053 -0.029,0.156 -0.037,0.205c0.028,0.01 0.078,0.026 0.109,0.028c-0,0 -0,0 -0,0c0.203,0.016 0.413,-0.086 0.474,-0.287c0.05,-0.167 0.063,-0.408 0.02,-0.622c-0.021,-0.101 -0.049,-0.199 -0.111,-0.262c-0.018,-0.017 -0.049,-0.039 -0.076,-0.056l-0.045,0.069Z"/></svg>