<?xml version="1.0" encoding="UTF-8" standalone="no"?><!DOCTYPE svg PUBLIC "-//W3C//DTD SVG 1.1//EN" "http://www.w3.org/Graphics/SVG/1.1/DTD/svg11.dtd"><svg width="100%" height="100%" viewBox="0 0 20 20" version="1.1" xmlns="http://www.w3.org/2000/svg" xmlns:xlink="http://www.w3.org/1999/xlink" xml:space="preserve" xmlns:serif="http://www.serif.com/" style="fill-rule:evenodd;clip-rule:evenodd;stroke-linejoin:round;stroke-miterlimit:2;"><path d="M2.847,10.843c1.205,0.113 2.436,0.168 3.646,0.165c0.89,-0.003 1.778,-0.068 2.669,-0.074c0.548,-0.004 1.094,0.073 1.642,0.076c1.314,0.008 2.632,-0.068 3.946,-0.109c0.801,-0.024 1.596,0.01 2.398,-0.054c0.55,-0.045 0.961,-0.527 0.917,-1.077c-0.045,-0.55 -0.527,-0.961 -1.077,-0.917c-0.769,0.062 -1.532,0.026 -2.3,0.049c-1.289,0.04 -2.583,0.116 -3.872,0.108c-0.556,-0.003 -1.111,-0.08 -1.668,-0.076c-0.887,0.006 -1.772,0.071 -2.66,0.074c-1.147,0.002 -2.313,-0.05 -3.455,-0.156c-0.549,-0.052 -1.037,0.353 -1.089,0.902c-0.051,0.55 0.354,1.038 0.903,1.089Z"/></svg>