<svg id="ba8115ed-6296-4046-af8f-144410d11a4a" data-name="Ebene 1" xmlns="http://www.w3.org/2000/svg" viewBox="0 0 20 20"><path d="M19.46,9.47A7.1,7.1,0,0,1,18.33,9l-.25-.13a5.14,5.14,0,0,0-.76-2.05c.09-.24.23-.6.38-.91a5.17,5.17,0,0,1,1.15-1.51A.53.53,0,0,0,19,3.87a.51.51,0,0,0-.35-.36,4.93,4.93,0,0,0-2.83,0,5.54,5.54,0,0,0-1.32.78l-.21.15a9.12,9.12,0,0,0-2.61.1.5.5,0,0,0-.42.56.51.51,0,0,0,.57.43,7.27,7.27,0,0,1,2.45-.07.51.51,0,0,0,.4-.08l.41-.28a4.59,4.59,0,0,1,1.11-.66,2.77,2.77,0,0,1,1.34-.09,5.29,5.29,0,0,0-.72,1.12c-.26.55-.5,1.22-.51,1.25a.51.51,0,0,0,.09.49,3.93,3.93,0,0,1,.74,2,.49.49,0,0,0,.29.4l.45.23a7.72,7.72,0,0,0,.95.46c0,.21,0,.43,0,.64s0,.45,0,.68l-1.5.57a.49.49,0,0,0-.3.34,5.52,5.52,0,0,1-.56,1.3,3.32,3.32,0,0,1-1.06,1,.49.49,0,0,0-.24.29,21.58,21.58,0,0,0-.67,2.43l-.86,0c-.08-.21-.14-.41-.2-.62s-.21-.65-.35-1a.49.49,0,0,0-.29-.29.51.51,0,0,0-.4,0,3.86,3.86,0,0,1-2.84.13.52.52,0,0,0-.67.41c0,.33-.08.65-.13,1s0,.37-.07.55l-.9,0-.57-2a.52.52,0,0,0-.34-.35,3.64,3.64,0,0,1-2.23-2,5.55,5.55,0,0,1-.39-3.18,4.27,4.27,0,0,1,.94-2.26A6.38,6.38,0,0,1,7.27,6.55a.49.49,0,0,0,.24-.66.49.49,0,0,0-.66-.25A7.09,7.09,0,0,0,4.4,7.22,5.22,5.22,0,0,0,3.21,10a7.93,7.93,0,0,0-.07.84l-.1,0a1.47,1.47,0,0,0,0-.42,1.26,1.26,0,0,0-1.41-.8c-.5.09-1,.51-.88,1.45a.89.89,0,0,0,.32.58,1.87,1.87,0,0,1-.41,0,.5.5,0,0,0-.54.45.5.5,0,0,0,.45.55H.85A2.15,2.15,0,0,0,2.5,12l0,0a5.61,5.61,0,0,0,.63-.09,6.2,6.2,0,0,0,.51,1.9,4.78,4.78,0,0,0,2.59,2.48l.6,2.11a.52.52,0,0,0,.48.36l1.71,0h0a.49.49,0,0,0,.5-.43c0-.33.09-.66.13-1l.06-.42a5.11,5.11,0,0,0,2.52-.13c.06.16.1.31.15.46a10.17,10.17,0,0,0,.35,1,.51.51,0,0,0,.47.32l1.65,0a.51.51,0,0,0,.48-.47A14.85,14.85,0,0,1,16,15.59a4.43,4.43,0,0,0,1.24-1.22A5.83,5.83,0,0,0,17.86,13l1.59-.61a.49.49,0,0,0,.32-.48c0-.32,0-.64,0-1s0-.7,0-1.05A.5.5,0,0,0,19.46,9.47ZM2,11H1.74c0-.22,0-.32,0-.33h.07c.08,0,.2,0,.22,0A.82.82,0,0,1,2,11Z"/><path d="M6.5,4.48A2.26,2.26,0,0,0,8,5.84,2.71,2.71,0,0,0,8.91,6h.16a2.73,2.73,0,0,0,1.11-.35,2.11,2.11,0,0,0,.87-.73,2.27,2.27,0,0,0,.27-1.18,2.65,2.65,0,0,0-.41-1.35,2.22,2.22,0,0,0-.46-.61A2.69,2.69,0,0,0,7,2a2.33,2.33,0,0,0-.58,1.62v.06A1.92,1.92,0,0,0,6.5,4.48ZM7.71,2.71a1.7,1.7,0,0,1,2.11-.16,1.58,1.58,0,0,1,.22.32,1.74,1.74,0,0,1,.28.85,1.7,1.7,0,0,1-.12.67,1.36,1.36,0,0,1-.5.37A1.82,1.82,0,0,1,9,5a1.77,1.77,0,0,1-.66-.11,1.3,1.3,0,0,1-.91-.76,1.33,1.33,0,0,1,0-.42v0A1.36,1.36,0,0,1,7.71,2.71Z"/><path d="M6.91,7.91a.49.49,0,0,0,.41.21A.52.52,0,0,0,7.61,8a8,8,0,0,1,4.13-.91.5.5,0,1,0,0-1c-3.25.07-4.64,1-4.7,1.1A.5.5,0,0,0,6.91,7.91Z"/></svg>