<svg id="ea24f623-3259-4e9c-b3e0-6e8902de7ddf" data-name="Ebene 1" xmlns="http://www.w3.org/2000/svg" viewBox="0 0 20 20"><path d="M18.34,5.54a9,9,0,0,0-1.68-2.62,6.32,6.32,0,0,0-1.46-1,11,11,0,0,0-2.77-1A9.77,9.77,0,0,0,3.73,2.7,10,10,0,0,0,.59,8.17a10,10,0,0,0,.65,6.28,8.1,8.1,0,0,0,4.68,4.27,12.67,12.67,0,0,0,2.65.52,22.54,22.54,0,0,0,2.59.18,8.47,8.47,0,0,0,4.29-1c1.89-1.08,3.28-3.22,4-6.19a8.24,8.24,0,0,0,.29-1.91A10.72,10.72,0,0,0,18.34,5.54ZM18.5,12C18,13.88,17,16.37,15,17.57c-1.79,1-4.07.93-6.26.68a12.18,12.18,0,0,1-2.45-.47A7.25,7.25,0,0,1,2.15,14a9,9,0,0,1-.58-5.65A9.05,9.05,0,0,1,4.39,3.45,8.1,8.1,0,0,1,9.78,1.58a10.86,10.86,0,0,1,2.43.28,10,10,0,0,1,2.52.93h0A5.25,5.25,0,0,1,16,3.64,8,8,0,0,1,17.44,6a10,10,0,0,1,1.32,4.33A7.88,7.88,0,0,1,18.5,12Z"/><path d="M10.82,10.82a5.33,5.33,0,0,1-.64-.75l.11-5.62a.5.5,0,0,0-.49-.51h0a.51.51,0,0,0-.5.49l-.11,5.79a.4.4,0,0,0,.08.28,6.57,6.57,0,0,0,.85,1L12,13.4a.48.48,0,0,0,.7,0,.5.5,0,0,0,0-.71Z"/><path d="M9.84,3.45H10a.5.5,0,0,0,.37-.6,1.56,1.56,0,0,1,0-.43.5.5,0,0,0-.44-.55.5.5,0,0,0-.55.44,2.21,2.21,0,0,0,0,.77A.49.49,0,0,0,9.84,3.45Z"/><path d="M10.36,15.87a.5.5,0,0,0-.5.5V17a.5.5,0,0,0,.5.5.51.51,0,0,0,.5-.5v-.6A.5.5,0,0,0,10.36,15.87Z"/><path d="M3.2,10a.5.5,0,0,0-.45-.55l-.42,0h0a.48.48,0,0,0-.53.45.52.52,0,0,0,.46.55l.43,0H2.7A.51.51,0,0,0,3.2,10Z"/><path d="M16.71,9.51a.5.5,0,0,0,.16,1,.44.44,0,0,0,.16,0,.36.36,0,0,1,.23,0,.5.5,0,0,0,.24-1A1.33,1.33,0,0,0,16.71,9.51Z"/><path d="M3.61,12.54A3.09,3.09,0,0,0,3,13a.49.49,0,0,0,0,.7.48.48,0,0,0,.36.16.54.54,0,0,0,.35-.14,1.92,1.92,0,0,1,.43-.32.49.49,0,0,0,.2-.67A.49.49,0,0,0,3.61,12.54Z"/><path d="M6.7,15.24a.5.5,0,0,0-.69.17L5.67,16a.51.51,0,0,0,.17.69.51.51,0,0,0,.69-.17l.34-.55A.51.51,0,0,0,6.7,15.24Z"/><path d="M13.8,15.51a.5.5,0,1,0-.76.66,5.21,5.21,0,0,1,.5.66.47.47,0,0,0,.42.24.54.54,0,0,0,.27-.07.51.51,0,0,0,.16-.69A6.6,6.6,0,0,0,13.8,15.51Z"/><path d="M16.65,12.88a.84.84,0,0,1-.37-.14.51.51,0,0,0-.69.16.5.5,0,0,0,.15.69,2.07,2.07,0,0,0,.75.28h.08a.5.5,0,0,0,.08-1Z"/><path d="M3.37,7.18a.48.48,0,0,0,.39.19.5.5,0,0,0,.39-.82l-.38-.47A.5.5,0,0,0,3.07,6a.49.49,0,0,0-.08.7Z"/><path d="M6.55,3.39a.5.5,0,0,0-.88.48,2.27,2.27,0,0,0,.47.6.51.51,0,0,0,.34.14.54.54,0,0,0,.37-.16.51.51,0,0,0,0-.71A1.31,1.31,0,0,1,6.55,3.39Z"/><path d="M12.81,4.5a.5.5,0,0,0,.68-.2l.32-.6A.49.49,0,0,0,13.62,3a.51.51,0,0,0-.68.2l-.33.6A.5.5,0,0,0,12.81,4.5Z"/><path d="M16.07,7.32a.5.5,0,0,0,0-1,.85.85,0,0,0-.71.32.52.52,0,0,0,.08.71.5.5,0,0,0,.31.1A.51.51,0,0,0,16.07,7.32Z"/></svg>