<?xml version="1.0" encoding="UTF-8" standalone="no"?>
<!DOCTYPE svg PUBLIC "-//W3C//DTD SVG 1.1//EN" "http://www.w3.org/Graphics/SVG/1.1/DTD/svg11.dtd">
<svg width="100%" height="100%" viewBox="0 0 20 20" version="1.1" xmlns="http://www.w3.org/2000/svg" xmlns:xlink="http://www.w3.org/1999/xlink" xml:space="preserve" xmlns:serif="http://www.serif.com/" style="fill-rule:evenodd;clip-rule:evenodd;stroke-linejoin:round;stroke-miterlimit:2;">
    <path d="M17.486,9.111C17.299,9.203 17.103,9.299 16.9,9.397C16.9,9.397 16.827,11.339 16.864,11.746C16.925,12.416 16.632,13.727 15.286,14.331C10.737,16.372 7.186,15.508 4.976,14.691C3.888,14.289 3.334,13.001 3.33,11.793C3.329,11.406 3.289,9.88 3.282,9.589C2.051,9.04 1.326,8.763 0.867,8.411C0.578,8.189 0.386,7.792 0.45,7.383C0.49,7.126 0.626,6.855 0.929,6.631C1.279,6.373 3.025,5.721 4.906,4.93C6.587,4.223 8.337,3.393 9.143,3.082C9.42,2.975 9.619,2.927 9.712,2.923C9.782,2.92 9.957,2.945 10.211,3.028C10.884,3.247 12.433,3.881 14.036,4.62C15.054,5.089 16.071,5.647 16.944,6.067C17.967,6.559 18.811,6.872 19.135,7.027C19.367,7.138 19.469,7.272 19.499,7.328C19.576,7.47 19.64,7.746 19.358,8.023C19.223,8.157 18.872,8.379 18.377,8.649C18.525,8.913 18.614,9.279 18.565,9.79C18.45,11.005 18.407,13.459 18.396,14.211C18.678,14.472 19.215,14.997 19.407,15.374C19.56,15.674 19.544,15.941 19.447,16.124C19.274,16.449 18.987,17.1 18.739,17.549C18.601,17.798 18.463,17.993 18.358,18.091C18.158,18.28 17.951,18.297 17.804,18.265C17.661,18.235 17.513,18.154 17.412,17.953C17.393,17.915 17.379,17.875 17.37,17.834C17.37,17.834 17.191,16.982 16.705,16.375C16.255,15.813 16.329,15.279 16.638,14.823C16.818,14.556 17.102,14.319 17.398,14.135C17.41,13.305 17.455,10.901 17.57,9.695C17.596,9.416 17.567,9.228 17.486,9.111ZM17.49,7.989C17.695,7.884 17.882,7.784 18.047,7.693C18.058,7.687 18.068,7.681 18.079,7.675C17.657,7.496 17.085,7.245 16.51,6.968C15.642,6.55 14.63,5.995 13.617,5.528C12.25,4.898 10.923,4.345 10.173,4.073C10.006,4.012 9.824,3.957 9.743,3.933C9.649,3.965 9.405,4.051 9.174,4.148C8.279,4.524 6.76,5.236 5.293,5.852C3.515,6.6 1.854,7.192 1.522,7.436C1.439,7.497 1.426,7.579 1.475,7.617C2.035,8.047 3.019,8.337 4.893,9.23C5.778,9.652 6.759,10.229 7.757,10.656C8.665,11.046 9.585,11.318 10.45,11.16C10.661,11.122 13.351,9.967 15.622,8.9C14.075,8.829 11.526,8.625 9.835,8.036C9.575,7.945 9.437,7.66 9.528,7.399C9.619,7.138 9.904,7.001 10.165,7.091C12.498,7.905 16.546,7.937 16.933,7.938C16.999,7.932 17.226,7.923 17.49,7.989ZM17.83,15.045C17.727,15.114 17.63,15.193 17.549,15.28C17.469,15.367 17.395,15.456 17.398,15.563C17.4,15.625 17.433,15.684 17.486,15.75C17.728,16.053 17.911,16.402 18.046,16.716C18.206,16.394 18.367,16.045 18.491,15.796C18.449,15.729 18.377,15.621 18.313,15.546C18.16,15.364 17.976,15.182 17.83,15.045ZM15.884,9.877C13.55,10.961 10.845,12.105 10.63,12.144C9.782,12.299 8.888,12.142 7.996,11.825C6.771,11.389 5.546,10.649 4.463,10.133C4.406,10.106 4.349,10.079 4.294,10.053C4.308,10.632 4.329,11.509 4.33,11.79C4.332,12.587 4.605,13.488 5.323,13.753C7.37,14.51 10.661,15.31 14.876,13.419C15.706,13.046 15.906,12.25 15.868,11.837C15.842,11.546 15.866,10.513 15.884,9.877Z"/>
</svg>
