<svg id="faf2b492-4e5d-42d9-aa8a-4cedbac0885c" data-name="Ebene 1" xmlns="http://www.w3.org/2000/svg" viewBox="0 0 20 20"><path d="M10.85,6.79a4.62,4.62,0,0,0-.62-2.12A4,4,0,0,0,9.48,3.5,2.92,2.92,0,0,0,8.81,3a4.72,4.72,0,0,0-1.22-.46,4.36,4.36,0,0,0-3.86.82A4.55,4.55,0,0,0,2.62,8.62a3.71,3.71,0,0,0,2.11,1.92,6.78,6.78,0,0,0,1.16.23A10.34,10.34,0,0,0,7,10.84a3.78,3.78,0,0,0,1.92-.45,4.14,4.14,0,0,0,1.8-2.74A3.62,3.62,0,0,0,10.85,6.79Zm-1.1.62A3.32,3.32,0,0,1,8.42,9.53,4,4,0,0,1,6,9.77a4.51,4.51,0,0,1-1-.18,2.7,2.7,0,0,1-1.52-1.4A3.41,3.41,0,0,1,3.31,6,3.4,3.4,0,0,1,4.38,4.16a3.12,3.12,0,0,1,2.06-.71,4.29,4.29,0,0,1,.93.11,4.19,4.19,0,0,1,1,.36h0a2.09,2.09,0,0,1,.44.3,2.85,2.85,0,0,1,.55.89,3.88,3.88,0,0,1,.52,1.66A2.67,2.67,0,0,1,9.75,7.41Z"/><path d="M18.44,17.45a9.82,9.82,0,0,0-.72-.81c-1.22-1-2.21-2-3.16-2.91s-1.91-1.86-3.09-2.84a7.69,7.69,0,0,0,1.24-2.77,5.49,5.49,0,0,0,.19-1.26A7,7,0,0,0,12,3.73,5.87,5.87,0,0,0,10.87,2a4.23,4.23,0,0,0-1-.68A7.15,7.15,0,0,0,8.09.66a6.38,6.38,0,0,0-5.7,1.2A6.62,6.62,0,0,0,.33,5.45,6.53,6.53,0,0,0,.76,9.56a5.33,5.33,0,0,0,3.09,2.81,7.81,7.81,0,0,0,1.72.34,13.53,13.53,0,0,0,1.67.12,5.87,5.87,0,0,0,2.46-.48c.43.45.85.91,1.27,1.36,1.47,1.57,2.86,3.06,4.48,4.51a3.45,3.45,0,0,0,1.17.79,1.94,1.94,0,0,0,.71.15,1.15,1.15,0,0,0,.84-.35A1.28,1.28,0,0,0,18.44,17.45Zm-7.32-5-.54-.59.22-.19c.2.16.38.32.56.48A1.38,1.38,0,0,1,11.12,12.41Zm-5.43-.69a8,8,0,0,1-1.52-.29,4.37,4.37,0,0,1-2.5-2.3,5.47,5.47,0,0,1-.36-3.48,5.6,5.6,0,0,1,1.74-3A5,5,0,0,1,6.39,1.47a6.29,6.29,0,0,1,1.48.17,6.07,6.07,0,0,1,1.56.57,3.73,3.73,0,0,1,.75.52,5,5,0,0,1,.9,1.43,6.25,6.25,0,0,1,.82,2.68,4.2,4.2,0,0,1-.16,1,5.38,5.38,0,0,1-2.17,3.43A6.39,6.39,0,0,1,5.69,11.72Zm6.11,1.41a2.59,2.59,0,0,0,.31-.35c.62.57,1.19,1.12,1.75,1.67.77.75,1.58,1.54,2.5,2.34a2.72,2.72,0,0,0-.42.53C14.46,16,13.16,14.59,11.8,13.13Zm5.65,5c-.05.05-.1.1-.49,0a.94.94,0,0,1-.24-.13,2.11,2.11,0,0,1,.39-.5l.43.48A.67.67,0,0,1,17.45,18.11Z"/></svg>