<?xml version="1.0" encoding="UTF-8" standalone="no"?><!DOCTYPE svg PUBLIC "-//W3C//DTD SVG 1.1//EN" "http://www.w3.org/Graphics/SVG/1.1/DTD/svg11.dtd"><svg width="100%" height="100%" viewBox="0 0 20 20" version="1.1" xmlns="http://www.w3.org/2000/svg" xmlns:xlink="http://www.w3.org/1999/xlink" xml:space="preserve" xmlns:serif="http://www.serif.com/" style="fill-rule:evenodd;clip-rule:evenodd;stroke-linecap:round;stroke-linejoin:round;stroke-miterlimit:1.5;"><path d="M19.77,7.15c-0.418,-0.726 -1.06,-1.298 -1.83,-1.63l0.25,-0.2c0.19,-0.15 0.242,-0.42 0.12,-0.63c-1.1,-2 -3.41,-2.12 -4.94,-2c0.054,-0.128 0.054,-0.272 0,-0.4c-0.176,-0.522 -0.593,-0.929 -1.12,-1.09c-1.25,-0.37 -3.11,0.64 -4.04,1.22c-0.465,-0.745 -1.069,-1.394 -1.78,-1.91c-0.2,-0.141 -0.474,-0.12 -0.65,0.05c-0.706,0.945 -1.009,2.133 -0.84,3.3c-1.148,-0.138 -2.312,-0.057 -3.43,0.24c-0.132,0.033 -0.245,0.12 -0.31,0.24c-0.055,0.121 -0.055,0.259 0,0.38c0.205,0.684 0.459,1.353 0.76,2c-1.65,0.68 -1.81,3.55 -1.81,3.69c-0.009,0.17 0.07,0.333 0.21,0.43c-0.1,0.85 -0.08,1.87 0.42,2.24c0.284,0.227 0.637,0.35 1,0.35c0.073,0.01 0.147,0.01 0.22,0c0.114,1.019 0.572,1.968 1.3,2.69l0.17,0.19c0.802,1.056 1.872,1.878 3.1,2.38c0.906,0.331 1.865,0.497 2.83,0.49c1.069,-0.005 2.13,-0.187 3.14,-0.54c0.768,-0.258 1.49,-0.636 2.14,-1.12l0.63,-0.42c1.313,-0.751 2.183,-2.095 2.33,-3.6c0.1,0.011 0.2,0.011 0.3,0c0.346,-0.011 0.68,-0.134 0.95,-0.35c0.58,-0.43 0.5,-1.68 0.31,-2.75c0.069,-0.114 0.116,-0.239 0.14,-0.37c0.039,-0.709 -0.155,-1.411 -0.55,-2l0.69,-0.23c0.137,-0.048 0.248,-0.149 0.31,-0.28c0.04,-0.121 0.033,-0.254 -0.02,-0.37Zm-17.12,0.38c0.17,-0.01 0.324,-0.104 0.41,-0.25c0.075,-0.148 0.075,-0.322 0,-0.47c-0.075,-0.148 -0.48,-1 -0.8,-1.86c0.986,-0.265 2.028,-0.241 3,0.07c0.163,0.099 0.367,0.099 0.53,0c0.169,-0.114 0.253,-0.32 0.21,-0.52c-0.186,-0.958 -0.114,-1.949 0.21,-2.87c0.57,0.409 1.008,0.975 1.26,1.63c0.025,0.173 0.139,0.322 0.3,0.39c0.163,0.066 0.348,0.043 0.49,-0.06c1,-0.69 2.82,-1.68 3.72,-1.41c0.108,0.035 0.207,0.093 0.29,0.17c-0.255,0.245 -0.483,0.517 -0.68,0.81c-0.061,0.085 -0.093,0.187 -0.093,0.291c-0,0.274 0.225,0.5 0.5,0.5c0.048,0 0.096,-0.007 0.143,-0.021c0.047,-0.014 3.57,-1 5.07,0.9l-0.56,0.46c-0.151,0.113 -0.222,0.306 -0.18,0.49c0.041,0.183 0.179,0.329 0.36,0.38c0.636,0.191 1.217,0.534 1.69,1l-0.65,0.22c-0.151,0.051 -0.269,0.169 -0.32,0.32c-0.049,0.149 -0.022,0.313 0.07,0.44c0.394,0.502 0.649,1.098 0.74,1.73c-1.1,-0.4 -3.21,-1.36 -3.87,-2.45c-0.069,-0.119 -0.185,-0.203 -0.32,-0.23l-0.11,0c-0.098,0.003 -0.195,0.031 -0.28,0.08c-0.268,0.193 -0.525,0.4 -0.77,0.62c-0.64,-0.21 -1.44,-0.63 -1.5,-1.06c-0.026,-0.197 -0.168,-0.359 -0.36,-0.41c-0.189,-0.051 -0.392,0.011 -0.52,0.16c-0.374,0.413 -0.793,0.782 -1.25,1.1c-0.192,-0.438 -0.553,-0.781 -1,-0.95c-0.201,-0.072 -0.427,-0.007 -0.56,0.16c-0.673,0.958 -1.617,1.693 -2.71,2.11l-0.26,-0.73c-0.05,-0.153 -0.174,-0.27 -0.33,-0.31c-0.148,-0.056 -0.314,-0.041 -0.45,0.04l-1.07,0.87c-0.21,0.1 -0.87,0.41 -1.72,0.77c0.13,-0.85 0.5,-2.07 1.37,-2.11Zm-0.77,4.87c-0.07,0.06 -0.23,0.06 -0.45,-0.09c-0.115,-0.544 -0.115,-1.106 -0,-1.65l0.57,-0.22c-0.05,0.78 -0.06,1.43 -0,2l-0.12,-0.04Zm12.89,3.86l-0.65,0.44c-0.579,0.428 -1.22,0.765 -1.9,1c-1.712,0.621 -3.586,0.638 -5.31,0.05c-1.065,-0.448 -1.993,-1.169 -2.69,-2.09l-0.17,-0.2c-0.84,-1 -1.35,-1.54 -1.08,-5.23c0.015,-0.073 0.015,-0.147 -0,-0.22c0.175,-0.076 0.346,-0.163 0.51,-0.26l0.06,-0.05l0.59,-0.47l0.15,0.42c0.068,0.179 0.23,0.306 0.42,0.33c1.42,0.16 3,-1.39 3.59,-2.12c0.155,0.18 0.262,0.397 0.31,0.63c0.03,0.149 0.12,0.28 0.25,0.36c0.139,0.065 0.301,0.065 0.44,0c0.596,-0.282 1.135,-0.672 1.59,-1.15c0.586,0.579 1.319,0.987 2.12,1.18c0.171,0.052 0.358,0.001 0.48,-0.13c0.165,-0.147 0.338,-0.284 0.52,-0.41c0.825,0.839 1.812,1.502 2.9,1.95c-0.06,4.32 -0.84,5.15 -2.13,5.97Zm3.53,-3.88c-0.25,0.18 -0.41,0.18 -0.46,0.14l-0.08,0.07c-0,-0.55 0.09,-1.17 0.1,-1.88l0.39,0.14c0.099,0.504 0.115,1.021 0.05,1.53Z" style="fill-rule:nonzero;"/><path d="M7.4,15.998c1.191,-0.682 2.908,-0.493 3.817,0.585" style="fill:none;stroke:#000;stroke-width:1px;"/><path d="M7.61,13.28c0.009,-0.188 -0.077,-0.369 -0.23,-0.48c-0.131,-0.099 -0.303,-0.129 -0.46,-0.08c-0.215,0.015 -0.408,0.14 -0.51,0.33c-0.03,0.06 -0.051,0.124 -0.06,0.19c-0.015,0.076 -0.015,0.154 0,0.23c-0.002,0.112 0.042,0.22 0.12,0.3c0.073,0.071 0.162,0.122 0.26,0.15c0.082,0.048 0.175,0.076 0.27,0.08c0.169,-0.001 0.331,-0.07 0.45,-0.19c0.091,-0.092 0.151,-0.211 0.17,-0.34c0.007,-0.063 0.004,-0.128 -0.01,-0.19Z" style="fill-rule:nonzero;"/><path d="M11.94,12.72c-0.285,0.02 -0.519,0.238 -0.56,0.52c-0.019,0.075 -0.019,0.155 0,0.23c-0.005,0.113 0.039,0.222 0.12,0.3c0.073,0.071 0.162,0.122 0.26,0.15c0.073,0.044 0.155,0.071 0.24,0.08c0.169,-0.001 0.331,-0.07 0.45,-0.19c0.088,-0.093 0.144,-0.212 0.16,-0.34c0.026,-0.057 0.043,-0.118 0.05,-0.18c0.004,-0.187 -0.082,-0.366 -0.23,-0.48c-0.138,-0.11 -0.322,-0.143 -0.49,-0.09Z" style="fill-rule:nonzero;"/></svg>