<?xml version="1.0" encoding="UTF-8" standalone="no"?><!DOCTYPE svg PUBLIC "-//W3C//DTD SVG 1.1//EN" "http://www.w3.org/Graphics/SVG/1.1/DTD/svg11.dtd"><svg width="100%" height="100%" viewBox="0 0 20 20" version="1.1" xmlns="http://www.w3.org/2000/svg" xmlns:xlink="http://www.w3.org/1999/xlink" xml:space="preserve" xmlns:serif="http://www.serif.com/" style="fill-rule:evenodd;clip-rule:evenodd;stroke-linecap:round;stroke-linejoin:round;stroke-miterlimit:1.5;"><path d="M19.35,7.93c-0.094,-0.095 -0.222,-0.148 -0.355,-0.148c-0.133,0 -0.261,0.053 -0.355,0.148c-0.474,0.49 -1.029,0.896 -1.64,1.2l0,-2.07c1.269,-0.37 2.151,-1.538 2.16,-2.86c-0.067,-1.559 -1.34,-2.819 -2.9,-2.87c-0.627,0.026 -1.217,0.308 -1.63,0.78c-0.561,0.59 -0.873,1.375 -0.87,2.19c0.102,1.097 0.759,2.068 1.74,2.57c0.144,0.074 0.295,0.134 0.45,0.18l0.05,2.14l-0.2,-0.11c-0.58,-0.33 -1.19,-0.68 -1.78,-0.94c-0.063,-0.027 -0.131,-0.042 -0.2,-0.042c-0.275,0 -0.502,0.227 -0.502,0.502c0,0.199 0.119,0.381 0.302,0.46c0.576,0.265 1.137,0.563 1.68,0.89l0.72,0.41l0.11,4.31c-0.635,0.77 -1.181,1.609 -1.63,2.5c-0.025,0.061 -0.038,0.126 -0.038,0.192c-0,0.275 0.225,0.5 0.5,0.5c0.175,0 0.338,-0.092 0.428,-0.242c0.335,-0.662 0.727,-1.295 1.17,-1.89l1.66,2.21c0.095,0.125 0.243,0.198 0.4,0.2c0.107,-0.004 0.211,-0.039 0.3,-0.1c0.215,-0.168 0.259,-0.479 0.1,-0.7l-1.9,-2.54c0.005,-0.037 0.005,-0.073 0,-0.11l-0.12,-4.47c0.871,-0.367 1.66,-0.904 2.32,-1.58c0.199,-0.188 0.213,-0.505 0.03,-0.71Zm-4.61,-3.7c-0,-0.538 0.216,-1.054 0.6,-1.43c0.22,-0.277 0.547,-0.448 0.9,-0.47c1.019,0.044 1.85,0.862 1.91,1.88c-0.021,0.88 -0.621,1.647 -1.47,1.88c-0.109,0.023 -0.221,0.023 -0.33,-0c-0.121,-0.007 -0.24,-0.037 -0.35,-0.09c-0.698,-0.331 -1.175,-1.002 -1.26,-1.77Z" style="fill-rule:nonzero;"/><path d="M6.301,16.806l-0.16,0c-0.274,0 -0.5,0.226 -0.5,0.5c-0,0.275 0.226,0.5 0.5,0.5l0.16,0c0.274,0 0.5,-0.225 0.5,-0.5c-0,-0.274 -0.226,-0.5 -0.5,-0.5Z" style="fill-rule:nonzero;"/><path d="M9.481,16.986c-0.199,-0.185 -0.511,-0.185 -0.71,0c-0.046,0.047 -0.083,0.101 -0.11,0.16c-0.009,0.063 -0.009,0.127 -0,0.19c-0.01,0.063 -0.01,0.127 -0,0.19c0.025,0.064 0.062,0.122 0.11,0.17c0.095,0.089 0.22,0.139 0.35,0.14c0.133,0.002 0.262,-0.048 0.36,-0.14c0.045,-0.051 0.082,-0.108 0.11,-0.17c0.011,-0.062 0.011,-0.127 -0,-0.19c0.014,-0.062 0.014,-0.127 -0,-0.19c-0.027,-0.059 -0.064,-0.113 -0.11,-0.16Z" style="fill-rule:nonzero;"/><path d="M12.161,16.906c-0.193,-0.13 -0.447,-0.13 -0.64,0c-0.168,0.142 -0.242,0.367 -0.19,0.58c0.08,0.22 0.286,0.37 0.52,0.38c0.226,-0.008 0.427,-0.149 0.51,-0.36c0.063,-0.221 -0.016,-0.46 -0.2,-0.6Z" style="fill-rule:nonzero;"/><path d="M3.739,17.461c-0.056,-1.503 -0.122,-3.031 -0.062,-4.534c0.037,-0.922 0.218,-1.816 0.209,-2.746" style="fill:none;stroke:#000;stroke-width:1px;"/><path d="M0.855,17.547c0.075,-0.014 0.15,-0.026 0.226,-0.038" style="fill:none;stroke:#000;stroke-width:1px;"/></svg>