<?xml version="1.0" encoding="UTF-8" standalone="no"?>
<!DOCTYPE svg PUBLIC "-//W3C//DTD SVG 1.1//EN" "http://www.w3.org/Graphics/SVG/1.1/DTD/svg11.dtd">
<svg width="100%" height="100%" viewBox="0 0 20 20" version="1.1" xmlns="http://www.w3.org/2000/svg" xmlns:xlink="http://www.w3.org/1999/xlink" xml:space="preserve" xmlns:serif="http://www.serif.com/" style="fill-rule:evenodd;clip-rule:evenodd;stroke-linejoin:round;stroke-miterlimit:2;">
    <path d="M12.591,14.717C11.716,14.448 10.016,13.906 9.201,13.518C8.424,13.149 7.375,12.409 6.789,11.979C6.199,12.877 5.229,13.497 4.137,13.497C3.246,13.497 2.343,13.04 1.67,12.342C1.003,11.649 0.568,10.726 0.568,9.825C0.568,8.486 1.519,7.501 2.638,6.974C3.049,6.779 3.643,6.679 4.126,6.679C5.302,6.679 6.336,7.313 6.911,8.266C7.494,8.033 9.195,7.346 10.056,6.899C10.813,6.505 12.512,5.398 12.917,5.132C12.827,4.826 12.779,4.499 12.779,4.157C12.779,2.951 13.376,2.028 14.317,1.441C14.806,1.136 15.571,0.906 16.185,0.906C17.979,0.906 19.323,2.619 19.323,4.449C19.323,6.298 17.787,7.42 15.975,7.42C14.867,7.42 13.915,6.885 13.346,6.046C12.784,6.412 11.237,7.412 10.517,7.786C9.637,8.243 7.904,8.945 7.293,9.189C7.357,9.449 7.391,9.72 7.391,10C7.391,10.364 7.334,10.721 7.227,11.06C7.727,11.435 8.831,12.235 9.63,12.615C10.466,13.013 12.27,13.576 13.049,13.812C13.659,12.932 14.64,12.328 15.718,12.328C17.511,12.328 18.937,13.99 18.937,15.819C18.937,16.553 18.792,17.363 18.262,17.944C17.571,18.701 16.887,19.012 15.8,19.012C14.907,19.012 14.084,18.981 13.492,18.391C12.895,17.797 12.405,16.736 12.405,15.819C12.405,15.441 12.471,15.069 12.591,14.717ZM13.658,14.729C13.497,15.066 13.405,15.439 13.405,15.819C13.405,16.484 13.765,17.251 14.197,17.682C14.37,17.854 14.582,17.928 14.812,17.968C15.118,18.02 15.454,18.012 15.8,18.012C16.56,18.012 17.04,17.799 17.523,17.27C17.882,16.877 17.937,16.316 17.937,15.819C17.937,14.534 16.978,13.328 15.718,13.328C14.901,13.328 14.174,13.83 13.762,14.534C13.761,14.537 13.76,14.541 13.759,14.544C13.738,14.614 13.703,14.677 13.658,14.729ZM4.126,7.679C3.782,7.679 3.357,7.74 3.064,7.878C2.285,8.246 1.568,8.892 1.568,9.825C1.568,10.481 1.904,11.144 2.39,11.648C2.87,12.146 3.502,12.497 4.137,12.497C5.399,12.497 6.391,11.287 6.391,10C6.391,8.722 5.379,7.679 4.126,7.679ZM16.185,1.906C15.745,1.906 15.197,2.071 14.846,2.29C14.198,2.694 13.779,3.326 13.779,4.157C13.779,5.429 14.728,6.42 15.975,6.42C17.216,6.42 18.323,5.715 18.323,4.449C18.323,3.165 17.445,1.906 16.185,1.906Z" style="fill:rgb(8,6,5);"/>
</svg>
