<svg id="ebdbf3d7-4a98-412a-9c37-2cf3a08f6ef7" data-name="Ebene 1" xmlns="http://www.w3.org/2000/svg" viewBox="0 0 20 20">
  <path d="M17.76,15.24a1.39,1.39,0,0,0-.32-.23h0a2.32,2.32,0,0,0-.44-.16l0,0-.06,0h-.11a2,2,0,0,0-.85,0q-1.2,0-2.4,0c-1.33,0-2.59,0-3.82,0a2.77,2.77,0,0,1-1.25-.22,2.46,2.46,0,0,1-.94-1.4c2.76.07,5.59.11,8.41.13H16A1.71,1.71,0,0,0,17.18,13a1.77,1.77,0,0,0,.47-.73A40.9,40.9,0,0,0,19.74,4.8a.51.51,0,0,0-.1-.41.54.54,0,0,0-.38-.19L5.43,4.05A3.12,3.12,0,0,0,3.66,1.62a3.37,3.37,0,0,0-1.24-.1L.69,1.61a.5.5,0,1,0,.05,1l1.74-.09a2.76,2.76,0,0,1,.87,0c.53.18.9.79,1.16,1.93s.44,2,.63,3.06a44.83,44.83,0,0,0,1.37,5.72,4.6,4.6,0,0,0,.87,1.65,2.11,2.11,0,0,0-.4.26,2.07,2.07,0,0,0-.5,2.36,1.72,1.72,0,0,0,1,.9,3,3,0,0,0,.5.1,3.44,3.44,0,0,0,.46,0,1.77,1.77,0,0,0,.89-.21,1.92,1.92,0,0,0,.84-1.25,3,3,0,0,0,.06-.39,2.09,2.09,0,0,0-.27-.94l1.7,0h3a1.9,1.9,0,0,0-.18.49,1.94,1.94,0,0,0,.13,1.26,1.72,1.72,0,0,0,1,.9,3.16,3.16,0,0,0,.5.1,3.44,3.44,0,0,0,.46,0,1.77,1.77,0,0,0,.89-.21,1.92,1.92,0,0,0,.84-1.25,3,3,0,0,0,.06-.39,2.22,2.22,0,0,0-.27-1A1.78,1.78,0,0,0,17.76,15.24ZM6.12,7.37c-.14-.78-.3-1.55-.46-2.32l3.26,0c.09,1,.2,2,.3,3h-3C6.21,7.82,6.17,7.59,6.12,7.37ZM9.93,5.1l4.13,0c-.09,1-.22,1.94-.36,2.91H10.23C10.12,7.07,10,6.08,9.93,5.1Zm3.61,4c-.18,1.08-.38,2.15-.58,3.21l-2.21,0c-.15-1.05-.28-2.12-.41-3.18Zm3.19,2.79a1,1,0,0,1-.2.35,1.08,1.08,0,0,1-.59.1l-2,0c.2-1.06.39-2.14.57-3.22h1c.69,0,1.4,0,2.09.08C17.39,10,17.09,11,16.73,11.84Zm1.21-3.69a21.17,21.17,0,0,0-2.37-.1h-.86c.14-1,.26-1.93.35-2.89l3.58,0C18.44,6.14,18.21,7.14,17.94,8.15Zm-11.48.9H9.34c.12,1.06.25,2.11.4,3.16l-2.53-.05C6.91,11.14,6.67,10.09,6.46,9.05Zm2.73,7.83a1,1,0,0,1-.37.62,1.31,1.31,0,0,1-.73.06,2,2,0,0,1-.3-.06.71.71,0,0,1-.4-.38A1.06,1.06,0,0,1,7.63,16a.9.9,0,0,1,.59-.2l.29,0,.29.11.1.07a1.37,1.37,0,0,1,.15.25,1.41,1.41,0,0,1,.17.5A.75.75,0,0,1,9.19,16.88Zm8.17,0a1,1,0,0,1-.36.62,1.37,1.37,0,0,1-.74.06,2,2,0,0,1-.3-.06.71.71,0,0,1-.4-.38A1.06,1.06,0,0,1,15.8,16a.73.73,0,0,1,.29-.15c.21,0,.41,0,.62,0a1.14,1.14,0,0,1,.26.09l.1.07a1.09,1.09,0,0,1,.15.25,1.41,1.41,0,0,1,.17.5A.75.75,0,0,1,17.36,16.88Z"/>
</svg>
