<?xml version="1.0" encoding="UTF-8" standalone="no"?><!DOCTYPE svg PUBLIC "-//W3C//DTD SVG 1.1//EN" "http://www.w3.org/Graphics/SVG/1.1/DTD/svg11.dtd"><svg width="100%" height="100%" viewBox="0 0 20 20" version="1.1" xmlns="http://www.w3.org/2000/svg" xmlns:xlink="http://www.w3.org/1999/xlink" xml:space="preserve" xmlns:serif="http://www.serif.com/" style="fill-rule:evenodd;clip-rule:evenodd;stroke-linejoin:round;stroke-miterlimit:2;"><path d="M9.384,9.937c0.193,-0.029 0.359,-0.17 0.411,-0.37c0.316,-1.23 -0.026,-2.403 -0.69,-3.431c-0.621,-0.961 -1.523,-1.792 -2.366,-2.411c-0.491,-0.361 -1.047,-0.682 -1.635,-0.856c-0.337,-0.1 -0.76,-0.153 -1.093,0.019c-0.215,0.112 -0.336,0.292 -0.388,0.512c-0.037,0.157 -0.025,0.346 -0.021,0.49c0.013,0.553 0.176,1.118 0.309,1.652c0.344,1.383 1.129,2.718 2.359,3.495c0.757,0.479 1.647,0.756 2.459,1.129c0.245,0.113 0.535,0.011 0.655,-0.229Zm-4.784,-6.162l0.002,0.091c0.011,0.481 0.164,0.97 0.28,1.435c0.282,1.138 0.91,2.251 1.922,2.89c0.634,0.402 1.369,0.648 2.063,0.943c0.165,-0.88 -0.123,-1.714 -0.602,-2.455c-0.554,-0.859 -1.365,-1.596 -2.117,-2.148c-0.401,-0.294 -0.85,-0.561 -1.329,-0.703c-0.067,-0.02 -0.14,-0.041 -0.216,-0.052l-0.003,-0.001Z"/><path d="M10.355,1.743c0.021,0.027 0.04,0.055 0.056,0.08c0.252,0.398 0.488,0.952 0.544,1.126c0.227,0.692 0.364,1.426 0.25,2.227c-0.093,0.658 -0.408,1.283 -0.664,1.889c-0.107,0.254 0.012,0.548 0.267,0.655c0.254,0.107 0.548,-0.012 0.655,-0.267c0.288,-0.684 0.627,-1.394 0.732,-2.137c0.137,-0.962 -0.017,-1.846 -0.289,-2.678c-0.095,-0.289 -0.597,-1.417 -1.007,-1.803c-0.248,-0.234 -0.512,-0.284 -0.719,-0.23c-0.141,0.036 -0.398,0.215 -0.647,0.515c-0.397,0.479 -0.883,1.265 -0.972,1.474c-0.622,1.446 -0.428,3.383 0.16,4.988c0.095,0.259 0.382,0.393 0.641,0.298c0.26,-0.095 0.393,-0.383 0.298,-0.642c-0.501,-1.368 -0.711,-3.017 -0.181,-4.249c0.07,-0.162 0.608,-0.889 0.876,-1.246Z"/><path d="M9.493,9.736c0,0.019 0.002,0.038 0.005,0.057c0.045,0.272 0.302,0.457 0.574,0.413c1.606,-0.262 2.906,-1.07 4.17,-2.047c0.585,-0.452 1.188,-0.877 1.678,-1.437c0.495,-0.564 0.927,-1.26 0.93,-2.039c0,-0.125 -0.051,-0.583 -0.166,-0.794c-0.095,-0.175 -0.233,-0.269 -0.363,-0.309c-0.179,-0.055 -0.506,-0.003 -0.69,0.022c-0.446,0.059 -0.896,0.154 -1.326,0.281c-0.955,0.282 -1.951,0.834 -2.642,1.562c-0.99,1.045 -1.654,2.518 -2.209,3.828c-0.066,0.157 -0.046,0.329 0.039,0.463Zm6.345,-5.154l-0.076,0.011c-0.394,0.052 -0.793,0.136 -1.174,0.249c-0.793,0.235 -1.625,0.686 -2.199,1.291c-0.759,0.801 -1.298,1.883 -1.751,2.919c1.11,-0.331 2.059,-0.963 2.993,-1.685c0.534,-0.412 1.09,-0.793 1.537,-1.304c0.34,-0.388 0.68,-0.847 0.682,-1.383c-0,-0.016 -0.005,-0.054 -0.012,-0.098Z"/><path d="M13.527,17.877c-0.036,0.011 -0.069,0.021 -0.083,0.026c-0.313,0.109 -0.638,0.166 -0.963,0.224c-1.384,0.245 -2.869,0.392 -4.267,0.203c-0.39,-0.052 -0.767,-0.152 -1.119,-0.329l-0.099,-0.046c-0.008,-0.321 0.026,-0.652 -0.001,-0.971c-0.143,-1.729 -0.372,-3.483 -0.792,-5.167c-0.15,-0.602 -0.293,-1.211 -0.528,-1.787c-0.104,-0.256 -0.396,-0.379 -0.652,-0.275c-0.255,0.104 -0.378,0.396 -0.274,0.652c0.217,0.532 0.345,1.096 0.484,1.652c0.407,1.632 0.627,3.332 0.766,5.007c0.034,0.411 -0.027,0.84 0.018,1.244c0.01,0.086 0.043,0.203 0.151,0.312c0.075,0.077 0.416,0.241 0.478,0.272c0.452,0.228 0.934,0.36 1.434,0.427c1.5,0.202 3.092,0.054 4.576,-0.21c0.377,-0.067 0.754,-0.137 1.116,-0.263c0.066,-0.023 0.256,-0.072 0.353,-0.126c0.113,-0.062 0.185,-0.143 0.226,-0.212c0.092,-0.153 0.151,-0.362 0.173,-0.59c0.023,-0.245 0.007,-0.515 -0.004,-0.699c-0.043,-0.727 0.066,-1.48 0.142,-2.206c0.119,-1.133 0.746,-3.615 1.11,-4.253c0.136,-0.24 0.053,-0.545 -0.187,-0.682c-0.24,-0.137 -0.545,-0.053 -0.682,0.187c-0.397,0.697 -1.106,3.406 -1.235,4.643c-0.082,0.78 -0.193,1.589 -0.146,2.371c0.007,0.123 0.019,0.293 0.012,0.46c-0.002,0.046 -0.002,0.093 -0.007,0.136Z"/><path d="M4.991,10.525c0.955,0.93 2.4,1.178 3.666,1.232c1.072,0.046 2.142,0.026 3.214,0.006c0.731,-0.014 1.522,0.007 2.233,-0.188c0.509,-0.14 0.964,-0.416 1.416,-0.679c0.239,-0.138 0.32,-0.444 0.181,-0.683c-0.138,-0.239 -0.444,-0.32 -0.683,-0.181c-0.378,0.219 -0.753,0.462 -1.179,0.579c-0.632,0.173 -1.337,0.139 -1.987,0.152c-1.052,0.02 -2.1,0.04 -3.152,-0.005c-1.034,-0.044 -2.231,-0.19 -3.011,-0.949c-0.198,-0.193 -0.514,-0.189 -0.707,0.009c-0.193,0.198 -0.188,0.515 0.009,0.707Z"/><path d="M5.497,10.493c0.787,-0.361 1.529,-0.651 2.385,-0.805c0.271,-0.048 0.452,-0.309 0.403,-0.58c-0.048,-0.272 -0.308,-0.453 -0.58,-0.404c-0.942,0.17 -1.759,0.483 -2.624,0.88c-0.251,0.115 -0.362,0.412 -0.247,0.663c0.115,0.251 0.412,0.361 0.663,0.246Z"/><path d="M12.429,9.437c0.852,0.271 1.885,0.445 2.481,1.173c0.175,0.214 0.49,0.245 0.704,0.07c0.213,-0.175 0.245,-0.49 0.07,-0.703c-0.719,-0.878 -1.925,-1.166 -2.952,-1.493c-0.263,-0.084 -0.545,0.062 -0.628,0.325c-0.084,0.263 0.062,0.544 0.325,0.628Z"/></svg>