<svg id="ba80ad54-9961-498e-a582-a19b6f805cfd" data-name="Ebene 1" xmlns="http://www.w3.org/2000/svg" viewBox="0 0 20 20">
  <g>
    <path d="M17.47,4.84A10.33,10.33,0,0,0,10.14,2c-4.24.26-6.53,1-8.93,4.36a7.93,7.93,0,0,0-.92,4.44,6.33,6.33,0,0,0,3,4.61,14,14,0,0,1-.73,2.73.51.51,0,0,0,0,.48.5.5,0,0,0,.42.22,5.49,5.49,0,0,0,3.72-1.65,9.9,9.9,0,0,0,4.91.46c5.11-.61,8.06-3.57,8.09-8.13A6.48,6.48,0,0,0,17.47,4.84Zm-5.94,11.8a8.41,8.41,0,0,1-4.69-.53.51.51,0,0,0-.63.14,4.25,4.25,0,0,1-2.44,1.47,18.12,18.12,0,0,0,.56-2.54.5.5,0,0,0-.28-.52c-.93-.45-2.23-1.36-2.78-4.08A7.18,7.18,0,0,1,2,6.91C4.2,3.82,6.22,3.22,10.2,3h.4a9.46,9.46,0,0,1,6.18,2.59,5.55,5.55,0,0,1,2,3.93C18.71,13.49,16.08,16.09,11.53,16.64Z"/>
    <path d="M6.46,9.69a.83.83,0,0,0-.85,0,.87.87,0,0,0-.44.74.64.64,0,0,0,.3.54.8.8,0,0,0,.56.23.74.74,0,0,0,.29,0A.84.84,0,0,0,6.6,9.8.49.49,0,0,0,6.46,9.69Z"/>
    <path d="M9.87,9.62a.75.75,0,0,0-.55,0,.66.66,0,0,0-.41.48,1,1,0,0,0,.3.88l.31,0a.72.72,0,0,0,.46.16.7.7,0,0,0,.39-.11.64.64,0,0,0,.26-.76A1.18,1.18,0,0,0,9.87,9.62Z"/>
    <path d="M14,9.59a.92.92,0,0,0-.78,0,.93.93,0,0,0-.54.56.76.76,0,0,0,.47,1h0l.09.06a.76.76,0,0,0,.43.14.78.78,0,0,0,.6-.3,1,1,0,0,0,.15-.77A.93.93,0,0,0,14,9.59Z"/>
  </g>
</svg>
