<svg id="a0510ce5-7d28-49b0-8ac9-2b134200faff" data-name="Ebene 1" xmlns="http://www.w3.org/2000/svg" viewBox="0 0 20 20"><path d="M4.83,4.15h0l9.37-.1a.5.5,0,1,0,0-1h0l-9.37.1a.49.49,0,0,0-.49.5A.51.51,0,0,0,4.83,4.15Z"/><path d="M19.09,10.32c0-2.27-.08-4.53-.13-6.82a.51.51,0,0,0-.5-.49h0L16.59,3a.5.5,0,0,0-.5.5.52.52,0,0,0,.51.5H18c0,.7,0,1.4,0,2.11L1.5,6.42c0-.75,0-1.5,0-2.24h1a.5.5,0,1,0,0-1H1a.5.5,0,0,0-.49.51c0,2.11,0,4.24.05,6.37s0,4.26.06,6.37a.49.49,0,0,0,.43.49,83.57,83.57,0,0,0,10.36.66q3.76,0,7.38-.36a.5.5,0,0,0,.45-.51Q19.15,13.5,19.09,10.32ZM1.58,16c0-2,0-4-.05-5.94,0-.88,0-1.75,0-2.63L18,7.13l.06,3.2c0,2,.07,3.95.11,5.94A80.08,80.08,0,0,1,1.58,16Z"/><path d="M3.64,4.8a.5.5,0,0,0,.5-.5V1.52a.5.5,0,0,0-.5-.5.5.5,0,0,0-.5.5V4.3A.5.5,0,0,0,3.64,4.8Z"/><path d="M15.44,5a.5.5,0,0,0,.5-.5v-3a.5.5,0,0,0-.5-.5.5.5,0,0,0-.5.5v3A.5.5,0,0,0,15.44,5Z"/><path d="M9.62,8.54a.5.5,0,0,0-.51.06L7.42,9.9a.5.5,0,1,0,.61.79L9,10,9.18,14a.51.51,0,0,0,.5.48h0a.49.49,0,0,0,.47-.52L9.91,9A.5.5,0,0,0,9.62,8.54Z"/></svg>