<?xml version="1.0" encoding="UTF-8" standalone="no"?><!DOCTYPE svg PUBLIC "-//W3C//DTD SVG 1.1//EN" "http://www.w3.org/Graphics/SVG/1.1/DTD/svg11.dtd"><svg width="100%" height="100%" viewBox="0 0 20 20" version="1.1" xmlns="http://www.w3.org/2000/svg" xmlns:xlink="http://www.w3.org/1999/xlink" xml:space="preserve" xmlns:serif="http://www.serif.com/" style="fill-rule:evenodd;clip-rule:evenodd;stroke-linecap:round;stroke-linejoin:round;stroke-miterlimit:1.5;"><g><path d="M18.124,6.966c-0,-0 0.152,1.335 0.152,2.005c0,0.903 -0.152,3.412 -0.152,3.412c-0,1.496 -1.097,2.838 -2.592,2.838l-3.682,-0.129c-0,0 -0.71,1.088 -1.102,1.564c-0.383,0.465 -1.255,1.298 -1.255,1.298c-0,-0 -0.527,-1.018 -0.876,-1.469c-0.37,-0.477 -1.341,-1.393 -1.341,-1.393l-2.615,0c-0.797,0 -1.35,-0.345 -1.846,-0.894c-0.434,-0.481 -0.862,-1.117 -0.862,-1.815c-0,0 0.129,-1.958 0.129,-2.861c-0,-0.853 -0.129,-2.556 -0.129,-2.556c-0,-1.495 1.061,-2.768 2.556,-2.768c-0,0 2.198,0.223 3.301,0.229c1.818,0.01 7.605,-0.17 7.605,-0.17c0.727,-0 1.633,0.24 2.12,0.706c0.514,0.494 0.46,1.305 0.589,2.003Z" style="fill:none;stroke:#000;stroke-width:1px;"/><path d="M4.544,6.661c0.424,-0 0.783,0.079 1.712,0.058c0.022,-0 1.073,0 1.255,0" style="fill:none;stroke:#000;stroke-width:1px;"/><path d="M10.748,6.775c0.332,-0.068 0.748,0.027 1.067,0.027c0.071,-0 0.637,0.003 0.715,-0.036c0.053,-0.026 1.354,-0.011 1.595,-0.011c0.065,-0 0.854,-0.071 1.102,-0.071" style="fill:none;stroke:#000;stroke-width:1px;"/><path d="M4.509,9.03c0.554,-0 2.927,-0.059 3.061,-0.059c0.281,-0 1.09,0.035 1.114,0.059c0.023,0.022 2.427,0.067 2.427,0.011" style="fill:none;stroke:#000;stroke-width:1px;"/><path d="M13.879,9.112c0.354,-0 0.551,-0.051 0.844,-0.044c0.649,0.016 0.528,-0.015 0.633,-0.015" style="fill:none;stroke:#000;stroke-width:1px;"/><path d="M15.227,12.055c-0.133,0 -0.681,-0.086 -1.137,-0.04c-0.114,0.011 -0.647,0.032 -0.763,0.04c-1.013,0.075 -1.237,-0.046 -1.841,-0.04c-0.304,0.003 -0.753,0.087 -1.09,0.087c-0.473,0 -0.917,-0.012 -1.396,-0.012" style="fill:none;stroke:#000;stroke-width:1px;"/><path d="M4.673,12.043c0.057,-0.056 0.354,-0.011 0.434,-0.011c0.404,-0 0.79,0.023 1.208,0.023" style="fill:none;stroke:#000;stroke-width:1px;"/></g></svg>