<?xml version="1.0" encoding="UTF-8" standalone="no"?><!DOCTYPE svg PUBLIC "-//W3C//DTD SVG 1.1//EN" "http://www.w3.org/Graphics/SVG/1.1/DTD/svg11.dtd"><svg width="100%" height="100%" viewBox="0 0 20 20" version="1.1" xmlns="http://www.w3.org/2000/svg" xmlns:xlink="http://www.w3.org/1999/xlink" xml:space="preserve" xmlns:serif="http://www.serif.com/" style="fill-rule:evenodd;clip-rule:evenodd;stroke-linecap:round;stroke-linejoin:round;stroke-miterlimit:1.5;"><path d="M7.203,19.34c-0.033,-1.738 -0.133,-4.366 -0.912,-5.862c-0.454,-0.871 -1.218,-1.488 -1.657,-2.362c-0.275,-0.548 -2.127,-3.093 -1.186,-3.826c0.398,-0.31 0.925,-0.023 1.259,0.322c0.311,0.321 0.717,0.687 0.959,1.048c0.245,0.368 0.479,0.733 0.865,0.99c0.201,0.134 0.407,0.261 0.613,0.388c0.026,0.016 0.181,0.135 0.205,0.125c0.034,-0.014 0.034,-0.354 0.037,-0.401c0.027,-0.437 -0.085,-0.869 -0.092,-1.305c-0.023,-1.513 -0.056,-2.888 0.086,-4.437c0.056,-0.605 0.354,-1.398 1.156,-1.229c1.086,0.229 0.947,5.41 0.858,7.169" style="fill:none;stroke:#000;stroke-width:1px;"/><path d="M9.855,6.297c0.183,-0.112 0.386,-0.257 0.599,-0.298c0.591,-0.116 0.878,0.602 0.95,1.057c0.074,0.462 0.022,0.947 0.012,1.412c-0.018,0.745 -0.024,1.517 -0.119,2.256" style="fill:none;stroke:#000;stroke-width:1px;"/><path d="M11.8,7.204c0.629,-0.386 1.374,-0.143 1.602,0.604c0.106,0.347 0.077,0.734 0.073,1.092c-0.007,0.709 -0.066,1.413 -0.112,2.12" style="fill:none;stroke:#000;stroke-width:1px;"/><path d="M13.917,8.479c0.158,-0.043 0.321,-0.089 0.486,-0.089c0.363,0.001 0.614,0.325 0.736,0.634c0.26,0.659 0.226,1.362 0.133,2.03c-0.517,3.75 -1.791,3.996 -1.791,3.996c0,0 -0.692,2.673 -0.84,4.29" style="fill:none;stroke:#000;stroke-width:1px;"/><path d="M4.484,3.873c0.272,0.02 0.543,0.048 0.81,0.104" style="fill:none;stroke:#000;stroke-width:1px;"/><path d="M4.957,2.07c0.224,0.134 0.449,0.268 0.674,0.4" style="fill:none;stroke:#000;stroke-width:1px;"/><path d="M6.997,0.677c0.074,0.162 0.147,0.325 0.21,0.492" style="fill:none;stroke:#000;stroke-width:1px;"/><path d="M9.089,0.713c-0.028,0.141 -0.062,0.282 -0.103,0.42" style="fill:none;stroke:#000;stroke-width:1px;"/><path d="M10.823,1.705c-0.083,0.056 -0.167,0.111 -0.248,0.17" style="fill:none;stroke:#000;stroke-width:1px;"/><path d="M11.759,3.314c-0.194,0.007 -0.382,0.031 -0.569,0.083" style="fill:none;stroke:#000;stroke-width:1px;"/></svg>