<?xml version="1.0" encoding="UTF-8" standalone="no"?>
<!DOCTYPE svg PUBLIC "-//W3C//DTD SVG 1.1//EN" "http://www.w3.org/Graphics/SVG/1.1/DTD/svg11.dtd">
<svg width="100%" height="100%" viewBox="0 0 20 20" version="1.1" xmlns="http://www.w3.org/2000/svg" xmlns:xlink="http://www.w3.org/1999/xlink" xml:space="preserve" xmlns:serif="http://www.serif.com/" style="fill-rule:evenodd;clip-rule:evenodd;stroke-linecap:round;stroke-linejoin:round;stroke-miterlimit:1.5;">
    <g transform="matrix(1,0,0,1,0.239163,0.366218)">
        <path d="M6.245,3.587C6.634,3.587 7.015,3.625 7.276,3.874C7.553,4.139 7.698,4.628 7.698,5.04C7.698,5.353 7.472,5.615 7.304,5.852C7.041,6.223 6.735,6.493 6.245,6.493C5.838,6.493 5.503,6.254 5.239,5.983C4.983,5.721 4.792,5.435 4.792,5.04C4.792,4.656 5.019,4.362 5.263,4.102C5.528,3.819 5.828,3.587 6.245,3.587Z" style="fill:none;stroke:black;stroke-width:1px;"/>
    </g>
    <g transform="matrix(1,0,0,1,8.08371,4.95815)">
        <path d="M6.251,3.532C6.654,3.532 7.092,3.852 7.355,4.118C7.615,4.381 7.698,4.642 7.698,5.04C7.698,5.287 7.537,5.569 7.428,5.773C7.184,6.231 6.8,6.493 6.245,6.493C5.83,6.493 5.571,6.291 5.306,6.011C5.059,5.75 4.792,5.427 4.792,5.04C4.792,4.66 4.994,4.313 5.234,4.054C5.5,3.767 5.829,3.532 6.251,3.532Z" style="fill:none;stroke:black;stroke-width:1px;"/>
    </g>
    <g transform="matrix(1,0,0,1,2.73841,9.58595)">
        <path d="M6.245,3.587C6.602,3.587 6.869,3.777 7.122,3.991C7.437,4.258 7.698,4.596 7.698,5.04C7.698,5.382 7.469,5.685 7.272,5.933C7.006,6.268 6.706,6.493 6.245,6.493C5.822,6.493 5.441,6.312 5.176,6.023C4.938,5.765 4.881,5.408 4.881,5.029C4.881,4.684 4.852,4.378 5.054,4.128C5.32,3.799 5.789,3.587 6.245,3.587Z" style="fill:none;stroke:black;stroke-width:1px;"/>
    </g>
    <path d="M7.985,5.417C7.985,5.417 9.415,5.229 10.8,5.243C11.326,5.248 11.778,5.374 12.242,5.417C12.896,5.477 13.991,5.652 14.93,5.648C16.413,5.642 17.395,5.088 18.417,5.385" style="fill:none;stroke:black;stroke-width:1px;"/>
    <path d="M1.555,5.422C1.555,5.422 2.76,5.547 3.345,5.549C3.657,5.55 4.529,5.381 4.756,5.381" style="fill:none;stroke:black;stroke-width:1px;"/>
    <path d="M1.877,9.917C1.877,9.917 4.024,10.206 4.402,10.194C5.511,10.16 6.607,9.688 7.945,9.649C8.977,9.619 10.243,9.925 10.508,9.961C11.118,10.045 12.613,9.901 12.613,9.901" style="fill:none;stroke:black;stroke-width:1px;"/>
    <path d="M16.009,10.176C16.009,10.176 16.665,10.259 17.285,10.218C17.811,10.183 18.308,10.025 18.396,10.025" style="fill:none;stroke:black;stroke-width:1px;"/>
    <path d="M1.526,14.698C1.526,14.698 2.314,14.598 3.087,14.55C3.701,14.513 4.31,14.521 4.469,14.553C4.828,14.625 7.064,14.685 7.256,14.529" style="fill:none;stroke:black;stroke-width:1px;"/>
    <path d="M10.616,14.529C10.616,14.529 11.699,14.601 12.75,14.702C13.437,14.767 14.11,14.883 14.46,14.866C15.211,14.829 17.006,14.627 18.317,14.771" style="fill:none;stroke:black;stroke-width:1px;"/>
</svg>
