<svg id="b86893fd-83fd-4492-9405-f9ddcfe3726d" data-name="Ebene 1" xmlns="http://www.w3.org/2000/svg" viewBox="0 0 20 20">
  <g>
    <path d="M18.9,13.56a1.71,1.71,0,0,0-1.48-.16,8.35,8.35,0,0,0-1.13.38l-1.86.85a1.93,1.93,0,0,0-1.33-1,3.36,3.36,0,0,0-.95,0,6.62,6.62,0,0,1-2.3-.06,4.28,4.28,0,0,1-.94-.37,4.74,4.74,0,0,0-1.72-.57A5,5,0,0,0,4.52,13c0-.13,0-.27,0-.41a.51.51,0,0,0-.45-.47l-.5-.05a8.05,8.05,0,0,0-2.3,0,.5.5,0,0,0-.41.5c0,1.51-.06,3.16-.14,4.75,0,.56-.06,1.11-.08,1.64a.5.5,0,0,0,.47.52c.43,0,.87,0,1.33,0s1.09,0,1.68,0A.5.5,0,0,0,4.59,19c0-.27,0-.54,0-.81A.9.9,0,0,1,5.28,18h0a3.58,3.58,0,0,1,1.13.27,17.75,17.75,0,0,0,4,1,4.39,4.39,0,0,0,.54,0,3.69,3.69,0,0,0,.56,0,4.47,4.47,0,0,0,1.34-.47,18.33,18.33,0,0,0,1.78-1l.22-.14c1.42-.89,2.9-1.74,4.39-2.52a.5.5,0,0,0,.26-.51A1.42,1.42,0,0,0,18.9,13.56Zm-15.3,5c-.7,0-1.34,0-1.95,0l.06-1.13c.07-1.45.14-2.95.14-4.37a9.64,9.64,0,0,1,1.61.07h.07C3.62,14.92,3.64,16.74,3.6,18.52Zm10.76-1.77-.23.14a19,19,0,0,1-1.68,1,3.89,3.89,0,0,1-1.06.37,3,3,0,0,1-.85,0,15.86,15.86,0,0,1-3.8-1A4.4,4.4,0,0,0,5.28,17h0a2.21,2.21,0,0,0-.68.12c0-1,0-1.93,0-2.89a3.62,3.62,0,0,1,2.51-.54,3.85,3.85,0,0,1,1.4.46,5.76,5.76,0,0,0,1.14.46,8,8,0,0,0,2.7.07,2.17,2.17,0,0,1,.62,0,1,1,0,0,1,.75.87,6,6,0,0,1-1.6.06l-1.91-.08h0a.5.5,0,0,0,0,1l2,.08c.23,0,.47,0,.72,0a4.1,4.1,0,0,0,1.58-.26.49.49,0,0,0,.31-.4c0-.1,0-.21,0-.31l2-.91a6.45,6.45,0,0,1,1-.34.83.83,0,0,1,.67,0l0,0C17,15.15,15.67,15.93,14.36,16.75Z"/>
    <path d="M11.79,10.83a11.11,11.11,0,0,0,2.27,2.35.46.46,0,0,0,.3.11.51.51,0,0,0,.3-.1A11,11,0,0,0,17,10.86a2.48,2.48,0,0,0,.36-.67,2.3,2.3,0,0,0,0-1.49A2.14,2.14,0,0,0,16.79,8a1.47,1.47,0,0,0-1.62-.32,2.89,2.89,0,0,0-.73.56l0,0a2.61,2.61,0,0,0-.79-.61,1.59,1.59,0,0,0-1.7.3,2.25,2.25,0,0,0-.47.72,2.36,2.36,0,0,0,0,1.51A2.72,2.72,0,0,0,11.79,10.83ZM12.38,9a1.11,1.11,0,0,1,.23-.36A.65.65,0,0,1,13,8.49a.33.33,0,0,1,.17,0,1.61,1.61,0,0,1,.5.41,3.41,3.41,0,0,0,.41.36.48.48,0,0,0,.57,0,5,5,0,0,0,.46-.39,1.84,1.84,0,0,1,.46-.38.46.46,0,0,1,.5.12,1.35,1.35,0,0,1,.28.38,1.21,1.21,0,0,1,0,.84,1.86,1.86,0,0,1-.23.41,9.85,9.85,0,0,1-1.77,1.86,9.85,9.85,0,0,1-1.76-1.88,2.05,2.05,0,0,1-.22-.41A1.35,1.35,0,0,1,12.38,9Z"/>
  </g>
</svg>
