<svg id="e4b3da13-35b8-4ca1-9e42-7f08768e0ce7" data-name="Ebene 1" xmlns="http://www.w3.org/2000/svg" viewBox="0 0 20 20">
  <g>
    <path d="M19.22,17.33c-1-1.69-2-3.38-3-5.07-1.93-3.33-3.93-6.77-6.07-10.19a.5.5,0,0,0-.42-.23.48.48,0,0,0-.43.24C7.12,5.69,5,9.47,3,13.13c-.74,1.32-1.47,2.64-2.21,3.95a.48.48,0,0,0,0,.49.48.48,0,0,0,.41.26C5,18,8.55,18,12,18c2.24,0,4.47,0,6.76.06h0a.48.48,0,0,0,.43-.25A.5.5,0,0,0,19.22,17.33ZM12,17c-3.21,0-6.52,0-10-.16.61-1.08,1.21-2.16,1.81-3.25C5.76,10.2,7.72,6.68,9.77,3.29c2,3.18,3.83,6.38,5.62,9.47l2.51,4.31C15.92,17,14,17,12,17Z"/>
    <path d="M9.75,12.59h.07a.5.5,0,0,0,.43-.56A28,28,0,0,1,10,7.1a.5.5,0,0,0-.48-.52A.48.48,0,0,0,9,7.05a28.14,28.14,0,0,0,.23,5.11A.5.5,0,0,0,9.75,12.59Z"/>
    <path d="M9.55,14.59a.71.71,0,0,0-.39.7.73.73,0,0,0,.48.65l.15,0a.59.59,0,0,0,.23-.05l.11,0a.5.5,0,0,0,.29-.51,1.27,1.27,0,0,0-.26-.62A.5.5,0,0,0,9.55,14.59Z"/>
  </g>
</svg>
