<svg id="eb61a184-1475-42b2-873a-68c1621701ae" data-name="Ebene 1" xmlns="http://www.w3.org/2000/svg" viewBox="0 0 20 20">
  <path d="M19.16,8.71c-.05-.85-.1-1.71-.14-2.59s-.92-1.44-2-1.44h0l-7.9,0c-.43,0-1.12,0-1.55,0-.94,0-1.82,0-2.76,0-.7,0-1.4,0-2.15,0A2.28,2.28,0,0,0,1,5.39a1.28,1.28,0,0,0-.38.9c0,1.18,0,2.36,0,3.5a52.09,52.09,0,0,0,.11,6,1.84,1.84,0,0,0,2,1.38c2.38,0,4.6,0,6.69,0,2.91,0,5.55,0,8,0,1.13,0,2-.68,2-1.51C19.41,13.28,19.28,11.06,19.16,8.71Zm-6.55,2.64c-.07,0-1.68,1.05-2.41,1.38-.48.22-1.81,1-2.28,1.32a.5.5,0,0,1-.26.08.53.53,0,0,1-.24-.06.51.51,0,0,1-.26-.42s-.09-2.05-.09-2.73.09-2.72.09-2.72a.48.48,0,0,1,.26-.42.5.5,0,0,1,.49,0l4.68,2.7a.52.52,0,0,1,.25.42A.54.54,0,0,1,12.61,11.35Z"/>
</svg>
